<svg width="412" height="112" viewBox="0 0 412 112" fill="none" xmlns="http://www.w3.org/2000/svg">
<rect width="412" height="112" fill="#FFFBFE"/>
<rect width="412" height="112" fill="#6750A4" fill-opacity="0.08"/>
<path d="M36 31H23.83L29.42 25.41L28 24L20 32L28 40L29.41 38.59L23.83 33H36V31Z" fill="#1C1B1F"/>
<path d="M31.0938 82H28.832V74.1133H20.2305V82H17.9805V64.9375H20.2305V72.2734H28.832V64.9375H31.0938V82ZM40.0117 82.2344C38.293 82.2344 36.8945 81.6719 35.8164 80.5469C34.7383 79.4141 34.1992 77.9023 34.1992 76.0117V75.6133C34.1992 74.3555 34.4375 73.2344 34.9141 72.25C35.3984 71.2578 36.0703 70.4844 36.9297 69.9297C37.7969 69.3672 38.7344 69.0859 39.7422 69.0859C41.3906 69.0859 42.6719 69.6289 43.5859 70.7148C44.5 71.8008 44.957 73.3555 44.957 75.3789V76.2812H36.3672C36.3984 77.5312 36.7617 78.543 37.457 79.3164C38.1602 80.082 39.0508 80.4648 40.1289 80.4648C40.8945 80.4648 41.543 80.3086 42.0742 79.9961C42.6055 79.6836 43.0703 79.2695 43.4688 78.7539L44.793 79.7852C43.7305 81.418 42.1367 82.2344 40.0117 82.2344ZM39.7422 70.8672C38.8672 70.8672 38.1328 71.1875 37.5391 71.8281C36.9453 72.4609 36.5781 73.3516 36.4375 74.5H42.7891V74.3359C42.7266 73.2344 42.4297 72.3828 41.8984 71.7812C41.3672 71.1719 40.6484 70.8672 39.7422 70.8672ZM55.3047 82C55.1797 81.75 55.0781 81.3047 55 80.6641C53.9922 81.7109 52.7891 82.2344 51.3906 82.2344C50.1406 82.2344 49.1133 81.8828 48.3086 81.1797C47.5117 80.4688 47.1133 79.5703 47.1133 78.4844C47.1133 77.1641 47.6133 76.1406 48.6133 75.4141C49.6211 74.6797 51.0352 74.3125 52.8555 74.3125H54.9648V73.3164C54.9648 72.5586 54.7383 71.957 54.2852 71.5117C53.832 71.0586 53.1641 70.832 52.2812 70.832C51.5078 70.832 50.8594 71.0273 50.3359 71.418C49.8125 71.8086 49.5508 72.2812 49.5508 72.8359H47.3711C47.3711 72.2031 47.5938 71.5938 48.0391 71.0078C48.4922 70.4141 49.1016 69.9453 49.8672 69.6016C50.6406 69.2578 51.4883 69.0859 52.4102 69.0859C53.8711 69.0859 55.0156 69.4531 55.8438 70.1875C56.6719 70.9141 57.1016 71.918 57.1328 73.1992V79.0352C57.1328 80.1992 57.2812 81.125 57.5781 81.8125V82H55.3047ZM51.707 80.3477C52.3867 80.3477 53.0312 80.1719 53.6406 79.8203C54.25 79.4688 54.6914 79.0117 54.9648 78.4492V75.8477H53.2656C50.6094 75.8477 49.2812 76.625 49.2812 78.1797C49.2812 78.8594 49.5078 79.3906 49.9609 79.7734C50.4141 80.1562 50.9961 80.3477 51.707 80.3477ZM60.0039 75.5547C60.0039 73.6094 60.4648 72.0469 61.3867 70.8672C62.3086 69.6797 63.5156 69.0859 65.0078 69.0859C66.4922 69.0859 67.668 69.5938 68.5352 70.6094V64H70.7031V82H68.7109L68.6055 80.6406C67.7383 81.7031 66.5312 82.2344 64.9844 82.2344C63.5156 82.2344 62.3164 81.6328 61.3867 80.4297C60.4648 79.2266 60.0039 77.6562 60.0039 75.7188V75.5547ZM62.1719 75.8008C62.1719 77.2383 62.4688 78.3633 63.0625 79.1758C63.6562 79.9883 64.4766 80.3945 65.5234 80.3945C66.8984 80.3945 67.9023 79.7773 68.5352 78.543V72.7188C67.8867 71.5234 66.8906 70.9258 65.5469 70.9258C64.4844 70.9258 63.6562 71.3359 63.0625 72.1562C62.4688 72.9766 62.1719 74.1914 62.1719 75.8008ZM76.4336 82H74.2656V64H76.4336V82ZM82.2695 82H80.1016V69.3203H82.2695V82ZM79.9258 65.957C79.9258 65.6055 80.0312 65.3086 80.2422 65.0664C80.4609 64.8242 80.7812 64.7031 81.2031 64.7031C81.625 64.7031 81.9453 64.8242 82.1641 65.0664C82.3828 65.3086 82.4922 65.6055 82.4922 65.957C82.4922 66.3086 82.3828 66.6016 82.1641 66.8359C81.9453 67.0703 81.625 67.1875 81.2031 67.1875C80.7812 67.1875 80.4609 67.0703 80.2422 66.8359C80.0312 66.6016 79.9258 66.3086 79.9258 65.957ZM87.8008 69.3203L87.8711 70.9141C88.8398 69.6953 90.1055 69.0859 91.668 69.0859C94.3477 69.0859 95.6992 70.5977 95.7227 73.6211V82H93.5547V73.6094C93.5469 72.6953 93.3359 72.0195 92.9219 71.582C92.5156 71.1445 91.8789 70.9258 91.0117 70.9258C90.3086 70.9258 89.6914 71.1133 89.1602 71.4883C88.6289 71.8633 88.2148 72.3555 87.918 72.9648V82H85.75V69.3203H87.8008ZM104.254 82.2344C102.535 82.2344 101.137 81.6719 100.059 80.5469C98.9805 79.4141 98.4414 77.9023 98.4414 76.0117V75.6133C98.4414 74.3555 98.6797 73.2344 99.1562 72.25C99.6406 71.2578 100.312 70.4844 101.172 69.9297C102.039 69.3672 102.977 69.0859 103.984 69.0859C105.633 69.0859 106.914 69.6289 107.828 70.7148C108.742 71.8008 109.199 73.3555 109.199 75.3789V76.2812H100.609C100.641 77.5312 101.004 78.543 101.699 79.3164C102.402 80.082 103.293 80.4648 104.371 80.4648C105.137 80.4648 105.785 80.3086 106.316 79.9961C106.848 79.6836 107.312 79.2695 107.711 78.7539L109.035 79.7852C107.973 81.418 106.379 82.2344 104.254 82.2344ZM103.984 70.8672C103.109 70.8672 102.375 71.1875 101.781 71.8281C101.188 72.4609 100.82 73.3516 100.68 74.5H107.031V74.3359C106.969 73.2344 106.672 72.3828 106.141 71.7812C105.609 71.1719 104.891 70.8672 103.984 70.8672ZM123.039 74.3945C121.109 73.8398 119.703 73.1602 118.82 72.3555C117.945 71.543 117.508 70.543 117.508 69.3555C117.508 68.0117 118.043 66.9023 119.113 66.0273C120.191 65.1445 121.59 64.7031 123.309 64.7031C124.48 64.7031 125.523 64.9297 126.438 65.3828C127.359 65.8359 128.07 66.4609 128.57 67.2578C129.078 68.0547 129.332 68.9258 129.332 69.8711H127.07C127.07 68.8398 126.742 68.0312 126.086 67.4453C125.43 66.8516 124.504 66.5547 123.309 66.5547C122.199 66.5547 121.332 66.8008 120.707 67.293C120.09 67.7773 119.781 68.4531 119.781 69.3203C119.781 70.0156 120.074 70.6055 120.66 71.0898C121.254 71.5664 122.258 72.0039 123.672 72.4023C125.094 72.8008 126.203 73.2422 127 73.7266C127.805 74.2031 128.398 74.7617 128.781 75.4023C129.172 76.043 129.367 76.7969 129.367 77.6641C129.367 79.0469 128.828 80.1562 127.75 80.9922C126.672 81.8203 125.23 82.2344 123.426 82.2344C122.254 82.2344 121.16 82.0117 120.145 81.5664C119.129 81.1133 118.344 80.4961 117.789 79.7148C117.242 78.9336 116.969 78.0469 116.969 77.0547H119.23C119.23 78.0859 119.609 78.9023 120.367 79.5039C121.133 80.0977 122.152 80.3945 123.426 80.3945C124.613 80.3945 125.523 80.1523 126.156 79.668C126.789 79.1836 127.105 78.5234 127.105 77.6875C127.105 76.8516 126.812 76.207 126.227 75.7539C125.641 75.293 124.578 74.8398 123.039 74.3945ZM133.961 69.3203L134.02 70.7266C134.949 69.6328 136.203 69.0859 137.781 69.0859C139.555 69.0859 140.762 69.7656 141.402 71.125C141.824 70.5156 142.371 70.0234 143.043 69.6484C143.723 69.2734 144.523 69.0859 145.445 69.0859C148.227 69.0859 149.641 70.5586 149.688 73.5039V82H147.52V73.6328C147.52 72.7266 147.312 72.0508 146.898 71.6055C146.484 71.1523 145.789 70.9258 144.812 70.9258C144.008 70.9258 143.34 71.168 142.809 71.6523C142.277 72.1289 141.969 72.7734 141.883 73.5859V82H139.703V73.6914C139.703 71.8477 138.801 70.9258 136.996 70.9258C135.574 70.9258 134.602 71.5312 134.078 72.7422V82H131.91V69.3203H133.961ZM160.797 82C160.672 81.75 160.57 81.3047 160.492 80.6641C159.484 81.7109 158.281 82.2344 156.883 82.2344C155.633 82.2344 154.605 81.8828 153.801 81.1797C153.004 80.4688 152.605 79.5703 152.605 78.4844C152.605 77.1641 153.105 76.1406 154.105 75.4141C155.113 74.6797 156.527 74.3125 158.348 74.3125H160.457V73.3164C160.457 72.5586 160.23 71.957 159.777 71.5117C159.324 71.0586 158.656 70.832 157.773 70.832C157 70.832 156.352 71.0273 155.828 71.418C155.305 71.8086 155.043 72.2812 155.043 72.8359H152.863C152.863 72.2031 153.086 71.5938 153.531 71.0078C153.984 70.4141 154.594 69.9453 155.359 69.6016C156.133 69.2578 156.98 69.0859 157.902 69.0859C159.363 69.0859 160.508 69.4531 161.336 70.1875C162.164 70.9141 162.594 71.918 162.625 73.1992V79.0352C162.625 80.1992 162.773 81.125 163.07 81.8125V82H160.797ZM157.199 80.3477C157.879 80.3477 158.523 80.1719 159.133 79.8203C159.742 79.4688 160.184 79.0117 160.457 78.4492V75.8477H158.758C156.102 75.8477 154.773 76.625 154.773 78.1797C154.773 78.8594 155 79.3906 155.453 79.7734C155.906 80.1562 156.488 80.3477 157.199 80.3477ZM168.379 82H166.211V64H168.379V82ZM174.215 82H172.047V64H174.215V82Z" fill="#1C1B1F"/>
<g clip-path="url(#clip0_9_14905)">
<path d="M291.5 26V36.5C291.5 38.71 289.71 40.5 287.5 40.5C285.29 40.5 283.5 38.71 283.5 36.5V26C283.5 24.62 284.62 23.5 286 23.5C287.38 23.5 288.5 24.62 288.5 26V35.5C288.5 36.05 288.05 36.5 287.5 36.5C286.95 36.5 286.5 36.05 286.5 35.5V26H285V35.5C285 36.88 286.12 38 287.5 38C288.88 38 290 36.88 290 35.5V26C290 23.79 288.21 22 286 22C283.79 22 282 23.79 282 26V36.5C282 39.54 284.46 42 287.5 42C290.54 42 293 39.54 293 36.5V26H291.5Z" fill="#49454F"/>
<path fill-rule="evenodd" clip-rule="evenodd" d="M343 24H342V22H340V24H332V22H330V24H329C327.89 24 327 24.9 327 26V40C327 41.1 327.89 42 329 42H343C344.1 42 345 41.1 345 40V26C345 24.9 344.1 24 343 24ZM343 40H329V29H343V40ZM330.5 33C330.5 31.62 331.62 30.5 333 30.5C334.38 30.5 335.5 31.62 335.5 33C335.5 34.38 334.38 35.5 333 35.5C331.62 35.5 330.5 34.38 330.5 33Z" fill="#49454F"/>
<path fill-rule="evenodd" clip-rule="evenodd" d="M384 28C385.1 28 386 27.1 386 26C386 24.9 385.1 24 384 24C382.9 24 382 24.9 382 26C382 27.1 382.9 28 384 28ZM384 30C382.9 30 382 30.9 382 32C382 33.1 382.9 34 384 34C385.1 34 386 33.1 386 32C386 30.9 385.1 30 384 30ZM382 38C382 36.9 382.9 36 384 36C385.1 36 386 36.9 386 38C386 39.1 385.1 40 384 40C382.9 40 382 39.1 382 38Z" fill="#49454F"/>
</g>
<defs>
<clipPath id="clip0_9_14905">
<rect width="120" height="24" fill="white" transform="translate(276 20)"/>
</clipPath>
</defs>
</svg>
