<svg width="412" height="152" viewBox="0 0 412 152" fill="none" xmlns="http://www.w3.org/2000/svg">
<rect width="412" height="152" fill="#FFFBFE"/>
<rect width="412" height="152" fill="#6750A4" fill-opacity="0.08"/>
<path d="M36 31H23.83L29.42 25.41L28 24L20 32L28 40L29.41 38.59L23.83 33H36V31Z" fill="#1C1B1F"/>
<path d="M33.6094 122H30.9707V112.799H20.9355V122H18.3105V102.094H20.9355V110.652H30.9707V102.094H33.6094V122ZM44.0137 122.273C42.0085 122.273 40.377 121.617 39.1191 120.305C37.8613 118.983 37.2324 117.219 37.2324 115.014V114.549C37.2324 113.081 37.5104 111.773 38.0664 110.625C38.6315 109.467 39.4154 108.565 40.418 107.918C41.4297 107.262 42.5234 106.934 43.6992 106.934C45.6224 106.934 47.1172 107.567 48.1836 108.834C49.25 110.101 49.7832 111.915 49.7832 114.275V115.328H39.7617C39.7982 116.786 40.222 117.967 41.0332 118.869C41.8535 119.762 42.8926 120.209 44.1504 120.209C45.0436 120.209 45.8001 120.027 46.4199 119.662C47.0397 119.298 47.582 118.814 48.0469 118.213L49.5918 119.416C48.3522 121.321 46.4928 122.273 44.0137 122.273ZM43.6992 109.012C42.6784 109.012 41.8216 109.385 41.1289 110.133C40.4362 110.871 40.0078 111.91 39.8438 113.25H47.2539V113.059C47.181 111.773 46.8346 110.78 46.2148 110.078C45.5951 109.367 44.7565 109.012 43.6992 109.012ZM61.8555 122C61.7096 121.708 61.5911 121.189 61.5 120.441C60.3242 121.663 58.9206 122.273 57.2891 122.273C55.8307 122.273 54.6322 121.863 53.6934 121.043C52.7637 120.214 52.2988 119.165 52.2988 117.898C52.2988 116.358 52.8822 115.164 54.0488 114.316C55.2246 113.46 56.8743 113.031 58.998 113.031H61.459V111.869C61.459 110.985 61.1947 110.283 60.666 109.764C60.1374 109.235 59.3581 108.971 58.3281 108.971C57.4258 108.971 56.6693 109.199 56.0586 109.654C55.4479 110.11 55.1426 110.661 55.1426 111.309H52.5996C52.5996 110.57 52.8594 109.859 53.3789 109.176C53.9076 108.483 54.6185 107.936 55.5117 107.535C56.4141 107.134 57.403 106.934 58.4785 106.934C60.1829 106.934 61.5182 107.362 62.4844 108.219C63.4505 109.066 63.9518 110.238 63.9883 111.732V118.541C63.9883 119.899 64.1615 120.979 64.5078 121.781V122H61.8555ZM57.6582 120.072C58.4512 120.072 59.2031 119.867 59.9141 119.457C60.625 119.047 61.14 118.514 61.459 117.857V114.822H59.4766C56.3776 114.822 54.8281 115.729 54.8281 117.543C54.8281 118.336 55.0924 118.956 55.6211 119.402C56.1497 119.849 56.8288 120.072 57.6582 120.072ZM67.3379 114.48C67.3379 112.211 67.8757 110.388 68.9512 109.012C70.0267 107.626 71.4349 106.934 73.1758 106.934C74.9076 106.934 76.2793 107.526 77.291 108.711V101H79.8203V122H77.4961L77.373 120.414C76.3613 121.654 74.9531 122.273 73.1484 122.273C71.4349 122.273 70.0358 121.572 68.9512 120.168C67.8757 118.764 67.3379 116.932 67.3379 114.672V114.48ZM69.8672 114.768C69.8672 116.445 70.2135 117.757 70.9062 118.705C71.599 119.653 72.556 120.127 73.7773 120.127C75.3815 120.127 76.5527 119.407 77.291 117.967V111.172C76.5345 109.777 75.3724 109.08 73.8047 109.08C72.5651 109.08 71.599 109.559 70.9062 110.516C70.2135 111.473 69.8672 112.89 69.8672 114.768ZM86.5059 122H83.9766V101H86.5059V122ZM93.3145 122H90.7852V107.207H93.3145V122ZM90.5801 103.283C90.5801 102.873 90.7031 102.527 90.9492 102.244C91.2044 101.962 91.5781 101.82 92.0703 101.82C92.5625 101.82 92.9362 101.962 93.1914 102.244C93.4466 102.527 93.5742 102.873 93.5742 103.283C93.5742 103.693 93.4466 104.035 93.1914 104.309C92.9362 104.582 92.5625 104.719 92.0703 104.719C91.5781 104.719 91.2044 104.582 90.9492 104.309C90.7031 104.035 90.5801 103.693 90.5801 103.283ZM99.7676 107.207L99.8496 109.066C100.98 107.645 102.456 106.934 104.279 106.934C107.406 106.934 108.982 108.697 109.01 112.225V122H106.48V112.211C106.471 111.145 106.225 110.356 105.742 109.846C105.268 109.335 104.525 109.08 103.514 109.08C102.693 109.08 101.973 109.299 101.354 109.736C100.734 110.174 100.251 110.748 99.9043 111.459V122H97.375V107.207H99.7676ZM118.963 122.273C116.958 122.273 115.326 121.617 114.068 120.305C112.811 118.983 112.182 117.219 112.182 115.014V114.549C112.182 113.081 112.46 111.773 113.016 110.625C113.581 109.467 114.365 108.565 115.367 107.918C116.379 107.262 117.473 106.934 118.648 106.934C120.572 106.934 122.066 107.567 123.133 108.834C124.199 110.101 124.732 111.915 124.732 114.275V115.328H114.711C114.747 116.786 115.171 117.967 115.982 118.869C116.803 119.762 117.842 120.209 119.1 120.209C119.993 120.209 120.749 120.027 121.369 119.662C121.989 119.298 122.531 118.814 122.996 118.213L124.541 119.416C123.301 121.321 121.442 122.273 118.963 122.273ZM118.648 109.012C117.628 109.012 116.771 109.385 116.078 110.133C115.385 110.871 114.957 111.91 114.793 113.25H122.203V113.059C122.13 111.773 121.784 110.78 121.164 110.078C120.544 109.367 119.706 109.012 118.648 109.012ZM138.404 102.094L144.912 118.336L151.42 102.094H154.824V122H152.199V114.248L152.445 105.881L145.91 122H143.9L137.379 105.922L137.639 114.248V122H135.014V102.094H138.404ZM165.201 122.273C163.196 122.273 161.564 121.617 160.307 120.305C159.049 118.983 158.42 117.219 158.42 115.014V114.549C158.42 113.081 158.698 111.773 159.254 110.625C159.819 109.467 160.603 108.565 161.605 107.918C162.617 107.262 163.711 106.934 164.887 106.934C166.81 106.934 168.305 107.567 169.371 108.834C170.438 110.101 170.971 111.915 170.971 114.275V115.328H160.949C160.986 116.786 161.41 117.967 162.221 118.869C163.041 119.762 164.08 120.209 165.338 120.209C166.231 120.209 166.988 120.027 167.607 119.662C168.227 119.298 168.77 118.814 169.234 118.213L170.779 119.416C169.54 121.321 167.68 122.273 165.201 122.273ZM164.887 109.012C163.866 109.012 163.009 109.385 162.316 110.133C161.624 110.871 161.195 111.91 161.031 113.25H168.441V113.059C168.368 111.773 168.022 110.78 167.402 110.078C166.783 109.367 165.944 109.012 164.887 109.012ZM173.295 114.48C173.295 112.211 173.833 110.388 174.908 109.012C175.984 107.626 177.392 106.934 179.133 106.934C180.865 106.934 182.236 107.526 183.248 108.711V101H185.777V122H183.453L183.33 120.414C182.318 121.654 180.91 122.273 179.105 122.273C177.392 122.273 175.993 121.572 174.908 120.168C173.833 118.764 173.295 116.932 173.295 114.672V114.48ZM175.824 114.768C175.824 116.445 176.171 117.757 176.863 118.705C177.556 119.653 178.513 120.127 179.734 120.127C181.339 120.127 182.51 119.407 183.248 117.967V111.172C182.492 109.777 181.329 109.08 179.762 109.08C178.522 109.08 177.556 109.559 176.863 110.516C176.171 111.473 175.824 112.89 175.824 114.768ZM192.463 122H189.934V107.207H192.463V122ZM189.729 103.283C189.729 102.873 189.852 102.527 190.098 102.244C190.353 101.962 190.727 101.82 191.219 101.82C191.711 101.82 192.085 101.962 192.34 102.244C192.595 102.527 192.723 102.873 192.723 103.283C192.723 103.693 192.595 104.035 192.34 104.309C192.085 104.582 191.711 104.719 191.219 104.719C190.727 104.719 190.353 104.582 190.098 104.309C189.852 104.035 189.729 103.693 189.729 103.283ZM205.656 120.537C204.672 121.695 203.227 122.273 201.322 122.273C199.745 122.273 198.542 121.818 197.713 120.906C196.893 119.986 196.478 118.628 196.469 116.832V107.207H198.998V116.764C198.998 119.006 199.91 120.127 201.732 120.127C203.665 120.127 204.95 119.407 205.588 117.967V107.207H208.117V122H205.711L205.656 120.537ZM214.352 107.207L214.42 108.848C215.505 107.572 216.967 106.934 218.809 106.934C220.878 106.934 222.286 107.727 223.033 109.312C223.525 108.602 224.163 108.027 224.947 107.59C225.74 107.152 226.674 106.934 227.75 106.934C230.995 106.934 232.645 108.652 232.699 112.088V122H230.17V112.238C230.17 111.181 229.928 110.393 229.445 109.873C228.962 109.344 228.151 109.08 227.012 109.08C226.073 109.08 225.294 109.363 224.674 109.928C224.054 110.484 223.694 111.236 223.594 112.184V122H221.051V112.307C221.051 110.156 219.998 109.08 217.893 109.08C216.234 109.08 215.099 109.786 214.488 111.199V122H211.959V107.207H214.352Z" fill="#1C1B1F"/>
<g clip-path="url(#clip0_9_15086)">
<path d="M291.5 26V36.5C291.5 38.71 289.71 40.5 287.5 40.5C285.29 40.5 283.5 38.71 283.5 36.5V26C283.5 24.62 284.62 23.5 286 23.5C287.38 23.5 288.5 24.62 288.5 26V35.5C288.5 36.05 288.05 36.5 287.5 36.5C286.95 36.5 286.5 36.05 286.5 35.5V26H285V35.5C285 36.88 286.12 38 287.5 38C288.88 38 290 36.88 290 35.5V26C290 23.79 288.21 22 286 22C283.79 22 282 23.79 282 26V36.5C282 39.54 284.46 42 287.5 42C290.54 42 293 39.54 293 36.5V26H291.5Z" fill="#49454F"/>
<path fill-rule="evenodd" clip-rule="evenodd" d="M343 24H342V22H340V24H332V22H330V24H329C327.89 24 327 24.9 327 26V40C327 41.1 327.89 42 329 42H343C344.1 42 345 41.1 345 40V26C345 24.9 344.1 24 343 24ZM343 40H329V29H343V40ZM330.5 33C330.5 31.62 331.62 30.5 333 30.5C334.38 30.5 335.5 31.62 335.5 33C335.5 34.38 334.38 35.5 333 35.5C331.62 35.5 330.5 34.38 330.5 33Z" fill="#49454F"/>
<path fill-rule="evenodd" clip-rule="evenodd" d="M384 28C385.1 28 386 27.1 386 26C386 24.9 385.1 24 384 24C382.9 24 382 24.9 382 26C382 27.1 382.9 28 384 28ZM384 30C382.9 30 382 30.9 382 32C382 33.1 382.9 34 384 34C385.1 34 386 33.1 386 32C386 30.9 385.1 30 384 30ZM382 38C382 36.9 382.9 36 384 36C385.1 36 386 36.9 386 38C386 39.1 385.1 40 384 40C382.9 40 382 39.1 382 38Z" fill="#49454F"/>
</g>
<defs>
<clipPath id="clip0_9_15086">
<rect width="120" height="24" fill="white" transform="translate(276 20)"/>
</clipPath>
</defs>
</svg>
