<svg width="1042" height="299" viewBox="0 0 1042 299" fill="none" xmlns="http://www.w3.org/2000/svg">
<rect width="1042" height="299" fill="#FFFBFE"/>
<rect width="412" height="152" transform="translate(63 74)" fill="#FFFBFE"/>
<rect width="412" height="152" transform="translate(63 74)" fill="#6750A4" fill-opacity="0.08"/>
<path d="M99 105H86.83L92.42 99.41L91 98L83 106L91 114L92.41 112.59L86.83 107H99V105Z" fill="#1C1B1F"/>
<path d="M94.3125 184.652V186.799H83.5391V184.652H94.3125ZM83.9492 176.094V196H81.3105V176.094H83.9492ZM96.6094 176.094V196H93.9844V176.094H96.6094ZM107.055 196.273C106.025 196.273 105.09 196.1 104.252 195.754C103.423 195.398 102.707 194.902 102.105 194.264C101.513 193.626 101.057 192.869 100.738 191.994C100.419 191.119 100.26 190.162 100.26 189.123V188.549C100.26 187.346 100.438 186.275 100.793 185.336C101.148 184.388 101.632 183.586 102.242 182.93C102.853 182.273 103.546 181.777 104.32 181.439C105.095 181.102 105.897 180.934 106.727 180.934C107.784 180.934 108.695 181.116 109.461 181.48C110.236 181.845 110.869 182.355 111.361 183.012C111.854 183.659 112.218 184.424 112.455 185.309C112.692 186.184 112.811 187.141 112.811 188.18V189.314H101.764V187.25H110.281V187.059C110.245 186.402 110.108 185.764 109.871 185.145C109.643 184.525 109.279 184.014 108.777 183.613C108.276 183.212 107.592 183.012 106.727 183.012C106.152 183.012 105.624 183.135 105.141 183.381C104.658 183.618 104.243 183.973 103.896 184.447C103.55 184.921 103.281 185.5 103.09 186.184C102.898 186.867 102.803 187.656 102.803 188.549V189.123C102.803 189.825 102.898 190.486 103.09 191.105C103.29 191.716 103.577 192.254 103.951 192.719C104.334 193.184 104.794 193.548 105.332 193.812C105.879 194.077 106.499 194.209 107.191 194.209C108.085 194.209 108.841 194.027 109.461 193.662C110.081 193.298 110.623 192.81 111.088 192.199L112.619 193.416C112.3 193.899 111.895 194.359 111.402 194.797C110.91 195.234 110.304 195.59 109.584 195.863C108.873 196.137 108.03 196.273 107.055 196.273ZM124.486 193.471V185.855C124.486 185.272 124.368 184.766 124.131 184.338C123.903 183.9 123.557 183.563 123.092 183.326C122.627 183.089 122.053 182.971 121.369 182.971C120.731 182.971 120.171 183.08 119.688 183.299C119.214 183.518 118.84 183.805 118.566 184.16C118.302 184.516 118.17 184.898 118.17 185.309H115.641C115.641 184.78 115.777 184.256 116.051 183.736C116.324 183.217 116.716 182.747 117.227 182.328C117.746 181.9 118.366 181.562 119.086 181.316C119.815 181.061 120.626 180.934 121.52 180.934C122.595 180.934 123.543 181.116 124.363 181.48C125.193 181.845 125.84 182.396 126.305 183.135C126.779 183.864 127.016 184.78 127.016 185.883V192.773C127.016 193.266 127.057 193.79 127.139 194.346C127.23 194.902 127.362 195.38 127.535 195.781V196H124.896C124.769 195.708 124.669 195.321 124.596 194.838C124.523 194.346 124.486 193.89 124.486 193.471ZM124.924 187.031L124.951 188.809H122.395C121.674 188.809 121.032 188.868 120.467 188.986C119.902 189.096 119.428 189.264 119.045 189.492C118.662 189.72 118.37 190.007 118.17 190.354C117.969 190.691 117.869 191.087 117.869 191.543C117.869 192.008 117.974 192.432 118.184 192.814C118.393 193.197 118.708 193.503 119.127 193.73C119.555 193.949 120.079 194.059 120.699 194.059C121.474 194.059 122.158 193.895 122.75 193.566C123.342 193.238 123.812 192.837 124.158 192.363C124.514 191.889 124.705 191.429 124.732 190.982L125.812 192.199C125.749 192.582 125.576 193.006 125.293 193.471C125.01 193.936 124.632 194.382 124.158 194.811C123.693 195.23 123.137 195.581 122.49 195.863C121.852 196.137 121.132 196.273 120.33 196.273C119.327 196.273 118.448 196.077 117.691 195.686C116.944 195.294 116.361 194.77 115.941 194.113C115.531 193.448 115.326 192.705 115.326 191.885C115.326 191.092 115.481 190.395 115.791 189.793C116.101 189.182 116.548 188.676 117.131 188.275C117.714 187.865 118.416 187.555 119.236 187.346C120.057 187.136 120.973 187.031 121.984 187.031H124.924ZM140.318 193.129V175H142.861V196H140.537L140.318 193.129ZM130.365 188.768V188.48C130.365 187.35 130.502 186.325 130.775 185.404C131.058 184.475 131.454 183.677 131.965 183.012C132.484 182.346 133.1 181.836 133.811 181.48C134.531 181.116 135.333 180.934 136.217 180.934C137.146 180.934 137.958 181.098 138.65 181.426C139.352 181.745 139.945 182.214 140.428 182.834C140.92 183.445 141.307 184.183 141.59 185.049C141.872 185.915 142.068 186.895 142.178 187.988V189.246C142.077 190.331 141.882 191.306 141.59 192.172C141.307 193.038 140.92 193.776 140.428 194.387C139.945 194.997 139.352 195.467 138.65 195.795C137.949 196.114 137.128 196.273 136.189 196.273C135.324 196.273 134.531 196.087 133.811 195.713C133.1 195.339 132.484 194.815 131.965 194.141C131.454 193.466 131.058 192.673 130.775 191.762C130.502 190.841 130.365 189.843 130.365 188.768ZM132.908 188.48V188.768C132.908 189.506 132.981 190.199 133.127 190.846C133.282 191.493 133.519 192.062 133.838 192.555C134.157 193.047 134.562 193.434 135.055 193.717C135.547 193.99 136.135 194.127 136.818 194.127C137.657 194.127 138.345 193.949 138.883 193.594C139.43 193.238 139.867 192.769 140.195 192.186C140.523 191.602 140.779 190.969 140.961 190.285V186.99C140.852 186.489 140.692 186.006 140.482 185.541C140.282 185.067 140.018 184.648 139.689 184.283C139.37 183.91 138.974 183.613 138.5 183.395C138.035 183.176 137.484 183.066 136.846 183.066C136.153 183.066 135.556 183.212 135.055 183.504C134.562 183.786 134.157 184.178 133.838 184.68C133.519 185.172 133.282 185.746 133.127 186.402C132.981 187.049 132.908 187.742 132.908 188.48ZM149.547 175V196H147.004V175H149.547ZM156.355 181.207V196H153.812V181.207H156.355ZM153.621 177.283C153.621 176.873 153.744 176.527 153.99 176.244C154.245 175.962 154.619 175.82 155.111 175.82C155.594 175.82 155.964 175.962 156.219 176.244C156.483 176.527 156.615 176.873 156.615 177.283C156.615 177.675 156.483 178.012 156.219 178.295C155.964 178.568 155.594 178.705 155.111 178.705C154.619 178.705 154.245 178.568 153.99 178.295C153.744 178.012 153.621 177.675 153.621 177.283ZM162.945 184.365V196H160.416V181.207H162.809L162.945 184.365ZM162.344 188.043L161.291 188.002C161.3 186.99 161.451 186.056 161.742 185.199C162.034 184.333 162.444 183.581 162.973 182.943C163.501 182.305 164.13 181.813 164.859 181.467C165.598 181.111 166.413 180.934 167.307 180.934C168.036 180.934 168.692 181.034 169.275 181.234C169.859 181.426 170.355 181.736 170.766 182.164C171.185 182.592 171.504 183.148 171.723 183.832C171.941 184.507 172.051 185.331 172.051 186.307V196H169.508V186.279C169.508 185.505 169.394 184.885 169.166 184.42C168.938 183.946 168.605 183.604 168.168 183.395C167.73 183.176 167.193 183.066 166.555 183.066C165.926 183.066 165.352 183.199 164.832 183.463C164.322 183.727 163.88 184.092 163.506 184.557C163.141 185.021 162.854 185.555 162.645 186.156C162.444 186.749 162.344 187.378 162.344 188.043ZM182.031 196.273C181.001 196.273 180.067 196.1 179.229 195.754C178.399 195.398 177.684 194.902 177.082 194.264C176.49 193.626 176.034 192.869 175.715 191.994C175.396 191.119 175.236 190.162 175.236 189.123V188.549C175.236 187.346 175.414 186.275 175.77 185.336C176.125 184.388 176.608 183.586 177.219 182.93C177.829 182.273 178.522 181.777 179.297 181.439C180.072 181.102 180.874 180.934 181.703 180.934C182.76 180.934 183.672 181.116 184.438 181.48C185.212 181.845 185.846 182.355 186.338 183.012C186.83 183.659 187.195 184.424 187.432 185.309C187.669 186.184 187.787 187.141 187.787 188.18V189.314H176.74V187.25H185.258V187.059C185.221 186.402 185.085 185.764 184.848 185.145C184.62 184.525 184.255 184.014 183.754 183.613C183.253 183.212 182.569 183.012 181.703 183.012C181.129 183.012 180.6 183.135 180.117 183.381C179.634 183.618 179.219 183.973 178.873 184.447C178.527 184.921 178.258 185.5 178.066 186.184C177.875 186.867 177.779 187.656 177.779 188.549V189.123C177.779 189.825 177.875 190.486 178.066 191.105C178.267 191.716 178.554 192.254 178.928 192.719C179.311 193.184 179.771 193.548 180.309 193.812C180.855 194.077 181.475 194.209 182.168 194.209C183.061 194.209 183.818 194.027 184.438 193.662C185.057 193.298 185.6 192.81 186.064 192.199L187.596 193.416C187.277 193.899 186.871 194.359 186.379 194.797C185.887 195.234 185.281 195.59 184.561 195.863C183.85 196.137 183.007 196.273 182.031 196.273ZM198.902 176.094H201.459L207.98 192.322L214.488 176.094H217.059L208.965 196H206.969L198.902 176.094ZM198.068 176.094H200.324L200.693 188.234V196H198.068V176.094ZM215.623 176.094H217.879V196H215.254V188.234L215.623 176.094ZM228.27 196.273C227.24 196.273 226.305 196.1 225.467 195.754C224.637 195.398 223.922 194.902 223.32 194.264C222.728 193.626 222.272 192.869 221.953 191.994C221.634 191.119 221.475 190.162 221.475 189.123V188.549C221.475 187.346 221.652 186.275 222.008 185.336C222.363 184.388 222.846 183.586 223.457 182.93C224.068 182.273 224.76 181.777 225.535 181.439C226.31 181.102 227.112 180.934 227.941 180.934C228.999 180.934 229.91 181.116 230.676 181.48C231.451 181.845 232.084 182.355 232.576 183.012C233.068 183.659 233.433 184.424 233.67 185.309C233.907 186.184 234.025 187.141 234.025 188.18V189.314H222.979V187.25H231.496V187.059C231.46 186.402 231.323 185.764 231.086 185.145C230.858 184.525 230.493 184.014 229.992 183.613C229.491 183.212 228.807 183.012 227.941 183.012C227.367 183.012 226.839 183.135 226.355 183.381C225.872 183.618 225.458 183.973 225.111 184.447C224.765 184.921 224.496 185.5 224.305 186.184C224.113 186.867 224.018 187.656 224.018 188.549V189.123C224.018 189.825 224.113 190.486 224.305 191.105C224.505 191.716 224.792 192.254 225.166 192.719C225.549 193.184 226.009 193.548 226.547 193.812C227.094 194.077 227.714 194.209 228.406 194.209C229.299 194.209 230.056 194.027 230.676 193.662C231.296 193.298 231.838 192.81 232.303 192.199L233.834 193.416C233.515 193.899 233.109 194.359 232.617 194.797C232.125 195.234 231.519 195.59 230.799 195.863C230.088 196.137 229.245 196.273 228.27 196.273ZM246.303 193.129V175H248.846V196H246.521L246.303 193.129ZM236.35 188.768V188.48C236.35 187.35 236.486 186.325 236.76 185.404C237.042 184.475 237.439 183.677 237.949 183.012C238.469 182.346 239.084 181.836 239.795 181.48C240.515 181.116 241.317 180.934 242.201 180.934C243.131 180.934 243.942 181.098 244.635 181.426C245.337 181.745 245.929 182.214 246.412 182.834C246.904 183.445 247.292 184.183 247.574 185.049C247.857 185.915 248.053 186.895 248.162 187.988V189.246C248.062 190.331 247.866 191.306 247.574 192.172C247.292 193.038 246.904 193.776 246.412 194.387C245.929 194.997 245.337 195.467 244.635 195.795C243.933 196.114 243.113 196.273 242.174 196.273C241.308 196.273 240.515 196.087 239.795 195.713C239.084 195.339 238.469 194.815 237.949 194.141C237.439 193.466 237.042 192.673 236.76 191.762C236.486 190.841 236.35 189.843 236.35 188.768ZM238.893 188.48V188.768C238.893 189.506 238.965 190.199 239.111 190.846C239.266 191.493 239.503 192.062 239.822 192.555C240.141 193.047 240.547 193.434 241.039 193.717C241.531 193.99 242.119 194.127 242.803 194.127C243.641 194.127 244.329 193.949 244.867 193.594C245.414 193.238 245.852 192.769 246.18 192.186C246.508 191.602 246.763 190.969 246.945 190.285V186.99C246.836 186.489 246.676 186.006 246.467 185.541C246.266 185.067 246.002 184.648 245.674 184.283C245.355 183.91 244.958 183.613 244.484 183.395C244.02 183.176 243.468 183.066 242.83 183.066C242.137 183.066 241.54 183.212 241.039 183.504C240.547 183.786 240.141 184.178 239.822 184.68C239.503 185.172 239.266 185.746 239.111 186.402C238.965 187.049 238.893 187.742 238.893 188.48ZM255.531 181.207V196H252.988V181.207H255.531ZM252.797 177.283C252.797 176.873 252.92 176.527 253.166 176.244C253.421 175.962 253.795 175.82 254.287 175.82C254.77 175.82 255.139 175.962 255.395 176.244C255.659 176.527 255.791 176.873 255.791 177.283C255.791 177.675 255.659 178.012 255.395 178.295C255.139 178.568 254.77 178.705 254.287 178.705C253.795 178.705 253.421 178.568 253.166 178.295C252.92 178.012 252.797 177.675 252.797 177.283ZM268.643 192.582V181.207H271.186V196H268.766L268.643 192.582ZM269.121 189.465L270.174 189.438C270.174 190.422 270.069 191.333 269.859 192.172C269.659 193.001 269.331 193.721 268.875 194.332C268.419 194.943 267.822 195.421 267.084 195.768C266.346 196.105 265.448 196.273 264.391 196.273C263.671 196.273 263.01 196.169 262.408 195.959C261.816 195.749 261.305 195.426 260.877 194.988C260.449 194.551 260.116 193.981 259.879 193.279C259.651 192.577 259.537 191.734 259.537 190.75V181.207H262.066V190.777C262.066 191.443 262.139 191.994 262.285 192.432C262.44 192.86 262.645 193.202 262.9 193.457C263.165 193.703 263.456 193.876 263.775 193.977C264.104 194.077 264.441 194.127 264.787 194.127C265.863 194.127 266.715 193.922 267.344 193.512C267.973 193.092 268.424 192.532 268.697 191.83C268.98 191.119 269.121 190.331 269.121 189.465ZM277.557 184.146V196H275.014V181.207H277.42L277.557 184.146ZM277.037 188.043L275.861 188.002C275.87 186.99 276.003 186.056 276.258 185.199C276.513 184.333 276.891 183.581 277.393 182.943C277.894 182.305 278.518 181.813 279.266 181.467C280.013 181.111 280.879 180.934 281.863 180.934C282.556 180.934 283.194 181.034 283.777 181.234C284.361 181.426 284.867 181.731 285.295 182.15C285.723 182.57 286.056 183.107 286.293 183.764C286.53 184.42 286.648 185.213 286.648 186.143V196H284.119V186.266C284.119 185.491 283.987 184.871 283.723 184.406C283.467 183.941 283.103 183.604 282.629 183.395C282.155 183.176 281.599 183.066 280.961 183.066C280.214 183.066 279.589 183.199 279.088 183.463C278.587 183.727 278.186 184.092 277.885 184.557C277.584 185.021 277.365 185.555 277.229 186.156C277.101 186.749 277.037 187.378 277.037 188.043ZM286.621 186.648L284.926 187.168C284.935 186.357 285.067 185.577 285.322 184.83C285.587 184.083 285.965 183.417 286.457 182.834C286.958 182.251 287.574 181.79 288.303 181.453C289.032 181.107 289.866 180.934 290.805 180.934C291.598 180.934 292.299 181.038 292.91 181.248C293.53 181.458 294.049 181.781 294.469 182.219C294.897 182.647 295.221 183.199 295.439 183.873C295.658 184.548 295.768 185.35 295.768 186.279V196H293.225V186.252C293.225 185.423 293.092 184.78 292.828 184.324C292.573 183.859 292.208 183.536 291.734 183.354C291.27 183.162 290.714 183.066 290.066 183.066C289.51 183.066 289.018 183.162 288.59 183.354C288.161 183.545 287.801 183.809 287.51 184.146C287.218 184.475 286.995 184.853 286.84 185.281C286.694 185.71 286.621 186.165 286.621 186.648Z" fill="#1C1B1F"/>
<g clip-path="url(#clip0_116_2237)">
<path d="M354.5 100V110.5C354.5 112.71 352.71 114.5 350.5 114.5C348.29 114.5 346.5 112.71 346.5 110.5V100C346.5 98.62 347.62 97.5 349 97.5C350.38 97.5 351.5 98.62 351.5 100V109.5C351.5 110.05 351.05 110.5 350.5 110.5C349.95 110.5 349.5 110.05 349.5 109.5V100H348V109.5C348 110.88 349.12 112 350.5 112C351.88 112 353 110.88 353 109.5V100C353 97.79 351.21 96 349 96C346.79 96 345 97.79 345 100V110.5C345 113.54 347.46 116 350.5 116C353.54 116 356 113.54 356 110.5V100H354.5Z" fill="#49454F"/>
<path fill-rule="evenodd" clip-rule="evenodd" d="M406 98H405V96H403V98H395V96H393V98H392C390.89 98 390 98.9 390 100V114C390 115.1 390.89 116 392 116H406C407.1 116 408 115.1 408 114V100C408 98.9 407.1 98 406 98ZM406 114H392V103H406V114ZM393.5 107C393.5 105.62 394.62 104.5 396 104.5C397.38 104.5 398.5 105.62 398.5 107C398.5 108.38 397.38 109.5 396 109.5C394.62 109.5 393.5 108.38 393.5 107Z" fill="#49454F"/>
<path fill-rule="evenodd" clip-rule="evenodd" d="M447 102C448.1 102 449 101.1 449 100C449 98.9 448.1 98 447 98C445.9 98 445 98.9 445 100C445 101.1 445.9 102 447 102ZM447 104C445.9 104 445 104.9 445 106C445 107.1 445.9 108 447 108C448.1 108 449 107.1 449 106C449 104.9 448.1 104 447 104ZM445 112C445 110.9 445.9 110 447 110C448.1 110 449 110.9 449 112C449 113.1 448.1 114 447 114C445.9 114 445 113.1 445 112Z" fill="#49454F"/>
</g>
<rect width="412" height="80" transform="translate(563 110)" fill="#FFFBFE"/>
<rect width="412" height="80" transform="translate(563 110)" fill="#6750A4" fill-opacity="0.08"/>
<path fill-rule="evenodd" clip-rule="evenodd" d="M653.64 140.75C653.13 140.75 652.62 140.95 652.23 141.34L644.44 149.13C643.66 149.91 643.66 151.18 644.44 151.96L645.8 153.32C646.19 153.71 646.7 153.91 647.21 153.91C647.72 153.91 648.23 153.71 648.62 153.32L656.41 145.53C657.19 144.75 657.19 143.48 656.41 142.7L655.06 141.35C654.67 140.95 654.16 140.75 653.64 140.75ZM653.64 142.75L655 144.11L647.21 151.9L645.85 150.54L653.64 142.75ZM639 155.25C639 153.59 640.34 152.25 642 152.25C643.66 152.25 645 153.59 645 155.25C645 157.46 643.21 159.25 641 159.25C639.49 159.25 637.92 158.47 637 157.25C637.84 157.25 639 156.56 639 155.25Z" fill="#49454F"/>
<path fill-rule="evenodd" clip-rule="evenodd" d="M695 152C696.66 152 698 150.66 698 149V143C698 141.34 696.66 140 695 140C693.34 140 692 141.34 692 143V149C692 150.66 693.34 152 695 152ZM694 143C694 142.45 694.45 142 695 142C695.55 142 696 142.45 696 143V149C696 149.55 695.55 150 695 150C694.45 150 694 149.55 694 149V143ZM695 154C697.76 154 700 151.76 700 149H702C702 152.53 699.39 155.43 696 155.92V159H694V155.92C690.61 155.43 688 152.53 688 149H690C690 151.76 692.24 154 695 154Z" fill="#49454F"/>
<path fill-rule="evenodd" clip-rule="evenodd" d="M750 141H736C734.9 141 734 141.9 734 143V157C734 158.1 734.9 159 736 159H750C751.1 159 752 158.1 752 157V143C752 141.9 751.1 141 750 141ZM750 157H736V143H750V157ZM742 153.72L745 150L749 155H737L740 151L742 153.72Z" fill="#49454F"/>
<path d="M606 141H592C590.9 141 590 141.9 590 143V157C590 158.1 590.9 159 592 159H606C607.1 159 608 158.1 608 157V143C608 141.9 607.1 141 606 141ZM606 157H592V143H606V157ZM605 147L603.6 145.6L597 152.2L594.4 149.6L593 151L597 155L605 147Z" fill="#49454F"/>
<rect x="903" y="122" width="56" height="56" rx="16" fill="#E8DEF8"/>
<path d="M939 151H932V158H930V151H923V149H930V142H932V149H939V151Z" fill="#1D192B"/>
<defs>
<clipPath id="clip0_116_2237">
<rect width="120" height="24" fill="white" transform="translate(339 94)"/>
</clipPath>
</defs>
</svg>
