<svg width="412" height="64" viewBox="0 0 412 64" fill="none" xmlns="http://www.w3.org/2000/svg">
<rect width="412" height="64" fill="#FFFBFE"/>
<rect width="412" height="64" fill="#6750A4" fill-opacity="0.08"/>
<path d="M36 31H23.83L29.42 25.41L28 24L20 32L28 40L29.41 38.59L23.83 33H36V31Z" fill="#1C1B1F"/>
<path d="M68.6221 24.0566H63.5947V38H61.543V24.0566H56.5264V22.3594H68.6221V24.0566ZM72.79 38H70.8027V26.377H72.79V38ZM70.6416 23.2939C70.6416 22.9717 70.7383 22.6995 70.9316 22.4775C71.1322 22.2555 71.4258 22.1445 71.8125 22.1445C72.1992 22.1445 72.4928 22.2555 72.6934 22.4775C72.8939 22.6995 72.9941 22.9717 72.9941 23.2939C72.9941 23.6162 72.8939 23.8848 72.6934 24.0996C72.4928 24.3145 72.1992 24.4219 71.8125 24.4219C71.4258 24.4219 71.1322 24.3145 70.9316 24.0996C70.7383 23.8848 70.6416 23.6162 70.6416 23.2939ZM78.6768 23.5625V26.377H80.8467V27.9131H78.6768V35.1211C78.6768 35.5866 78.7734 35.9375 78.9668 36.1738C79.1602 36.403 79.4896 36.5176 79.9551 36.5176C80.1842 36.5176 80.4993 36.4746 80.9004 36.3887V38C80.3776 38.1432 79.8691 38.2148 79.375 38.2148C78.487 38.2148 77.8174 37.9463 77.3662 37.4092C76.915 36.8721 76.6895 36.1094 76.6895 35.1211V27.9131H74.5732V26.377H76.6895V23.5625H78.6768ZM85.3369 38H83.3496V21.5H85.3369V38ZM93.3506 38.2148C91.7751 38.2148 90.4932 37.6992 89.5049 36.668C88.5166 35.6296 88.0225 34.2438 88.0225 32.5107V32.1455C88.0225 30.9925 88.2409 29.9648 88.6777 29.0625C89.1217 28.153 89.7376 27.444 90.5254 26.9355C91.3203 26.4199 92.1797 26.1621 93.1035 26.1621C94.6146 26.1621 95.7891 26.6598 96.627 27.6553C97.4648 28.6507 97.8838 30.0758 97.8838 31.9307V32.7578H90.0098C90.0384 33.9036 90.3714 34.8311 91.0088 35.54C91.6533 36.2419 92.4697 36.5928 93.458 36.5928C94.1598 36.5928 94.7542 36.4495 95.2412 36.1631C95.7282 35.8766 96.1543 35.4971 96.5195 35.0244L97.7334 35.9697C96.7594 37.4665 95.2985 38.2148 93.3506 38.2148ZM93.1035 27.7949C92.3014 27.7949 91.6283 28.0885 91.084 28.6758C90.5397 29.2559 90.2031 30.0723 90.0742 31.125H95.8965V30.9746C95.8392 29.9648 95.5671 29.1842 95.0801 28.6328C94.5931 28.0742 93.9342 27.7949 93.1035 27.7949ZM108.035 36.3135H115.447V38H105.962V22.3594H108.035V36.3135ZM124.664 38C124.549 37.7708 124.456 37.3626 124.385 36.7754C123.461 37.735 122.358 38.2148 121.076 38.2148C119.93 38.2148 118.989 37.8926 118.251 37.248C117.521 36.5964 117.155 35.7728 117.155 34.7773C117.155 33.5671 117.614 32.6289 118.53 31.9629C119.454 31.2897 120.75 30.9531 122.419 30.9531H124.353V30.04C124.353 29.3454 124.145 28.7939 123.729 28.3857C123.314 27.9704 122.702 27.7627 121.893 27.7627C121.184 27.7627 120.589 27.9417 120.109 28.2998C119.63 28.6579 119.39 29.0911 119.39 29.5996H117.392C117.392 29.0195 117.596 28.4609 118.004 27.9238C118.419 27.3796 118.978 26.9499 119.68 26.6348C120.389 26.3197 121.166 26.1621 122.011 26.1621C123.35 26.1621 124.399 26.4987 125.158 27.1719C125.917 27.8379 126.311 28.7581 126.34 29.9326V35.2822C126.34 36.3493 126.476 37.1979 126.748 37.8281V38H124.664ZM121.366 36.4854C121.989 36.4854 122.58 36.3242 123.139 36.002C123.697 35.6797 124.102 35.2607 124.353 34.7451V32.3604H122.795C120.36 32.3604 119.143 33.0729 119.143 34.498C119.143 35.1211 119.35 35.6081 119.766 35.959C120.181 36.3099 120.715 36.4854 121.366 36.4854ZM135.073 28.1602C134.772 28.11 134.447 28.085 134.096 28.085C132.792 28.085 131.908 28.64 131.442 29.75V38H129.455V26.377H131.389L131.421 27.7197C132.073 26.6813 132.996 26.1621 134.192 26.1621C134.579 26.1621 134.873 26.2122 135.073 26.3125V28.1602ZM136.223 32.0918C136.223 30.2799 136.642 28.8405 137.479 27.7734C138.317 26.6992 139.427 26.1621 140.81 26.1621C142.228 26.1621 143.334 26.6634 144.129 27.666L144.226 26.377H146.041V37.7207C146.041 39.2246 145.593 40.4098 144.698 41.2764C143.81 42.1429 142.614 42.5762 141.11 42.5762C140.272 42.5762 139.452 42.3971 138.65 42.0391C137.848 41.681 137.236 41.1904 136.813 40.5674L137.845 39.375C138.697 40.4277 139.739 40.9541 140.971 40.9541C141.938 40.9541 142.689 40.682 143.227 40.1377C143.771 39.5934 144.043 38.8271 144.043 37.8389V36.8398C143.248 37.7565 142.163 38.2148 140.788 38.2148C139.427 38.2148 138.325 37.667 137.479 36.5713C136.642 35.4756 136.223 33.9824 136.223 32.0918ZM138.221 32.3174C138.221 33.6279 138.489 34.6592 139.026 35.4111C139.563 36.1559 140.315 36.5283 141.282 36.5283C142.535 36.5283 143.456 35.959 144.043 34.8203V29.5137C143.434 28.4036 142.521 27.8486 141.304 27.8486C140.337 27.8486 139.581 28.2246 139.037 28.9766C138.493 29.7285 138.221 30.8421 138.221 32.3174ZM153.872 38.2148C152.297 38.2148 151.015 37.6992 150.026 36.668C149.038 35.6296 148.544 34.2438 148.544 32.5107V32.1455C148.544 30.9925 148.762 29.9648 149.199 29.0625C149.643 28.153 150.259 27.444 151.047 26.9355C151.842 26.4199 152.701 26.1621 153.625 26.1621C155.136 26.1621 156.311 26.6598 157.148 27.6553C157.986 28.6507 158.405 30.0758 158.405 31.9307V32.7578H150.531C150.56 33.9036 150.893 34.8311 151.53 35.54C152.175 36.2419 152.991 36.5928 153.979 36.5928C154.681 36.5928 155.276 36.4495 155.763 36.1631C156.25 35.8766 156.676 35.4971 157.041 35.0244L158.255 35.9697C157.281 37.4665 155.82 38.2148 153.872 38.2148ZM153.625 27.7949C152.823 27.7949 152.15 28.0885 151.605 28.6758C151.061 29.2559 150.725 30.0723 150.596 31.125H156.418V30.9746C156.361 29.9648 156.089 29.1842 155.602 28.6328C155.115 28.0742 154.456 27.7949 153.625 27.7949Z" fill="#1C1B1F"/>
<g clip-path="url(#clip0_9_14474)">
<path d="M291.5 26V36.5C291.5 38.71 289.71 40.5 287.5 40.5C285.29 40.5 283.5 38.71 283.5 36.5V26C283.5 24.62 284.62 23.5 286 23.5C287.38 23.5 288.5 24.62 288.5 26V35.5C288.5 36.05 288.05 36.5 287.5 36.5C286.95 36.5 286.5 36.05 286.5 35.5V26H285V35.5C285 36.88 286.12 38 287.5 38C288.88 38 290 36.88 290 35.5V26C290 23.79 288.21 22 286 22C283.79 22 282 23.79 282 26V36.5C282 39.54 284.46 42 287.5 42C290.54 42 293 39.54 293 36.5V26H291.5Z" fill="#49454F"/>
<path fill-rule="evenodd" clip-rule="evenodd" d="M343 24H342V22H340V24H332V22H330V24H329C327.89 24 327 24.9 327 26V40C327 41.1 327.89 42 329 42H343C344.1 42 345 41.1 345 40V26C345 24.9 344.1 24 343 24ZM343 40H329V29H343V40ZM330.5 33C330.5 31.62 331.62 30.5 333 30.5C334.38 30.5 335.5 31.62 335.5 33C335.5 34.38 334.38 35.5 333 35.5C331.62 35.5 330.5 34.38 330.5 33Z" fill="#49454F"/>
<path fill-rule="evenodd" clip-rule="evenodd" d="M384 28C385.1 28 386 27.1 386 26C386 24.9 385.1 24 384 24C382.9 24 382 24.9 382 26C382 27.1 382.9 28 384 28ZM384 30C382.9 30 382 30.9 382 32C382 33.1 382.9 34 384 34C385.1 34 386 33.1 386 32C386 30.9 385.1 30 384 30ZM382 38C382 36.9 382.9 36 384 36C385.1 36 386 36.9 386 38C386 39.1 385.1 40 384 40C382.9 40 382 39.1 382 38Z" fill="#49454F"/>
</g>
<defs>
<clipPath id="clip0_9_14474">
<rect width="120" height="24" fill="white" transform="translate(276 20)"/>
</clipPath>
</defs>
</svg>
