<svg width="412" height="64" viewBox="0 0 412 64" fill="none" xmlns="http://www.w3.org/2000/svg">
<rect width="412" height="64" fill="#FFFBFE"/>
<rect width="412" height="64" fill="#6750A4" fill-opacity="0.08"/>
<path fill-rule="evenodd" clip-rule="evenodd" d="M19 28V26H37V28H19ZM19 33H37V31H19V33ZM19 38H37V36H19V38Z" fill="#1C1B1F"/>
<path d="M165.017 24.0566H159.989V38H157.938V24.0566H152.921V22.3594H165.017V24.0566ZM169.185 38H167.197V26.377H169.185V38ZM167.036 23.2939C167.036 22.9717 167.133 22.6995 167.326 22.4775C167.527 22.2555 167.82 22.1445 168.207 22.1445C168.594 22.1445 168.887 22.2555 169.088 22.4775C169.288 22.6995 169.389 22.9717 169.389 23.2939C169.389 23.6162 169.288 23.8848 169.088 24.0996C168.887 24.3145 168.594 24.4219 168.207 24.4219C167.82 24.4219 167.527 24.3145 167.326 24.0996C167.133 23.8848 167.036 23.6162 167.036 23.2939ZM175.071 23.5625V26.377H177.241V27.9131H175.071V35.1211C175.071 35.5866 175.168 35.9375 175.361 36.1738C175.555 36.403 175.884 36.5176 176.35 36.5176C176.579 36.5176 176.894 36.4746 177.295 36.3887V38C176.772 38.1432 176.264 38.2148 175.77 38.2148C174.882 38.2148 174.212 37.9463 173.761 37.4092C173.31 36.8721 173.084 36.1094 173.084 35.1211V27.9131H170.968V26.377H173.084V23.5625H175.071ZM181.731 38H179.744V21.5H181.731V38ZM189.745 38.2148C188.17 38.2148 186.888 37.6992 185.899 36.668C184.911 35.6296 184.417 34.2438 184.417 32.5107V32.1455C184.417 30.9925 184.635 29.9648 185.072 29.0625C185.516 28.153 186.132 27.444 186.92 26.9355C187.715 26.4199 188.574 26.1621 189.498 26.1621C191.009 26.1621 192.184 26.6598 193.021 27.6553C193.859 28.6507 194.278 30.0758 194.278 31.9307V32.7578H186.404C186.433 33.9036 186.766 34.8311 187.403 35.54C188.048 36.2419 188.864 36.5928 189.853 36.5928C190.554 36.5928 191.149 36.4495 191.636 36.1631C192.123 35.8766 192.549 35.4971 192.914 35.0244L194.128 35.9697C193.154 37.4665 191.693 38.2148 189.745 38.2148ZM189.498 27.7949C188.696 27.7949 188.023 28.0885 187.479 28.6758C186.934 29.2559 186.598 30.0723 186.469 31.125H192.291V30.9746C192.234 29.9648 191.962 29.1842 191.475 28.6328C190.988 28.0742 190.329 27.7949 189.498 27.7949ZM204.43 36.3135H211.842V38H202.356V22.3594H204.43V36.3135ZM221.059 38C220.944 37.7708 220.851 37.3626 220.779 36.7754C219.855 37.735 218.753 38.2148 217.471 38.2148C216.325 38.2148 215.383 37.8926 214.646 37.248C213.915 36.5964 213.55 35.7728 213.55 34.7773C213.55 33.5671 214.008 32.6289 214.925 31.9629C215.849 31.2897 217.145 30.9531 218.813 30.9531H220.747V30.04C220.747 29.3454 220.539 28.7939 220.124 28.3857C219.709 27.9704 219.096 27.7627 218.287 27.7627C217.578 27.7627 216.984 27.9417 216.504 28.2998C216.024 28.6579 215.784 29.0911 215.784 29.5996H213.786C213.786 29.0195 213.99 28.4609 214.398 27.9238C214.814 27.3796 215.372 26.9499 216.074 26.6348C216.783 26.3197 217.56 26.1621 218.405 26.1621C219.744 26.1621 220.794 26.4987 221.553 27.1719C222.312 27.8379 222.706 28.7581 222.734 29.9326V35.2822C222.734 36.3493 222.87 37.1979 223.143 37.8281V38H221.059ZM217.761 36.4854C218.384 36.4854 218.975 36.3242 219.533 36.002C220.092 35.6797 220.496 35.2607 220.747 34.7451V32.3604H219.189C216.755 32.3604 215.537 33.0729 215.537 34.498C215.537 35.1211 215.745 35.6081 216.16 35.959C216.576 36.3099 217.109 36.4854 217.761 36.4854ZM231.468 28.1602C231.167 28.11 230.841 28.085 230.49 28.085C229.187 28.085 228.302 28.64 227.837 29.75V38H225.85V26.377H227.783L227.815 27.7197C228.467 26.6813 229.391 26.1621 230.587 26.1621C230.974 26.1621 231.267 26.2122 231.468 26.3125V28.1602ZM232.617 32.0918C232.617 30.2799 233.036 28.8405 233.874 27.7734C234.712 26.6992 235.822 26.1621 237.204 26.1621C238.622 26.1621 239.729 26.6634 240.523 27.666L240.62 26.377H242.436V37.7207C242.436 39.2246 241.988 40.4098 241.093 41.2764C240.205 42.1429 239.009 42.5762 237.505 42.5762C236.667 42.5762 235.847 42.3971 235.045 42.0391C234.243 41.681 233.631 41.1904 233.208 40.5674L234.239 39.375C235.091 40.4277 236.133 40.9541 237.365 40.9541C238.332 40.9541 239.084 40.682 239.621 40.1377C240.165 39.5934 240.438 38.8271 240.438 37.8389V36.8398C239.643 37.7565 238.558 38.2148 237.183 38.2148C235.822 38.2148 234.719 37.667 233.874 36.5713C233.036 35.4756 232.617 33.9824 232.617 32.0918ZM234.615 32.3174C234.615 33.6279 234.884 34.6592 235.421 35.4111C235.958 36.1559 236.71 36.5283 237.677 36.5283C238.93 36.5283 239.85 35.959 240.438 34.8203V29.5137C239.829 28.4036 238.916 27.8486 237.698 27.8486C236.731 27.8486 235.976 28.2246 235.432 28.9766C234.887 29.7285 234.615 30.8421 234.615 32.3174ZM250.267 38.2148C248.691 38.2148 247.409 37.6992 246.421 36.668C245.433 35.6296 244.938 34.2438 244.938 32.5107V32.1455C244.938 30.9925 245.157 29.9648 245.594 29.0625C246.038 28.153 246.654 27.444 247.441 26.9355C248.236 26.4199 249.096 26.1621 250.02 26.1621C251.531 26.1621 252.705 26.6598 253.543 27.6553C254.381 28.6507 254.8 30.0758 254.8 31.9307V32.7578H246.926C246.954 33.9036 247.287 34.8311 247.925 35.54C248.569 36.2419 249.386 36.5928 250.374 36.5928C251.076 36.5928 251.67 36.4495 252.157 36.1631C252.644 35.8766 253.07 35.4971 253.436 35.0244L254.649 35.9697C253.675 37.4665 252.215 38.2148 250.267 38.2148ZM250.02 27.7949C249.217 27.7949 248.544 28.0885 248 28.6758C247.456 29.2559 247.119 30.0723 246.99 31.125H252.812V30.9746C252.755 29.9648 252.483 29.1842 251.996 28.6328C251.509 28.0742 250.85 27.7949 250.02 27.7949Z" fill="#1C1B1F"/>
<path fill-rule="evenodd" clip-rule="evenodd" d="M382 17C373.72 17 367 23.72 367 32C367 40.28 373.72 47 382 47C390.28 47 397 40.28 397 32C397 23.72 390.28 17 382 17ZM391.54 39.245C389.395 36.635 384.19 35.75 382 35.75C379.81 35.75 374.605 36.635 372.46 39.245C370.93 37.235 370 34.73 370 32C370 25.385 375.385 20 382 20C388.615 20 394 25.385 394 32C394 34.73 393.07 37.235 391.54 39.245ZM376.75 28.25C376.75 25.34 379.09 23 382 23C384.91 23 387.25 25.34 387.25 28.25C387.25 31.16 384.91 33.5 382 33.5C379.09 33.5 376.75 31.16 376.75 28.25Z" fill="#49454F"/>
</svg>
