<svg width="478" height="145" viewBox="0 0 478 145" fill="none" xmlns="http://www.w3.org/2000/svg">
<rect width="478" height="145" fill="#F7F2FA"/>
<path d="M428 73C428 65.0471 421.953 59 414 59V55C423.941 55 432 63.0589 432 73H428Z" fill="#6750A4"/>
<path d="M414 87C421.953 87 428 80.9529 428 73L432 73C432 82.9411 423.941 91 414 91V87Z" fill="#6750A4"/>
<path d="M400 73C400 80.9529 406.047 87 414 87V91C404.059 91 396 82.9411 396 73H400Z" fill="#6750A4"/>
<rect width="280" height="4" transform="translate(34 76)" fill="#E7E0EC"/>
<rect x="34" y="76" width="70" height="4" fill="#6750A4"/>
</svg>
