<svg width="595" height="128" viewBox="0 0 595 128" fill="none" xmlns="http://www.w3.org/2000/svg">
<path d="M0 0H595V128H0V0Z" fill="#F7F2FA"/>
<path fill-rule="evenodd" clip-rule="evenodd" d="M312.25 54.25H301.75C300.925 54.25 300.25 54.925 300.25 55.75V66.25C300.25 67.075 300.925 67.75 301.75 67.75H312.25C313.075 67.75 313.75 67.075 313.75 66.25V55.75C313.75 54.925 313.075 54.25 312.25 54.25ZM312.25 66.25H301.75V55.75H312.25V66.25ZM306.25 63.79L308.5 61L311.5 64.75H302.5L304.75 61.75L306.25 63.79Z" fill="#49454F"/>
<path d="M327.268 66H325.545V56.0469H327.268V66ZM330.774 58.6035L330.822 59.458C331.369 58.7972 332.087 58.4668 332.976 58.4668C334.516 58.4668 335.3 59.3486 335.327 61.1123V66H333.666V61.208C333.666 60.7386 333.563 60.3923 333.358 60.1689C333.158 59.9411 332.827 59.8271 332.367 59.8271C331.697 59.8271 331.198 60.1302 330.87 60.7363V66H329.209V58.6035H330.774ZM343.503 62.377C343.503 63.5208 343.243 64.4346 342.724 65.1182C342.204 65.7972 341.507 66.1367 340.632 66.1367C339.821 66.1367 339.171 65.8701 338.684 65.3369V68.8438H337.022V58.6035H338.554L338.622 59.3555C339.11 58.763 339.773 58.4668 340.611 58.4668C341.514 58.4668 342.22 58.804 342.73 59.4785C343.245 60.1484 343.503 61.0804 343.503 62.2744V62.377ZM341.849 62.2334C341.849 61.4951 341.701 60.9095 341.404 60.4766C341.113 60.0436 340.693 59.8271 340.146 59.8271C339.467 59.8271 338.98 60.1074 338.684 60.668V63.9492C338.984 64.5234 339.477 64.8105 340.16 64.8105C340.689 64.8105 341.101 64.5986 341.397 64.1748C341.698 63.7464 341.849 63.0993 341.849 62.2334ZM349.396 65.2754C348.908 65.8496 348.215 66.1367 347.317 66.1367C346.515 66.1367 345.907 65.902 345.492 65.4326C345.082 64.9632 344.877 64.2842 344.877 63.3955V58.6035H346.538V63.375C346.538 64.3138 346.928 64.7832 347.707 64.7832C348.514 64.7832 349.058 64.4938 349.341 63.915V58.6035H351.002V66H349.437L349.396 65.2754ZM354.775 56.8057V58.6035H356.081V59.834H354.775V63.9629C354.775 64.2454 354.83 64.4505 354.939 64.5781C355.053 64.7012 355.254 64.7627 355.541 64.7627C355.732 64.7627 355.926 64.7399 356.122 64.6943V65.9795C355.744 66.0843 355.379 66.1367 355.028 66.1367C353.752 66.1367 353.114 65.4326 353.114 64.0244V59.834H351.897V58.6035H353.114V56.8057H354.775ZM363.881 64.8105C364.296 64.8105 364.64 64.6898 364.913 64.4482C365.187 64.2067 365.332 63.9082 365.351 63.5527H366.916C366.898 64.013 366.754 64.4437 366.485 64.8447C366.216 65.2412 365.852 65.5557 365.392 65.7881C364.931 66.0205 364.435 66.1367 363.901 66.1367C362.867 66.1367 362.047 65.8018 361.44 65.1318C360.834 64.4619 360.531 63.5368 360.531 62.3564V62.1855C360.531 61.0599 360.832 60.1598 361.434 59.4854C362.035 58.8063 362.855 58.4668 363.895 58.4668C364.774 58.4668 365.49 58.7243 366.041 59.2393C366.597 59.7497 366.889 60.4219 366.916 61.2559H365.351C365.332 60.832 365.187 60.4834 364.913 60.21C364.644 59.9365 364.3 59.7998 363.881 59.7998C363.343 59.7998 362.928 59.9958 362.637 60.3877C362.345 60.7751 362.197 61.3652 362.192 62.1582V62.4248C362.192 63.2269 362.336 63.8262 362.623 64.2227C362.915 64.6146 363.334 64.8105 363.881 64.8105ZM369.808 59.4102C370.35 58.7812 371.036 58.4668 371.865 58.4668C373.442 58.4668 374.242 59.3669 374.265 61.167V66H372.604V61.2285C372.604 60.7181 372.492 60.3581 372.269 60.1484C372.05 59.9342 371.726 59.8271 371.298 59.8271C370.632 59.8271 370.136 60.1234 369.808 60.7158V66H368.146V55.5H369.808V59.4102ZM377.717 66H376.056V58.6035H377.717V66ZM375.953 56.6826C375.953 56.4274 376.033 56.2155 376.192 56.0469C376.356 55.8783 376.589 55.7939 376.89 55.7939C377.19 55.7939 377.423 55.8783 377.587 56.0469C377.751 56.2155 377.833 56.4274 377.833 56.6826C377.833 56.9333 377.751 57.1429 377.587 57.3115C377.423 57.4756 377.19 57.5576 376.89 57.5576C376.589 57.5576 376.356 57.4756 376.192 57.3115C376.033 57.1429 375.953 56.9333 375.953 56.6826ZM386.009 62.377C386.009 63.5208 385.749 64.4346 385.229 65.1182C384.71 65.7972 384.013 66.1367 383.138 66.1367C382.326 66.1367 381.677 65.8701 381.189 65.3369V68.8438H379.528V58.6035H381.06L381.128 59.3555C381.616 58.763 382.279 58.4668 383.117 58.4668C384.02 58.4668 384.726 58.804 385.236 59.4785C385.751 60.1484 386.009 61.0804 386.009 62.2744V62.377ZM384.354 62.2334C384.354 61.4951 384.206 60.9095 383.91 60.4766C383.618 60.0436 383.199 59.8271 382.652 59.8271C381.973 59.8271 381.486 60.1074 381.189 60.668V63.9492C381.49 64.5234 381.982 64.8105 382.666 64.8105C383.195 64.8105 383.607 64.5986 383.903 64.1748C384.204 63.7464 384.354 63.0993 384.354 62.2334Z" fill="#49454F"/>
<path d="M409.25 56.8075L408.193 55.75L404 59.9425L399.807 55.75L398.75 56.8075L402.943 61L398.75 65.1925L399.807 66.25L404 62.0575L408.193 66.25L409.25 65.1925L405.057 61L409.25 56.8075Z" fill="#49454F"/>
<rect x="290.5" y="45.5" width="130" height="31" rx="7.5" stroke="#79747E"/>
<path d="M462.319 63.4365C462.319 63.2314 462.287 63.0492 462.224 62.8896C462.164 62.7301 462.057 62.5843 461.902 62.4521C461.747 62.32 461.529 62.1924 461.246 62.0693C460.968 61.9417 460.613 61.8118 460.18 61.6797C459.706 61.5339 459.268 61.3721 458.867 61.1943C458.471 61.012 458.124 60.8024 457.828 60.5654C457.532 60.3239 457.302 60.0482 457.138 59.7383C456.974 59.4238 456.892 59.0615 456.892 58.6514C456.892 58.2458 456.976 57.8766 457.145 57.5439C457.318 57.2113 457.562 56.9242 457.876 56.6826C458.195 56.4365 458.571 56.2474 459.004 56.1152C459.437 55.9785 459.915 55.9102 460.439 55.9102C461.178 55.9102 461.813 56.0469 462.347 56.3203C462.884 56.5938 463.297 56.9606 463.584 57.4209C463.876 57.8812 464.021 58.3893 464.021 58.9453H462.319C462.319 58.6172 462.249 58.3278 462.107 58.0771C461.971 57.8219 461.761 57.6214 461.479 57.4756C461.201 57.3298 460.847 57.2568 460.419 57.2568C460.013 57.2568 459.676 57.3184 459.407 57.4414C459.138 57.5645 458.938 57.7308 458.806 57.9404C458.674 58.1501 458.607 58.387 458.607 58.6514C458.607 58.8382 458.651 59.0091 458.737 59.1641C458.824 59.3145 458.956 59.4557 459.134 59.5879C459.312 59.7155 459.535 59.8363 459.804 59.9502C460.073 60.0641 460.389 60.1735 460.754 60.2783C461.305 60.4424 461.786 60.6247 462.196 60.8252C462.606 61.0212 462.948 61.2445 463.222 61.4951C463.495 61.7458 463.7 62.0306 463.837 62.3496C463.974 62.6641 464.042 63.0218 464.042 63.4229C464.042 63.8421 463.958 64.2204 463.789 64.5576C463.62 64.8903 463.379 65.1751 463.064 65.4121C462.755 65.6445 462.381 65.8245 461.943 65.9521C461.51 66.0752 461.027 66.1367 460.494 66.1367C460.016 66.1367 459.544 66.0729 459.079 65.9453C458.619 65.8177 458.2 65.624 457.821 65.3643C457.443 65.0999 457.142 64.7718 456.919 64.3799C456.696 63.9834 456.584 63.5208 456.584 62.9922H458.3C458.3 63.3158 458.354 63.5915 458.464 63.8193C458.578 64.0472 458.735 64.234 458.936 64.3799C459.136 64.5212 459.368 64.626 459.633 64.6943C459.902 64.7627 460.189 64.7969 460.494 64.7969C460.895 64.7969 461.23 64.7399 461.499 64.626C461.772 64.512 461.978 64.3525 462.114 64.1475C462.251 63.9424 462.319 63.7054 462.319 63.4365ZM469.846 64.2568V58.6035H471.5V66H469.941L469.846 64.2568ZM470.078 62.7188L470.632 62.7051C470.632 63.2018 470.577 63.6598 470.468 64.0791C470.358 64.4938 470.19 64.8561 469.962 65.166C469.734 65.4714 469.442 65.7106 469.087 65.8838C468.731 66.0524 468.305 66.1367 467.809 66.1367C467.449 66.1367 467.118 66.0843 466.817 65.9795C466.517 65.8747 466.257 65.7129 466.038 65.4941C465.824 65.2754 465.658 64.9906 465.539 64.6396C465.421 64.2887 465.361 63.8695 465.361 63.3818V58.6035H467.009V63.3955C467.009 63.6644 467.041 63.89 467.104 64.0723C467.168 64.25 467.255 64.3936 467.364 64.5029C467.474 64.6123 467.601 64.6898 467.747 64.7354C467.893 64.7809 468.048 64.8037 468.212 64.8037C468.681 64.8037 469.05 64.7126 469.319 64.5303C469.593 64.3434 469.786 64.0928 469.9 63.7783C470.019 63.4639 470.078 63.1107 470.078 62.7188ZM477.926 58.6035H479.423V65.7949C479.423 66.4603 479.282 67.0254 478.999 67.4902C478.716 67.9551 478.322 68.3083 477.816 68.5498C477.311 68.7959 476.725 68.9189 476.06 68.9189C475.777 68.9189 475.463 68.8779 475.116 68.7959C474.774 68.7139 474.442 68.5817 474.118 68.3994C473.799 68.2217 473.533 67.987 473.318 67.6953L474.091 66.7246C474.355 67.0391 474.647 67.2692 474.966 67.415C475.285 67.5609 475.62 67.6338 475.971 67.6338C476.349 67.6338 476.67 67.5632 476.935 67.4219C477.203 67.2852 477.411 67.0824 477.557 66.8135C477.702 66.5446 477.775 66.2165 477.775 65.8291V60.2783L477.926 58.6035ZM472.901 62.3838V62.2402C472.901 61.6797 472.97 61.1693 473.106 60.709C473.243 60.2441 473.439 59.8454 473.694 59.5127C473.95 59.1755 474.259 58.918 474.624 58.7402C474.989 58.5579 475.401 58.4668 475.861 58.4668C476.34 58.4668 476.748 58.5534 477.085 58.7266C477.427 58.8997 477.712 59.1481 477.939 59.4717C478.167 59.7907 478.345 60.1735 478.473 60.6201C478.605 61.0622 478.703 61.5544 478.767 62.0967V62.5547C478.707 63.0833 478.607 63.5664 478.466 64.0039C478.325 64.4414 478.138 64.8197 477.905 65.1387C477.673 65.4577 477.386 65.7038 477.044 65.877C476.707 66.0501 476.308 66.1367 475.848 66.1367C475.396 66.1367 474.989 66.0433 474.624 65.8564C474.264 65.6696 473.954 65.4076 473.694 65.0703C473.439 64.7331 473.243 64.3366 473.106 63.8809C472.97 63.4206 472.901 62.9215 472.901 62.3838ZM474.549 62.2402V62.3838C474.549 62.721 474.581 63.0355 474.645 63.3271C474.713 63.6188 474.815 63.8763 474.952 64.0996C475.093 64.3184 475.271 64.4915 475.485 64.6191C475.704 64.7422 475.962 64.8037 476.258 64.8037C476.645 64.8037 476.962 64.7217 477.208 64.5576C477.459 64.3936 477.65 64.1725 477.782 63.8945C477.919 63.612 478.015 63.2975 478.069 62.9512V61.7139C478.042 61.445 477.985 61.1943 477.898 60.9619C477.816 60.7295 477.705 60.5267 477.563 60.3535C477.422 60.1758 477.244 60.0391 477.03 59.9434C476.816 59.8431 476.563 59.793 476.271 59.793C475.975 59.793 475.718 59.8568 475.499 59.9844C475.28 60.112 475.1 60.2874 474.959 60.5107C474.822 60.734 474.72 60.9938 474.651 61.29C474.583 61.5863 474.549 61.903 474.549 62.2402ZM485.869 58.6035H487.366V65.7949C487.366 66.4603 487.225 67.0254 486.942 67.4902C486.66 67.9551 486.266 68.3083 485.76 68.5498C485.254 68.7959 484.668 68.9189 484.003 68.9189C483.72 68.9189 483.406 68.8779 483.06 68.7959C482.718 68.7139 482.385 68.5817 482.062 68.3994C481.743 68.2217 481.476 67.987 481.262 67.6953L482.034 66.7246C482.299 67.0391 482.59 67.2692 482.909 67.415C483.228 67.5609 483.563 67.6338 483.914 67.6338C484.292 67.6338 484.614 67.5632 484.878 67.4219C485.147 67.2852 485.354 67.0824 485.5 66.8135C485.646 66.5446 485.719 66.2165 485.719 65.8291V60.2783L485.869 58.6035ZM480.845 62.3838V62.2402C480.845 61.6797 480.913 61.1693 481.05 60.709C481.187 60.2441 481.382 59.8454 481.638 59.5127C481.893 59.1755 482.203 58.918 482.567 58.7402C482.932 58.5579 483.344 58.4668 483.805 58.4668C484.283 58.4668 484.691 58.5534 485.028 58.7266C485.37 58.8997 485.655 59.1481 485.883 59.4717C486.111 59.7907 486.288 60.1735 486.416 60.6201C486.548 61.0622 486.646 61.5544 486.71 62.0967V62.5547C486.651 63.0833 486.55 63.5664 486.409 64.0039C486.268 64.4414 486.081 64.8197 485.849 65.1387C485.616 65.4577 485.329 65.7038 484.987 65.877C484.65 66.0501 484.251 66.1367 483.791 66.1367C483.34 66.1367 482.932 66.0433 482.567 65.8564C482.207 65.6696 481.897 65.4076 481.638 65.0703C481.382 64.7331 481.187 64.3366 481.05 63.8809C480.913 63.4206 480.845 62.9215 480.845 62.3838ZM482.492 62.2402V62.3838C482.492 62.721 482.524 63.0355 482.588 63.3271C482.656 63.6188 482.759 63.8763 482.896 64.0996C483.037 64.3184 483.215 64.4915 483.429 64.6191C483.647 64.7422 483.905 64.8037 484.201 64.8037C484.589 64.8037 484.905 64.7217 485.151 64.5576C485.402 64.3936 485.593 64.1725 485.726 63.8945C485.862 63.612 485.958 63.2975 486.013 62.9512V61.7139C485.985 61.445 485.928 61.1943 485.842 60.9619C485.76 60.7295 485.648 60.5267 485.507 60.3535C485.366 60.1758 485.188 60.0391 484.974 59.9434C484.759 59.8431 484.507 59.793 484.215 59.793C483.919 59.793 483.661 59.8568 483.442 59.9844C483.224 60.112 483.044 60.2874 482.902 60.5107C482.766 60.734 482.663 60.9938 482.595 61.29C482.526 61.5863 482.492 61.903 482.492 62.2402ZM492.336 66.1367C491.789 66.1367 491.295 66.0479 490.853 65.8701C490.415 65.6878 490.041 65.4349 489.731 65.1113C489.426 64.7878 489.191 64.4072 489.027 63.9697C488.863 63.5322 488.781 63.0605 488.781 62.5547V62.2812C488.781 61.7025 488.866 61.1784 489.034 60.709C489.203 60.2396 489.438 59.8385 489.738 59.5059C490.039 59.1686 490.395 58.9111 490.805 58.7334C491.215 58.5557 491.659 58.4668 492.138 58.4668C492.666 58.4668 493.129 58.5557 493.525 58.7334C493.922 58.9111 494.25 59.1618 494.51 59.4854C494.774 59.8044 494.97 60.1849 495.098 60.627C495.23 61.069 495.296 61.5566 495.296 62.0898V62.7939H489.581V61.6113H493.669V61.4814C493.66 61.1852 493.601 60.9072 493.491 60.6475C493.386 60.3877 493.225 60.1781 493.006 60.0186C492.787 59.859 492.495 59.7793 492.131 59.7793C491.857 59.7793 491.614 59.8385 491.399 59.957C491.19 60.071 491.014 60.2373 490.873 60.4561C490.732 60.6748 490.622 60.9391 490.545 61.249C490.472 61.5544 490.436 61.8984 490.436 62.2812V62.5547C490.436 62.8783 490.479 63.179 490.565 63.457C490.657 63.7305 490.789 63.9697 490.962 64.1748C491.135 64.3799 491.345 64.5417 491.591 64.6602C491.837 64.7741 492.117 64.8311 492.432 64.8311C492.828 64.8311 493.181 64.7513 493.491 64.5918C493.801 64.4323 494.07 64.2067 494.298 63.915L495.166 64.7559C495.007 64.9883 494.799 65.2116 494.544 65.4258C494.289 65.6354 493.977 65.8063 493.607 65.9385C493.243 66.0706 492.819 66.1367 492.336 66.1367ZM500.73 63.9971C500.73 63.833 500.689 63.6849 500.607 63.5527C500.525 63.416 500.368 63.293 500.136 63.1836C499.908 63.0742 499.571 62.974 499.124 62.8828C498.732 62.7962 498.372 62.6937 498.044 62.5752C497.72 62.4521 497.442 62.304 497.21 62.1309C496.978 61.9577 496.798 61.7526 496.67 61.5156C496.542 61.2786 496.479 61.0052 496.479 60.6953C496.479 60.3945 496.545 60.1097 496.677 59.8408C496.809 59.5719 496.998 59.335 497.244 59.1299C497.49 58.9248 497.789 58.763 498.14 58.6445C498.495 58.526 498.892 58.4668 499.329 58.4668C499.949 58.4668 500.48 58.5716 500.922 58.7812C501.368 58.9863 501.71 59.2666 501.947 59.6221C502.184 59.973 502.303 60.3695 502.303 60.8115H500.655C500.655 60.6156 500.605 60.4333 500.505 60.2646C500.409 60.0915 500.263 59.9525 500.067 59.8477C499.871 59.7383 499.625 59.6836 499.329 59.6836C499.047 59.6836 498.812 59.7292 498.625 59.8203C498.443 59.9069 498.306 60.0208 498.215 60.1621C498.128 60.3034 498.085 60.4583 498.085 60.627C498.085 60.75 498.108 60.8617 498.153 60.9619C498.203 61.0576 498.285 61.1465 498.399 61.2285C498.513 61.306 498.668 61.3789 498.864 61.4473C499.065 61.5156 499.315 61.5817 499.616 61.6455C500.181 61.764 500.667 61.9167 501.072 62.1035C501.482 62.2858 501.797 62.5228 502.016 62.8145C502.234 63.1016 502.344 63.4661 502.344 63.9082C502.344 64.2363 502.273 64.5371 502.132 64.8105C501.995 65.0794 501.795 65.3141 501.53 65.5146C501.266 65.7106 500.949 65.8633 500.58 65.9727C500.215 66.082 499.805 66.1367 499.35 66.1367C498.68 66.1367 498.112 66.0182 497.647 65.7812C497.183 65.5397 496.829 65.2321 496.588 64.8584C496.351 64.4801 496.232 64.0882 496.232 63.6826H497.825C497.843 63.988 497.928 64.2318 498.078 64.4141C498.233 64.5918 498.424 64.7217 498.652 64.8037C498.885 64.8812 499.124 64.9199 499.37 64.9199C499.666 64.9199 499.915 64.8812 500.115 64.8037C500.316 64.7217 500.468 64.6123 500.573 64.4756C500.678 64.3343 500.73 64.1748 500.73 63.9971ZM507.177 58.6035V59.8066H503.007V58.6035H507.177ZM504.21 56.792H505.857V63.9561C505.857 64.1839 505.889 64.3594 505.953 64.4824C506.021 64.6009 506.115 64.6807 506.233 64.7217C506.352 64.7627 506.491 64.7832 506.65 64.7832C506.764 64.7832 506.874 64.7764 506.979 64.7627C507.083 64.749 507.168 64.7354 507.231 64.7217L507.238 65.9795C507.102 66.0205 506.942 66.057 506.76 66.0889C506.582 66.1208 506.377 66.1367 506.145 66.1367C505.766 66.1367 505.431 66.0706 505.14 65.9385C504.848 65.8018 504.62 65.5807 504.456 65.2754C504.292 64.9701 504.21 64.5645 504.21 64.0586V56.792ZM510.212 58.6035V66H508.558V58.6035H510.212ZM508.448 56.6621C508.448 56.4115 508.53 56.2041 508.694 56.04C508.863 55.8714 509.095 55.7871 509.392 55.7871C509.683 55.7871 509.913 55.8714 510.082 56.04C510.251 56.2041 510.335 56.4115 510.335 56.6621C510.335 56.9082 510.251 57.1133 510.082 57.2773C509.913 57.4414 509.683 57.5234 509.392 57.5234C509.095 57.5234 508.863 57.4414 508.694 57.2773C508.53 57.1133 508.448 56.9082 508.448 56.6621ZM511.702 62.3838V62.2266C511.702 61.6934 511.78 61.1989 511.935 60.7432C512.09 60.2829 512.313 59.8841 512.604 59.5469C512.901 59.2051 513.261 58.9408 513.685 58.7539C514.113 58.5625 514.596 58.4668 515.134 58.4668C515.676 58.4668 516.159 58.5625 516.583 58.7539C517.011 58.9408 517.374 59.2051 517.67 59.5469C517.966 59.8841 518.192 60.2829 518.347 60.7432C518.502 61.1989 518.579 61.6934 518.579 62.2266V62.3838C518.579 62.917 518.502 63.4115 518.347 63.8672C518.192 64.3229 517.966 64.7217 517.67 65.0635C517.374 65.4007 517.014 65.665 516.59 65.8564C516.166 66.0433 515.685 66.1367 515.147 66.1367C514.605 66.1367 514.12 66.0433 513.691 65.8564C513.268 65.665 512.908 65.4007 512.611 65.0635C512.315 64.7217 512.09 64.3229 511.935 63.8672C511.78 63.4115 511.702 62.917 511.702 62.3838ZM513.35 62.2266V62.3838C513.35 62.7165 513.384 63.0309 513.452 63.3271C513.521 63.6234 513.628 63.8831 513.773 64.1064C513.919 64.3298 514.106 64.5052 514.334 64.6328C514.562 64.7604 514.833 64.8242 515.147 64.8242C515.453 64.8242 515.717 64.7604 515.94 64.6328C516.168 64.5052 516.355 64.3298 516.501 64.1064C516.647 63.8831 516.754 63.6234 516.822 63.3271C516.895 63.0309 516.932 62.7165 516.932 62.3838V62.2266C516.932 61.8984 516.895 61.5885 516.822 61.2969C516.754 61.0007 516.645 60.7386 516.494 60.5107C516.348 60.2829 516.161 60.1051 515.934 59.9775C515.71 59.8454 515.444 59.7793 515.134 59.7793C514.824 59.7793 514.555 59.8454 514.327 59.9775C514.104 60.1051 513.919 60.2829 513.773 60.5107C513.628 60.7386 513.521 61.0007 513.452 61.2969C513.384 61.5885 513.35 61.8984 513.35 62.2266ZM521.594 60.1826V66H519.946V58.6035H521.498L521.594 60.1826ZM521.3 62.0283L520.767 62.0215C520.771 61.4974 520.844 61.0166 520.985 60.5791C521.131 60.1416 521.332 59.7656 521.587 59.4512C521.847 59.1367 522.157 58.8952 522.517 58.7266C522.877 58.5534 523.278 58.4668 523.72 58.4668C524.075 58.4668 524.396 58.5169 524.684 58.6172C524.975 58.7129 525.224 58.8701 525.429 59.0889C525.638 59.3076 525.798 59.5924 525.907 59.9434C526.017 60.2897 526.071 60.7158 526.071 61.2217V66H524.417V61.2148C524.417 60.8594 524.365 60.5791 524.26 60.374C524.16 60.1644 524.011 60.0163 523.815 59.9297C523.624 59.8385 523.385 59.793 523.098 59.793C522.815 59.793 522.562 59.8522 522.339 59.9707C522.116 60.0892 521.926 60.251 521.771 60.4561C521.621 60.6611 521.505 60.8981 521.423 61.167C521.341 61.4359 521.3 61.723 521.3 62.0283ZM534.261 64.8242C534.53 64.8242 534.771 64.7718 534.985 64.667C535.204 64.5576 535.38 64.4072 535.512 64.2158C535.648 64.0244 535.724 63.8034 535.737 63.5527H537.289C537.28 64.0312 537.139 64.4665 536.865 64.8584C536.592 65.2503 536.229 65.5625 535.778 65.7949C535.327 66.0228 534.828 66.1367 534.281 66.1367C533.716 66.1367 533.224 66.041 532.805 65.8496C532.385 65.6536 532.037 65.3848 531.759 65.043C531.481 64.7012 531.271 64.307 531.13 63.8604C530.993 63.4137 530.925 62.9352 530.925 62.4248V62.1855C530.925 61.6751 530.993 61.1966 531.13 60.75C531.271 60.2988 531.481 59.9023 531.759 59.5605C532.037 59.2188 532.385 58.9521 532.805 58.7607C533.224 58.5648 533.714 58.4668 534.274 58.4668C534.867 58.4668 535.386 58.5853 535.833 58.8223C536.28 59.0547 536.631 59.3805 536.886 59.7998C537.146 60.2145 537.28 60.6976 537.289 61.249H535.737C535.724 60.9756 535.655 60.7295 535.532 60.5107C535.414 60.2874 535.245 60.1097 535.026 59.9775C534.812 59.8454 534.555 59.7793 534.254 59.7793C533.921 59.7793 533.646 59.8477 533.427 59.9844C533.208 60.1165 533.037 60.2988 532.914 60.5312C532.791 60.7591 532.702 61.0166 532.647 61.3037C532.597 61.5863 532.572 61.8802 532.572 62.1855V62.4248C532.572 62.7301 532.597 63.0264 532.647 63.3135C532.698 63.6006 532.784 63.8581 532.907 64.0859C533.035 64.3092 533.208 64.4893 533.427 64.626C533.646 64.7581 533.924 64.8242 534.261 64.8242ZM540.181 55.5V66H538.54V55.5H540.181ZM539.894 62.0283L539.36 62.0215C539.365 61.5111 539.436 61.0394 539.572 60.6064C539.714 60.1735 539.91 59.7975 540.16 59.4785C540.415 59.1549 540.721 58.9066 541.076 58.7334C541.432 58.5557 541.826 58.4668 542.259 58.4668C542.623 58.4668 542.951 58.5169 543.243 58.6172C543.539 58.7174 543.795 58.8792 544.009 59.1025C544.223 59.3213 544.385 59.6084 544.494 59.9639C544.608 60.3148 544.665 60.7432 544.665 61.249V66H543.011V61.2354C543.011 60.8799 542.958 60.5973 542.854 60.3877C542.753 60.1781 542.605 60.0277 542.409 59.9365C542.213 59.8408 541.974 59.793 541.691 59.793C541.395 59.793 541.133 59.8522 540.905 59.9707C540.682 60.0892 540.495 60.251 540.345 60.4561C540.194 60.6611 540.08 60.8981 540.003 61.167C539.93 61.4359 539.894 61.723 539.894 62.0283ZM548.097 58.6035V66H546.442V58.6035H548.097ZM546.333 56.6621C546.333 56.4115 546.415 56.2041 546.579 56.04C546.748 55.8714 546.98 55.7871 547.276 55.7871C547.568 55.7871 547.798 55.8714 547.967 56.04C548.135 56.2041 548.22 56.4115 548.22 56.6621C548.22 56.9082 548.135 57.1133 547.967 57.2773C547.798 57.4414 547.568 57.5234 547.276 57.5234C546.98 57.5234 546.748 57.4414 546.579 57.2773C546.415 57.1133 546.333 56.9082 546.333 56.6621ZM551.556 60.0254V68.8438H549.908V58.6035H551.426L551.556 60.0254ZM556.375 62.2334V62.377C556.375 62.9147 556.311 63.4137 556.184 63.874C556.061 64.3298 555.876 64.7285 555.63 65.0703C555.388 65.4076 555.09 65.6696 554.734 65.8564C554.379 66.0433 553.969 66.1367 553.504 66.1367C553.044 66.1367 552.64 66.0524 552.294 65.8838C551.952 65.7106 551.663 65.4668 551.426 65.1523C551.189 64.8379 550.997 64.4688 550.852 64.0449C550.71 63.6165 550.61 63.1471 550.551 62.6367V62.083C550.61 61.5407 550.71 61.0485 550.852 60.6064C550.997 60.1644 551.189 59.7839 551.426 59.4648C551.663 59.1458 551.952 58.8997 552.294 58.7266C552.636 58.5534 553.035 58.4668 553.49 58.4668C553.955 58.4668 554.368 58.5579 554.728 58.7402C555.088 58.918 555.391 59.1732 555.637 59.5059C555.883 59.834 556.067 60.2305 556.19 60.6953C556.313 61.1556 556.375 61.6683 556.375 62.2334ZM554.728 62.377V62.2334C554.728 61.8916 554.696 61.5749 554.632 61.2832C554.568 60.987 554.468 60.7272 554.331 60.5039C554.194 60.2806 554.019 60.1074 553.805 59.9844C553.595 59.8568 553.342 59.793 553.046 59.793C552.754 59.793 552.504 59.8431 552.294 59.9434C552.084 60.0391 551.909 60.1735 551.768 60.3467C551.626 60.5199 551.517 60.7227 551.439 60.9551C551.362 61.1829 551.307 61.4313 551.275 61.7002V63.0264C551.33 63.3545 551.424 63.6553 551.556 63.9287C551.688 64.2021 551.875 64.4209 552.116 64.585C552.362 64.7445 552.677 64.8242 553.06 64.8242C553.356 64.8242 553.609 64.7604 553.818 64.6328C554.028 64.5052 554.199 64.3298 554.331 64.1064C554.468 63.8786 554.568 63.6165 554.632 63.3203C554.696 63.0241 554.728 62.7096 554.728 62.377Z" fill="#49454F"/>
<rect x="440.5" y="45.5" width="132" height="31" rx="7.5" stroke="#79747E"/>
<rect x="159" y="45" width="112" height="32" rx="8" fill="#E8DEF8"/>
<path d="M173.75 64.1275L170.622 61L169.557 62.0575L173.75 66.25L182.75 57.25L181.692 56.1925L173.75 64.1275Z" fill="#1D192B"/>
<path d="M195.733 56.0469V66H194.018V56.0469H195.733ZM199.794 60.4014V61.7617H195.296V60.4014H199.794ZM200.361 56.0469V57.4141H195.296V56.0469H200.361ZM203.328 58.6035V66H201.674V58.6035H203.328ZM201.564 56.6621C201.564 56.4115 201.646 56.2041 201.811 56.04C201.979 55.8714 202.212 55.7871 202.508 55.7871C202.799 55.7871 203.03 55.8714 203.198 56.04C203.367 56.2041 203.451 56.4115 203.451 56.6621C203.451 56.9082 203.367 57.1133 203.198 57.2773C203.03 57.4414 202.799 57.5234 202.508 57.5234C202.212 57.5234 201.979 57.4414 201.811 57.2773C201.646 57.1133 201.564 56.9082 201.564 56.6621ZM206.896 55.5V66H205.242V55.5H206.896ZM212.092 58.6035V59.8066H207.922V58.6035H212.092ZM209.125 56.792H210.772V63.9561C210.772 64.1839 210.804 64.3594 210.868 64.4824C210.937 64.6009 211.03 64.6807 211.148 64.7217C211.267 64.7627 211.406 64.7832 211.565 64.7832C211.679 64.7832 211.789 64.7764 211.894 64.7627C211.998 64.749 212.083 64.7354 212.146 64.7217L212.153 65.9795C212.017 66.0205 211.857 66.057 211.675 66.0889C211.497 66.1208 211.292 66.1367 211.06 66.1367C210.681 66.1367 210.346 66.0706 210.055 65.9385C209.763 65.8018 209.535 65.5807 209.371 65.2754C209.207 64.9701 209.125 64.5645 209.125 64.0586V56.792ZM216.624 66.1367C216.077 66.1367 215.583 66.0479 215.141 65.8701C214.703 65.6878 214.329 65.4349 214.02 65.1113C213.714 64.7878 213.479 64.4072 213.315 63.9697C213.151 63.5322 213.069 63.0605 213.069 62.5547V62.2812C213.069 61.7025 213.154 61.1784 213.322 60.709C213.491 60.2396 213.726 59.8385 214.026 59.5059C214.327 59.1686 214.683 58.9111 215.093 58.7334C215.503 58.5557 215.947 58.4668 216.426 58.4668C216.954 58.4668 217.417 58.5557 217.813 58.7334C218.21 58.9111 218.538 59.1618 218.798 59.4854C219.062 59.8044 219.258 60.1849 219.386 60.627C219.518 61.069 219.584 61.5566 219.584 62.0898V62.7939H213.869V61.6113H217.957V61.4814C217.948 61.1852 217.889 60.9072 217.779 60.6475C217.674 60.3877 217.513 60.1781 217.294 60.0186C217.075 59.859 216.784 59.7793 216.419 59.7793C216.146 59.7793 215.902 59.8385 215.688 59.957C215.478 60.071 215.302 60.2373 215.161 60.4561C215.02 60.6748 214.91 60.9391 214.833 61.249C214.76 61.5544 214.724 61.8984 214.724 62.2812V62.5547C214.724 62.8783 214.767 63.179 214.854 63.457C214.945 63.7305 215.077 63.9697 215.25 64.1748C215.423 64.3799 215.633 64.5417 215.879 64.6602C216.125 64.7741 216.405 64.8311 216.72 64.8311C217.116 64.8311 217.469 64.7513 217.779 64.5918C218.089 64.4323 218.358 64.2067 218.586 63.915L219.454 64.7559C219.295 64.9883 219.087 65.2116 218.832 65.4258C218.577 65.6354 218.265 65.8063 217.896 65.9385C217.531 66.0706 217.107 66.1367 216.624 66.1367ZM222.523 60.0117V66H220.876V58.6035H222.448L222.523 60.0117ZM224.786 58.5557L224.772 60.0869C224.672 60.0687 224.563 60.055 224.444 60.0459C224.33 60.0368 224.216 60.0322 224.103 60.0322C223.82 60.0322 223.572 60.0732 223.357 60.1553C223.143 60.2327 222.963 60.3467 222.817 60.4971C222.676 60.6429 222.567 60.8206 222.489 61.0303C222.412 61.2399 222.366 61.4746 222.353 61.7344L221.977 61.7617C221.977 61.2969 222.022 60.8662 222.113 60.4697C222.204 60.0732 222.341 59.7246 222.523 59.4238C222.71 59.123 222.943 58.8883 223.221 58.7197C223.503 58.5511 223.829 58.4668 224.198 58.4668C224.299 58.4668 224.406 58.4759 224.52 58.4941C224.638 58.5124 224.727 58.5329 224.786 58.5557ZM232.326 64.8242C232.595 64.8242 232.837 64.7718 233.051 64.667C233.27 64.5576 233.445 64.4072 233.577 64.2158C233.714 64.0244 233.789 63.8034 233.803 63.5527H235.354C235.345 64.0312 235.204 64.4665 234.931 64.8584C234.657 65.2503 234.295 65.5625 233.844 65.7949C233.393 66.0228 232.894 66.1367 232.347 66.1367C231.782 66.1367 231.289 66.041 230.87 65.8496C230.451 65.6536 230.102 65.3848 229.824 65.043C229.546 64.7012 229.337 64.307 229.195 63.8604C229.059 63.4137 228.99 62.9352 228.99 62.4248V62.1855C228.99 61.6751 229.059 61.1966 229.195 60.75C229.337 60.2988 229.546 59.9023 229.824 59.5605C230.102 59.2188 230.451 58.9521 230.87 58.7607C231.289 58.5648 231.779 58.4668 232.34 58.4668C232.932 58.4668 233.452 58.5853 233.898 58.8223C234.345 59.0547 234.696 59.3805 234.951 59.7998C235.211 60.2145 235.345 60.6976 235.354 61.249H233.803C233.789 60.9756 233.721 60.7295 233.598 60.5107C233.479 60.2874 233.311 60.1097 233.092 59.9775C232.878 59.8454 232.62 59.7793 232.319 59.7793C231.987 59.7793 231.711 59.8477 231.492 59.9844C231.273 60.1165 231.103 60.2988 230.979 60.5312C230.856 60.7591 230.768 61.0166 230.713 61.3037C230.663 61.5863 230.638 61.8802 230.638 62.1855V62.4248C230.638 62.7301 230.663 63.0264 230.713 63.3135C230.763 63.6006 230.85 63.8581 230.973 64.0859C231.1 64.3092 231.273 64.4893 231.492 64.626C231.711 64.7581 231.989 64.8242 232.326 64.8242ZM238.246 55.5V66H236.605V55.5H238.246ZM237.959 62.0283L237.426 62.0215C237.43 61.5111 237.501 61.0394 237.638 60.6064C237.779 60.1735 237.975 59.7975 238.226 59.4785C238.481 59.1549 238.786 58.9066 239.142 58.7334C239.497 58.5557 239.891 58.4668 240.324 58.4668C240.689 58.4668 241.017 58.5169 241.309 58.6172C241.605 58.7174 241.86 58.8792 242.074 59.1025C242.288 59.3213 242.45 59.6084 242.56 59.9639C242.674 60.3148 242.73 60.7432 242.73 61.249V66H241.076V61.2354C241.076 60.8799 241.024 60.5973 240.919 60.3877C240.819 60.1781 240.671 60.0277 240.475 59.9365C240.279 59.8408 240.039 59.793 239.757 59.793C239.461 59.793 239.199 59.8522 238.971 59.9707C238.747 60.0892 238.561 60.251 238.41 60.4561C238.26 60.6611 238.146 60.8981 238.068 61.167C237.995 61.4359 237.959 61.723 237.959 62.0283ZM246.162 58.6035V66H244.508V58.6035H246.162ZM244.398 56.6621C244.398 56.4115 244.48 56.2041 244.645 56.04C244.813 55.8714 245.046 55.7871 245.342 55.7871C245.633 55.7871 245.864 55.8714 246.032 56.04C246.201 56.2041 246.285 56.4115 246.285 56.6621C246.285 56.9082 246.201 57.1133 246.032 57.2773C245.864 57.4414 245.633 57.5234 245.342 57.5234C245.046 57.5234 244.813 57.4414 244.645 57.2773C244.48 57.1133 244.398 56.9082 244.398 56.6621ZM249.621 60.0254V68.8438H247.974V58.6035H249.491L249.621 60.0254ZM254.44 62.2334V62.377C254.44 62.9147 254.377 63.4137 254.249 63.874C254.126 64.3298 253.941 64.7285 253.695 65.0703C253.454 65.4076 253.155 65.6696 252.8 65.8564C252.444 66.0433 252.034 66.1367 251.569 66.1367C251.109 66.1367 250.706 66.0524 250.359 65.8838C250.018 65.7106 249.728 65.4668 249.491 65.1523C249.254 64.8379 249.063 64.4688 248.917 64.0449C248.776 63.6165 248.675 63.1471 248.616 62.6367V62.083C248.675 61.5407 248.776 61.0485 248.917 60.6064C249.063 60.1644 249.254 59.7839 249.491 59.4648C249.728 59.1458 250.018 58.8997 250.359 58.7266C250.701 58.5534 251.1 58.4668 251.556 58.4668C252.021 58.4668 252.433 58.5579 252.793 58.7402C253.153 58.918 253.456 59.1732 253.702 59.5059C253.948 59.834 254.133 60.2305 254.256 60.6953C254.379 61.1556 254.44 61.6683 254.44 62.2334ZM252.793 62.377V62.2334C252.793 61.8916 252.761 61.5749 252.697 61.2832C252.633 60.987 252.533 60.7272 252.396 60.5039C252.26 60.2806 252.084 60.1074 251.87 59.9844C251.66 59.8568 251.408 59.793 251.111 59.793C250.82 59.793 250.569 59.8431 250.359 59.9434C250.15 60.0391 249.974 60.1735 249.833 60.3467C249.692 60.5199 249.582 60.7227 249.505 60.9551C249.427 61.1829 249.373 61.4313 249.341 61.7002V63.0264C249.396 63.3545 249.489 63.6553 249.621 63.9287C249.753 64.2021 249.94 64.4209 250.182 64.585C250.428 64.7445 250.742 64.8242 251.125 64.8242C251.421 64.8242 251.674 64.7604 251.884 64.6328C252.093 64.5052 252.264 64.3298 252.396 64.1064C252.533 63.8786 252.633 63.6165 252.697 63.3203C252.761 63.0241 252.793 62.7096 252.793 62.377Z" fill="#1D192B"/>
<path fill-rule="evenodd" clip-rule="evenodd" d="M42.19 56.5075C42.04 56.065 41.62 55.75 41.125 55.75H39.25V54.25H34.75V55.75H32.875C32.38 55.75 31.9675 56.065 31.81 56.5075L30.25 61V67C30.25 67.4125 30.5875 67.75 31 67.75H31.75C32.1625 67.75 32.5 67.4125 32.5 67V66.25H41.5V67C41.5 67.4125 41.8375 67.75 42.25 67.75H43C43.4125 67.75 43.75 67.4125 43.75 67V61L42.19 56.5075ZM33.1375 57.25H40.855L41.635 59.5H32.3575L33.1375 57.25ZM41.5 64.75H42.25V61.255L42.1675 61H31.84L31.75 61.255V64.75H32.5H41.5ZM33.625 64C34.2463 64 34.75 63.4963 34.75 62.875C34.75 62.2537 34.2463 61.75 33.625 61.75C33.0037 61.75 32.5 62.2537 32.5 62.875C32.5 63.4963 33.0037 64 33.625 64ZM41.5 62.875C41.5 63.4963 40.9963 64 40.375 64C39.7537 64 39.25 63.4963 39.25 62.875C39.25 62.2537 39.7537 61.75 40.375 61.75C40.9963 61.75 41.5 62.2537 41.5 62.875Z" fill="#6750A4"/>
<path d="M59.3115 57.373L56.3379 66H54.54L58.2861 56.0469H59.4346L59.3115 57.373ZM61.7998 66L58.8193 57.373L58.6895 56.0469H59.8447L63.6045 66H61.7998ZM61.6562 62.3086V63.6689H56.2422V62.3086H61.6562ZM68.7041 63.9971C68.7041 63.833 68.6631 63.6849 68.5811 63.5527C68.499 63.416 68.3418 63.293 68.1094 63.1836C67.8815 63.0742 67.5443 62.974 67.0977 62.8828C66.7057 62.7962 66.3457 62.6937 66.0176 62.5752C65.694 62.4521 65.416 62.304 65.1836 62.1309C64.9512 61.9577 64.7712 61.7526 64.6436 61.5156C64.516 61.2786 64.4521 61.0052 64.4521 60.6953C64.4521 60.3945 64.5182 60.1097 64.6504 59.8408C64.7826 59.5719 64.9717 59.335 65.2178 59.1299C65.4639 58.9248 65.7624 58.763 66.1133 58.6445C66.4688 58.526 66.8652 58.4668 67.3027 58.4668C67.9225 58.4668 68.4535 58.5716 68.8955 58.7812C69.3421 58.9863 69.6839 59.2666 69.9209 59.6221C70.1579 59.973 70.2764 60.3695 70.2764 60.8115H68.6289C68.6289 60.6156 68.5788 60.4333 68.4785 60.2646C68.3828 60.0915 68.237 59.9525 68.041 59.8477C67.8451 59.7383 67.599 59.6836 67.3027 59.6836C67.0202 59.6836 66.7855 59.7292 66.5986 59.8203C66.4163 59.9069 66.2796 60.0208 66.1885 60.1621C66.1019 60.3034 66.0586 60.4583 66.0586 60.627C66.0586 60.75 66.0814 60.8617 66.127 60.9619C66.1771 61.0576 66.2591 61.1465 66.373 61.2285C66.487 61.306 66.6419 61.3789 66.8379 61.4473C67.0384 61.5156 67.2891 61.5817 67.5898 61.6455C68.1549 61.764 68.6403 61.9167 69.0459 62.1035C69.4561 62.2858 69.7705 62.5228 69.9893 62.8145C70.208 63.1016 70.3174 63.4661 70.3174 63.9082C70.3174 64.2363 70.2467 64.5371 70.1055 64.8105C69.9688 65.0794 69.7682 65.3141 69.5039 65.5146C69.2396 65.7106 68.9229 65.8633 68.5537 65.9727C68.1891 66.082 67.779 66.1367 67.3232 66.1367C66.6533 66.1367 66.0859 66.0182 65.6211 65.7812C65.1562 65.5397 64.8031 65.2321 64.5615 64.8584C64.3245 64.4801 64.2061 64.0882 64.2061 63.6826H65.7988C65.8171 63.988 65.9014 64.2318 66.0518 64.4141C66.2067 64.5918 66.3981 64.7217 66.626 64.8037C66.8584 64.8812 67.0977 64.9199 67.3438 64.9199C67.64 64.9199 67.8883 64.8812 68.0889 64.8037C68.2894 64.7217 68.4421 64.6123 68.5469 64.4756C68.6517 64.3343 68.7041 64.1748 68.7041 63.9971ZM75.9092 63.9971C75.9092 63.833 75.8682 63.6849 75.7861 63.5527C75.7041 63.416 75.5469 63.293 75.3145 63.1836C75.0866 63.0742 74.7493 62.974 74.3027 62.8828C73.9108 62.7962 73.5508 62.6937 73.2227 62.5752C72.8991 62.4521 72.6211 62.304 72.3887 62.1309C72.1562 61.9577 71.9762 61.7526 71.8486 61.5156C71.721 61.2786 71.6572 61.0052 71.6572 60.6953C71.6572 60.3945 71.7233 60.1097 71.8555 59.8408C71.9876 59.5719 72.1768 59.335 72.4229 59.1299C72.6689 58.9248 72.9674 58.763 73.3184 58.6445C73.6738 58.526 74.0703 58.4668 74.5078 58.4668C75.1276 58.4668 75.6585 58.5716 76.1006 58.7812C76.5472 58.9863 76.889 59.2666 77.126 59.6221C77.363 59.973 77.4814 60.3695 77.4814 60.8115H75.834C75.834 60.6156 75.7839 60.4333 75.6836 60.2646C75.5879 60.0915 75.4421 59.9525 75.2461 59.8477C75.0501 59.7383 74.804 59.6836 74.5078 59.6836C74.2253 59.6836 73.9906 59.7292 73.8037 59.8203C73.6214 59.9069 73.4847 60.0208 73.3936 60.1621C73.307 60.3034 73.2637 60.4583 73.2637 60.627C73.2637 60.75 73.2865 60.8617 73.332 60.9619C73.3822 61.0576 73.4642 61.1465 73.5781 61.2285C73.6921 61.306 73.847 61.3789 74.043 61.4473C74.2435 61.5156 74.4941 61.5817 74.7949 61.6455C75.36 61.764 75.8454 61.9167 76.251 62.1035C76.6611 62.2858 76.9756 62.5228 77.1943 62.8145C77.4131 63.1016 77.5225 63.4661 77.5225 63.9082C77.5225 64.2363 77.4518 64.5371 77.3105 64.8105C77.1738 65.0794 76.9733 65.3141 76.709 65.5146C76.4447 65.7106 76.1279 65.8633 75.7588 65.9727C75.3942 66.082 74.984 66.1367 74.5283 66.1367C73.8584 66.1367 73.291 66.0182 72.8262 65.7812C72.3613 65.5397 72.0081 65.2321 71.7666 64.8584C71.5296 64.4801 71.4111 64.0882 71.4111 63.6826H73.0039C73.0221 63.988 73.1064 64.2318 73.2568 64.4141C73.4118 64.5918 73.6032 64.7217 73.8311 64.8037C74.0635 64.8812 74.3027 64.9199 74.5488 64.9199C74.8451 64.9199 75.0934 64.8812 75.2939 64.8037C75.4945 64.7217 75.6471 64.6123 75.752 64.4756C75.8568 64.3343 75.9092 64.1748 75.9092 63.9971ZM80.7285 58.6035V66H79.0742V58.6035H80.7285ZM78.9648 56.6621C78.9648 56.4115 79.0469 56.2041 79.2109 56.04C79.3796 55.8714 79.612 55.7871 79.9082 55.7871C80.1999 55.7871 80.43 55.8714 80.5986 56.04C80.7673 56.2041 80.8516 56.4115 80.8516 56.6621C80.8516 56.9082 80.7673 57.1133 80.5986 57.2773C80.43 57.4414 80.1999 57.5234 79.9082 57.5234C79.612 57.5234 79.3796 57.4414 79.2109 57.2773C79.0469 57.1133 78.9648 56.9082 78.9648 56.6621ZM86.6826 63.9971C86.6826 63.833 86.6416 63.6849 86.5596 63.5527C86.4775 63.416 86.3203 63.293 86.0879 63.1836C85.86 63.0742 85.5228 62.974 85.0762 62.8828C84.6842 62.7962 84.3242 62.6937 83.9961 62.5752C83.6725 62.4521 83.3945 62.304 83.1621 62.1309C82.9297 61.9577 82.7497 61.7526 82.6221 61.5156C82.4945 61.2786 82.4307 61.0052 82.4307 60.6953C82.4307 60.3945 82.4967 60.1097 82.6289 59.8408C82.7611 59.5719 82.9502 59.335 83.1963 59.1299C83.4424 58.9248 83.7409 58.763 84.0918 58.6445C84.4473 58.526 84.8438 58.4668 85.2812 58.4668C85.901 58.4668 86.432 58.5716 86.874 58.7812C87.3206 58.9863 87.6624 59.2666 87.8994 59.6221C88.1364 59.973 88.2549 60.3695 88.2549 60.8115H86.6074C86.6074 60.6156 86.5573 60.4333 86.457 60.2646C86.3613 60.0915 86.2155 59.9525 86.0195 59.8477C85.8236 59.7383 85.5775 59.6836 85.2812 59.6836C84.9987 59.6836 84.764 59.7292 84.5771 59.8203C84.3949 59.9069 84.2581 60.0208 84.167 60.1621C84.0804 60.3034 84.0371 60.4583 84.0371 60.627C84.0371 60.75 84.0599 60.8617 84.1055 60.9619C84.1556 61.0576 84.2376 61.1465 84.3516 61.2285C84.4655 61.306 84.6204 61.3789 84.8164 61.4473C85.0169 61.5156 85.2676 61.5817 85.5684 61.6455C86.1335 61.764 86.6188 61.9167 87.0244 62.1035C87.4346 62.2858 87.749 62.5228 87.9678 62.8145C88.1865 63.1016 88.2959 63.4661 88.2959 63.9082C88.2959 64.2363 88.2253 64.5371 88.084 64.8105C87.9473 65.0794 87.7467 65.3141 87.4824 65.5146C87.2181 65.7106 86.9014 65.8633 86.5322 65.9727C86.1676 66.082 85.7575 66.1367 85.3018 66.1367C84.6318 66.1367 84.0645 66.0182 83.5996 65.7812C83.1348 65.5397 82.7816 65.2321 82.54 64.8584C82.3031 64.4801 82.1846 64.0882 82.1846 63.6826H83.7773C83.7956 63.988 83.8799 64.2318 84.0303 64.4141C84.1852 64.5918 84.3766 64.7217 84.6045 64.8037C84.8369 64.8812 85.0762 64.9199 85.3223 64.9199C85.6185 64.9199 85.8669 64.8812 86.0674 64.8037C86.2679 64.7217 86.4206 64.6123 86.5254 64.4756C86.6302 64.3343 86.6826 64.1748 86.6826 63.9971ZM93.1289 58.6035V59.8066H88.959V58.6035H93.1289ZM90.1621 56.792H91.8096V63.9561C91.8096 64.1839 91.8415 64.3594 91.9053 64.4824C91.9736 64.6009 92.0671 64.6807 92.1855 64.7217C92.304 64.7627 92.443 64.7832 92.6025 64.7832C92.7165 64.7832 92.8258 64.7764 92.9307 64.7627C93.0355 64.749 93.1198 64.7354 93.1836 64.7217L93.1904 65.9795C93.0537 66.0205 92.8942 66.057 92.7119 66.0889C92.5342 66.1208 92.3291 66.1367 92.0967 66.1367C91.7184 66.1367 91.3835 66.0706 91.0918 65.9385C90.8001 65.8018 90.5723 65.5807 90.4082 65.2754C90.2441 64.9701 90.1621 64.5645 90.1621 64.0586V56.792ZM100.908 64.8242C101.177 64.8242 101.419 64.7718 101.633 64.667C101.852 64.5576 102.027 64.4072 102.159 64.2158C102.296 64.0244 102.371 63.8034 102.385 63.5527H103.937C103.927 64.0312 103.786 64.4665 103.513 64.8584C103.239 65.2503 102.877 65.5625 102.426 65.7949C101.975 66.0228 101.476 66.1367 100.929 66.1367C100.364 66.1367 99.8714 66.041 99.4521 65.8496C99.0329 65.6536 98.6842 65.3848 98.4062 65.043C98.1283 64.7012 97.9186 64.307 97.7773 63.8604C97.6406 63.4137 97.5723 62.9352 97.5723 62.4248V62.1855C97.5723 61.6751 97.6406 61.1966 97.7773 60.75C97.9186 60.2988 98.1283 59.9023 98.4062 59.5605C98.6842 59.2188 99.0329 58.9521 99.4521 58.7607C99.8714 58.5648 100.361 58.4668 100.922 58.4668C101.514 58.4668 102.034 58.5853 102.48 58.8223C102.927 59.0547 103.278 59.3805 103.533 59.7998C103.793 60.2145 103.927 60.6976 103.937 61.249H102.385C102.371 60.9756 102.303 60.7295 102.18 60.5107C102.061 60.2874 101.893 60.1097 101.674 59.9775C101.46 59.8454 101.202 59.7793 100.901 59.7793C100.569 59.7793 100.293 59.8477 100.074 59.9844C99.8555 60.1165 99.6846 60.2988 99.5615 60.5312C99.4385 60.7591 99.3496 61.0166 99.2949 61.3037C99.2448 61.5863 99.2197 61.8802 99.2197 62.1855V62.4248C99.2197 62.7301 99.2448 63.0264 99.2949 63.3135C99.3451 63.6006 99.4316 63.8581 99.5547 64.0859C99.6823 64.3092 99.8555 64.4893 100.074 64.626C100.293 64.7581 100.571 64.8242 100.908 64.8242ZM106.828 55.5V66H105.188V55.5H106.828ZM106.541 62.0283L106.008 62.0215C106.012 61.5111 106.083 61.0394 106.22 60.6064C106.361 60.1735 106.557 59.7975 106.808 59.4785C107.063 59.1549 107.368 58.9066 107.724 58.7334C108.079 58.5557 108.473 58.4668 108.906 58.4668C109.271 58.4668 109.599 58.5169 109.891 58.6172C110.187 58.7174 110.442 58.8792 110.656 59.1025C110.87 59.3213 111.032 59.6084 111.142 59.9639C111.256 60.3148 111.312 60.7432 111.312 61.249V66H109.658V61.2354C109.658 60.8799 109.606 60.5973 109.501 60.3877C109.401 60.1781 109.253 60.0277 109.057 59.9365C108.861 59.8408 108.621 59.793 108.339 59.793C108.043 59.793 107.781 59.8522 107.553 59.9707C107.329 60.0892 107.143 60.251 106.992 60.4561C106.842 60.6611 106.728 60.8981 106.65 61.167C106.577 61.4359 106.541 61.723 106.541 62.0283ZM114.744 58.6035V66H113.09V58.6035H114.744ZM112.98 56.6621C112.98 56.4115 113.062 56.2041 113.227 56.04C113.395 55.8714 113.628 55.7871 113.924 55.7871C114.215 55.7871 114.446 55.8714 114.614 56.04C114.783 56.2041 114.867 56.4115 114.867 56.6621C114.867 56.9082 114.783 57.1133 114.614 57.2773C114.446 57.4414 114.215 57.5234 113.924 57.5234C113.628 57.5234 113.395 57.4414 113.227 57.2773C113.062 57.1133 112.98 56.9082 112.98 56.6621ZM118.203 60.0254V68.8438H116.556V58.6035H118.073L118.203 60.0254ZM123.022 62.2334V62.377C123.022 62.9147 122.959 63.4137 122.831 63.874C122.708 64.3298 122.523 64.7285 122.277 65.0703C122.036 65.4076 121.737 65.6696 121.382 65.8564C121.026 66.0433 120.616 66.1367 120.151 66.1367C119.691 66.1367 119.288 66.0524 118.941 65.8838C118.6 65.7106 118.31 65.4668 118.073 65.1523C117.836 64.8379 117.645 64.4688 117.499 64.0449C117.358 63.6165 117.257 63.1471 117.198 62.6367V62.083C117.257 61.5407 117.358 61.0485 117.499 60.6064C117.645 60.1644 117.836 59.7839 118.073 59.4648C118.31 59.1458 118.6 58.8997 118.941 58.7266C119.283 58.5534 119.682 58.4668 120.138 58.4668C120.603 58.4668 121.015 58.5579 121.375 58.7402C121.735 58.918 122.038 59.1732 122.284 59.5059C122.53 59.834 122.715 60.2305 122.838 60.6953C122.961 61.1556 123.022 61.6683 123.022 62.2334ZM121.375 62.377V62.2334C121.375 61.8916 121.343 61.5749 121.279 61.2832C121.215 60.987 121.115 60.7272 120.979 60.5039C120.842 60.2806 120.666 60.1074 120.452 59.9844C120.243 59.8568 119.99 59.793 119.693 59.793C119.402 59.793 119.151 59.8431 118.941 59.9434C118.732 60.0391 118.556 60.1735 118.415 60.3467C118.274 60.5199 118.164 60.7227 118.087 60.9551C118.009 61.1829 117.955 61.4313 117.923 61.7002V63.0264C117.978 63.3545 118.071 63.6553 118.203 63.9287C118.335 64.2021 118.522 64.4209 118.764 64.585C119.01 64.7445 119.324 64.8242 119.707 64.8242C120.003 64.8242 120.256 64.7604 120.466 64.6328C120.675 64.5052 120.846 64.3298 120.979 64.1064C121.115 63.8786 121.215 63.6165 121.279 63.3203C121.343 63.0241 121.375 62.7096 121.375 62.377Z" fill="#1C1B1F"/>
<rect x="20.5" y="45.5" width="119" height="31" rx="7.5" stroke="#79747E"/>
</svg>
