<svg width="1024" height="400" viewBox="0 0 1024 400" fill="none" xmlns="http://www.w3.org/2000/svg">
<g clip-path="url(#clip0_9_9574)">
<rect width="1024" height="400" fill="#FFFBFA"/>
<rect width="1024" height="400" fill="#F1EBF7"/>
<rect opacity="0.4" x="-76" y="-59" width="1131" height="976" fill="#1D192B"/>
<g clip-path="url(#clip1_9_9574)">
<rect x="342" y="68" width="340" height="265" rx="28" fill="#FFFBFE"/>
<rect x="342" y="68" width="340" height="265" rx="28" fill="#605D62" fill-opacity="0.02"/>
<rect x="342" y="68" width="340" height="265" rx="28" fill="#9A82DB" fill-opacity="0.11"/>
<path fill-rule="evenodd" clip-rule="evenodd" d="M502 115V97C502 95.9 502.9 95.01 504 95.01L514 95C515.1 95 516 95.9 516 97V101H514V100H504V112H514V111H516V115C516 116.1 515.1 117 514 117H504C502.9 117 502 116.1 502 115ZM514 115V114H504V115H514ZM504 97H514V98H504V97ZM519.2 103.55L517.8 102.15L512.75 107.2L510.4 104.85L509 106.25L512.75 110L519.2 103.55Z" fill="#625B71"/>
<path d="M398.324 161V143.938H403.141C404.625 143.938 405.938 144.266 407.078 144.922C408.219 145.578 409.098 146.512 409.715 147.723C410.34 148.934 410.656 150.324 410.664 151.895V152.984C410.664 154.594 410.352 156.004 409.727 157.215C409.109 158.426 408.223 159.355 407.066 160.004C405.918 160.652 404.578 160.984 403.047 161H398.324ZM400.574 145.789V159.16H402.941C404.676 159.16 406.023 158.621 406.984 157.543C407.953 156.465 408.438 154.93 408.438 152.938V151.941C408.438 150.004 407.98 148.5 407.066 147.43C406.16 146.352 404.871 145.805 403.199 145.789H400.574ZM416.09 161H413.922V148.32H416.09V161ZM413.746 144.957C413.746 144.605 413.852 144.309 414.062 144.066C414.281 143.824 414.602 143.703 415.023 143.703C415.445 143.703 415.766 143.824 415.984 144.066C416.203 144.309 416.312 144.605 416.312 144.957C416.312 145.309 416.203 145.602 415.984 145.836C415.766 146.07 415.445 146.188 415.023 146.188C414.602 146.188 414.281 146.07 414.062 145.836C413.852 145.602 413.746 145.309 413.746 144.957ZM427.398 161C427.273 160.75 427.172 160.305 427.094 159.664C426.086 160.711 424.883 161.234 423.484 161.234C422.234 161.234 421.207 160.883 420.402 160.18C419.605 159.469 419.207 158.57 419.207 157.484C419.207 156.164 419.707 155.141 420.707 154.414C421.715 153.68 423.129 153.312 424.949 153.312H427.059V152.316C427.059 151.559 426.832 150.957 426.379 150.512C425.926 150.059 425.258 149.832 424.375 149.832C423.602 149.832 422.953 150.027 422.43 150.418C421.906 150.809 421.645 151.281 421.645 151.836H419.465C419.465 151.203 419.688 150.594 420.133 150.008C420.586 149.414 421.195 148.945 421.961 148.602C422.734 148.258 423.582 148.086 424.504 148.086C425.965 148.086 427.109 148.453 427.938 149.188C428.766 149.914 429.195 150.918 429.227 152.199V158.035C429.227 159.199 429.375 160.125 429.672 160.812V161H427.398ZM423.801 159.348C424.48 159.348 425.125 159.172 425.734 158.82C426.344 158.469 426.785 158.012 427.059 157.449V154.848H425.359C422.703 154.848 421.375 155.625 421.375 157.18C421.375 157.859 421.602 158.391 422.055 158.773C422.508 159.156 423.09 159.348 423.801 159.348ZM434.98 161H432.812V143H434.98V161ZM437.887 154.543C437.887 153.301 438.129 152.184 438.613 151.191C439.105 150.199 439.785 149.434 440.652 148.895C441.527 148.355 442.523 148.086 443.641 148.086C445.367 148.086 446.762 148.684 447.824 149.879C448.895 151.074 449.43 152.664 449.43 154.648V154.801C449.43 156.035 449.191 157.145 448.715 158.129C448.246 159.105 447.57 159.867 446.688 160.414C445.812 160.961 444.805 161.234 443.664 161.234C441.945 161.234 440.551 160.637 439.48 159.441C438.418 158.246 437.887 156.664 437.887 154.695V154.543ZM440.066 154.801C440.066 156.207 440.391 157.336 441.039 158.188C441.695 159.039 442.57 159.465 443.664 159.465C444.766 159.465 445.641 159.035 446.289 158.176C446.938 157.309 447.262 156.098 447.262 154.543C447.262 153.152 446.93 152.027 446.266 151.168C445.609 150.301 444.734 149.867 443.641 149.867C442.57 149.867 441.707 150.293 441.051 151.145C440.395 151.996 440.066 153.215 440.066 154.801ZM451.633 154.555C451.633 152.578 452.09 151.008 453.004 149.844C453.918 148.672 455.129 148.086 456.637 148.086C458.184 148.086 459.391 148.633 460.258 149.727L460.363 148.32H462.344V160.695C462.344 162.336 461.855 163.629 460.879 164.574C459.91 165.52 458.605 165.992 456.965 165.992C456.051 165.992 455.156 165.797 454.281 165.406C453.406 165.016 452.738 164.48 452.277 163.801L453.402 162.5C454.332 163.648 455.469 164.223 456.812 164.223C457.867 164.223 458.688 163.926 459.273 163.332C459.867 162.738 460.164 161.902 460.164 160.824V159.734C459.297 160.734 458.113 161.234 456.613 161.234C455.129 161.234 453.926 160.637 453.004 159.441C452.09 158.246 451.633 156.617 451.633 154.555ZM453.812 154.801C453.812 156.23 454.105 157.355 454.691 158.176C455.277 158.988 456.098 159.395 457.152 159.395C458.52 159.395 459.523 158.773 460.164 157.531V151.742C459.5 150.531 458.504 149.926 457.176 149.926C456.121 149.926 455.297 150.336 454.703 151.156C454.109 151.977 453.812 153.191 453.812 154.801ZM482.805 158.012L485.242 148.32H487.41L483.719 161H481.961L478.879 151.391L475.879 161H474.121L470.441 148.32H472.598L475.094 157.812L478.047 148.32H479.793L482.805 158.012ZM491.98 161H489.812V148.32H491.98V161ZM489.637 144.957C489.637 144.605 489.742 144.309 489.953 144.066C490.172 143.824 490.492 143.703 490.914 143.703C491.336 143.703 491.656 143.824 491.875 144.066C492.094 144.309 492.203 144.605 492.203 144.957C492.203 145.309 492.094 145.602 491.875 145.836C491.656 146.07 491.336 146.188 490.914 146.188C490.492 146.188 490.172 146.07 489.953 145.836C489.742 145.602 489.637 145.309 489.637 144.957ZM498.402 145.25V148.32H500.77V149.996H498.402V157.859C498.402 158.367 498.508 158.75 498.719 159.008C498.93 159.258 499.289 159.383 499.797 159.383C500.047 159.383 500.391 159.336 500.828 159.242V161C500.258 161.156 499.703 161.234 499.164 161.234C498.195 161.234 497.465 160.941 496.973 160.355C496.48 159.77 496.234 158.938 496.234 157.859V149.996H493.926V148.32H496.234V145.25H498.402ZM505.48 149.855C506.441 148.676 507.691 148.086 509.23 148.086C511.91 148.086 513.262 149.598 513.285 152.621V161H511.117V152.609C511.109 151.695 510.898 151.02 510.484 150.582C510.078 150.145 509.441 149.926 508.574 149.926C507.871 149.926 507.254 150.113 506.723 150.488C506.191 150.863 505.777 151.355 505.48 151.965V161H503.312V143H505.48V149.855ZM524.652 149.855C525.613 148.676 526.863 148.086 528.402 148.086C531.082 148.086 532.434 149.598 532.457 152.621V161H530.289V152.609C530.281 151.695 530.07 151.02 529.656 150.582C529.25 150.145 528.613 149.926 527.746 149.926C527.043 149.926 526.426 150.113 525.895 150.488C525.363 150.863 524.949 151.355 524.652 151.965V161H522.484V143H524.652V149.855ZM540.965 161.234C539.246 161.234 537.848 160.672 536.77 159.547C535.691 158.414 535.152 156.902 535.152 155.012V154.613C535.152 153.355 535.391 152.234 535.867 151.25C536.352 150.258 537.023 149.484 537.883 148.93C538.75 148.367 539.688 148.086 540.695 148.086C542.344 148.086 543.625 148.629 544.539 149.715C545.453 150.801 545.91 152.355 545.91 154.379V155.281H537.32C537.352 156.531 537.715 157.543 538.41 158.316C539.113 159.082 540.004 159.465 541.082 159.465C541.848 159.465 542.496 159.309 543.027 158.996C543.559 158.684 544.023 158.27 544.422 157.754L545.746 158.785C544.684 160.418 543.09 161.234 540.965 161.234ZM540.695 149.867C539.82 149.867 539.086 150.188 538.492 150.828C537.898 151.461 537.531 152.352 537.391 153.5H543.742V153.336C543.68 152.234 543.383 151.383 542.852 150.781C542.32 150.172 541.602 149.867 540.695 149.867ZM554.559 150.266C554.23 150.211 553.875 150.184 553.492 150.184C552.07 150.184 551.105 150.789 550.598 152V161H548.43V148.32H550.539L550.574 149.785C551.285 148.652 552.293 148.086 553.598 148.086C554.02 148.086 554.34 148.141 554.559 148.25V150.266ZM555.754 154.543C555.754 153.301 555.996 152.184 556.48 151.191C556.973 150.199 557.652 149.434 558.52 148.895C559.395 148.355 560.391 148.086 561.508 148.086C563.234 148.086 564.629 148.684 565.691 149.879C566.762 151.074 567.297 152.664 567.297 154.648V154.801C567.297 156.035 567.059 157.145 566.582 158.129C566.113 159.105 565.438 159.867 564.555 160.414C563.68 160.961 562.672 161.234 561.531 161.234C559.812 161.234 558.418 160.637 557.348 159.441C556.285 158.246 555.754 156.664 555.754 154.695V154.543ZM557.934 154.801C557.934 156.207 558.258 157.336 558.906 158.188C559.562 159.039 560.438 159.465 561.531 159.465C562.633 159.465 563.508 159.035 564.156 158.176C564.805 157.309 565.129 156.098 565.129 154.543C565.129 153.152 564.797 152.027 564.133 151.168C563.477 150.301 562.602 149.867 561.508 149.867C560.438 149.867 559.574 150.293 558.918 151.145C558.262 151.996 557.934 153.215 557.934 154.801ZM578.324 161H576.156V148.32H578.324V161ZM575.98 144.957C575.98 144.605 576.086 144.309 576.297 144.066C576.516 143.824 576.836 143.703 577.258 143.703C577.68 143.703 578 143.824 578.219 144.066C578.438 144.309 578.547 144.605 578.547 144.957C578.547 145.309 578.438 145.602 578.219 145.836C578 146.07 577.68 146.188 577.258 146.188C576.836 146.188 576.516 146.07 576.297 145.836C576.086 145.602 575.98 145.309 575.98 144.957ZM586.891 159.465C587.664 159.465 588.34 159.23 588.918 158.762C589.496 158.293 589.816 157.707 589.879 157.004H591.93C591.891 157.73 591.641 158.422 591.18 159.078C590.719 159.734 590.102 160.258 589.328 160.648C588.562 161.039 587.75 161.234 586.891 161.234C585.164 161.234 583.789 160.66 582.766 159.512C581.75 158.355 581.242 156.777 581.242 154.777V154.414C581.242 153.18 581.469 152.082 581.922 151.121C582.375 150.16 583.023 149.414 583.867 148.883C584.719 148.352 585.723 148.086 586.879 148.086C588.301 148.086 589.48 148.512 590.418 149.363C591.363 150.215 591.867 151.32 591.93 152.68H589.879C589.816 151.859 589.504 151.188 588.941 150.664C588.387 150.133 587.699 149.867 586.879 149.867C585.777 149.867 584.922 150.266 584.312 151.062C583.711 151.852 583.41 152.996 583.41 154.496V154.906C583.41 156.367 583.711 157.492 584.312 158.281C584.914 159.07 585.773 159.465 586.891 159.465ZM593.793 154.543C593.793 153.301 594.035 152.184 594.52 151.191C595.012 150.199 595.691 149.434 596.559 148.895C597.434 148.355 598.43 148.086 599.547 148.086C601.273 148.086 602.668 148.684 603.73 149.879C604.801 151.074 605.336 152.664 605.336 154.648V154.801C605.336 156.035 605.098 157.145 604.621 158.129C604.152 159.105 603.477 159.867 602.594 160.414C601.719 160.961 600.711 161.234 599.57 161.234C597.852 161.234 596.457 160.637 595.387 159.441C594.324 158.246 593.793 156.664 593.793 154.695V154.543ZM595.973 154.801C595.973 156.207 596.297 157.336 596.945 158.188C597.602 159.039 598.477 159.465 599.57 159.465C600.672 159.465 601.547 159.035 602.195 158.176C602.844 157.309 603.168 156.098 603.168 154.543C603.168 153.152 602.836 152.027 602.172 151.168C601.516 150.301 600.641 149.867 599.547 149.867C598.477 149.867 597.613 150.293 596.957 151.145C596.301 151.996 595.973 153.215 595.973 154.801ZM610.105 148.32L610.176 149.914C611.145 148.695 612.41 148.086 613.973 148.086C616.652 148.086 618.004 149.598 618.027 152.621V161H615.859V152.609C615.852 151.695 615.641 151.02 615.227 150.582C614.82 150.145 614.184 149.926 613.316 149.926C612.613 149.926 611.996 150.113 611.465 150.488C610.934 150.863 610.52 151.355 610.223 151.965V161H608.055V148.32H610.105Z" fill="#1C1B1F"/>
<path d="M372.651 197.402H368.481L367.545 200H366.191L369.992 190.047H371.141L374.948 200H373.602L372.651 197.402ZM368.878 196.322H372.262L370.566 191.667L368.878 196.322ZM379.755 196.24C379.755 195.105 380.024 194.194 380.562 193.506C381.099 192.813 381.803 192.467 382.674 192.467C383.54 192.467 384.226 192.763 384.731 193.355V189.5H385.996V200H384.834L384.772 199.207C384.267 199.827 383.562 200.137 382.66 200.137C381.803 200.137 381.104 199.786 380.562 199.084C380.024 198.382 379.755 197.466 379.755 196.336V196.24ZM381.02 196.384C381.02 197.222 381.193 197.879 381.539 198.353C381.885 198.826 382.364 199.063 382.975 199.063C383.777 199.063 384.362 198.703 384.731 197.983V194.586C384.353 193.889 383.772 193.54 382.988 193.54C382.368 193.54 381.885 193.779 381.539 194.258C381.193 194.736 381.02 195.445 381.02 196.384ZM389.589 200H388.324V192.604H389.589V200ZM388.222 190.642C388.222 190.437 388.283 190.263 388.406 190.122C388.534 189.981 388.721 189.91 388.967 189.91C389.213 189.91 389.4 189.981 389.527 190.122C389.655 190.263 389.719 190.437 389.719 190.642C389.719 190.847 389.655 191.018 389.527 191.154C389.4 191.291 389.213 191.359 388.967 191.359C388.721 191.359 388.534 191.291 388.406 191.154C388.283 191.018 388.222 190.847 388.222 190.642ZM396.436 200C396.363 199.854 396.303 199.594 396.258 199.221C395.67 199.831 394.968 200.137 394.152 200.137C393.423 200.137 392.824 199.932 392.354 199.521C391.89 199.107 391.657 198.583 391.657 197.949C391.657 197.179 391.949 196.582 392.532 196.158C393.12 195.73 393.945 195.516 395.007 195.516H396.237V194.935C396.237 194.493 396.105 194.142 395.841 193.882C395.576 193.618 395.187 193.485 394.672 193.485C394.221 193.485 393.842 193.599 393.537 193.827C393.232 194.055 393.079 194.331 393.079 194.654H391.808C391.808 194.285 391.938 193.93 392.197 193.588C392.462 193.242 392.817 192.968 393.264 192.768C393.715 192.567 394.209 192.467 394.747 192.467C395.599 192.467 396.267 192.681 396.75 193.109C397.233 193.533 397.484 194.119 397.502 194.866V198.271C397.502 198.95 397.589 199.49 397.762 199.891V200H396.436ZM394.337 199.036C394.733 199.036 395.109 198.934 395.465 198.729C395.82 198.523 396.078 198.257 396.237 197.929V196.411H395.246C393.697 196.411 392.922 196.865 392.922 197.771C392.922 198.168 393.054 198.478 393.318 198.701C393.583 198.924 393.922 199.036 394.337 199.036ZM401.108 200H399.844V189.5H401.108V200ZM403.054 196.233C403.054 195.509 403.195 194.857 403.478 194.278C403.765 193.7 404.161 193.253 404.667 192.938C405.177 192.624 405.758 192.467 406.41 192.467C407.417 192.467 408.231 192.815 408.851 193.513C409.475 194.21 409.787 195.137 409.787 196.295V196.384C409.787 197.104 409.648 197.751 409.37 198.325C409.097 198.895 408.702 199.339 408.188 199.658C407.677 199.977 407.089 200.137 406.424 200.137C405.421 200.137 404.608 199.788 403.983 199.091C403.364 198.394 403.054 197.471 403.054 196.322V196.233ZM404.325 196.384C404.325 197.204 404.514 197.863 404.893 198.359C405.275 198.856 405.786 199.104 406.424 199.104C407.066 199.104 407.577 198.854 407.955 198.353C408.333 197.847 408.522 197.14 408.522 196.233C408.522 195.422 408.329 194.766 407.941 194.265C407.559 193.759 407.048 193.506 406.41 193.506C405.786 193.506 405.282 193.754 404.899 194.251C404.517 194.748 404.325 195.459 404.325 196.384ZM411.322 196.24C411.322 195.087 411.589 194.171 412.122 193.492C412.655 192.809 413.362 192.467 414.241 192.467C415.144 192.467 415.848 192.786 416.354 193.424L416.415 192.604H417.57V199.822C417.57 200.779 417.285 201.534 416.716 202.085C416.151 202.636 415.39 202.912 414.433 202.912C413.899 202.912 413.378 202.798 412.867 202.57C412.357 202.342 411.967 202.03 411.698 201.634L412.354 200.875C412.897 201.545 413.56 201.88 414.344 201.88C414.959 201.88 415.438 201.707 415.779 201.36C416.126 201.014 416.299 200.526 416.299 199.897V199.262C415.793 199.845 415.103 200.137 414.228 200.137C413.362 200.137 412.66 199.788 412.122 199.091C411.589 198.394 411.322 197.443 411.322 196.24ZM412.594 196.384C412.594 197.218 412.765 197.874 413.106 198.353C413.448 198.826 413.927 199.063 414.542 199.063C415.34 199.063 415.925 198.701 416.299 197.977V194.6C415.911 193.893 415.33 193.54 414.556 193.54C413.94 193.54 413.46 193.779 413.113 194.258C412.767 194.736 412.594 195.445 412.594 196.384ZM424.831 200H423.566V192.604H424.831V200ZM423.464 190.642C423.464 190.437 423.525 190.263 423.648 190.122C423.776 189.981 423.963 189.91 424.209 189.91C424.455 189.91 424.642 189.981 424.77 190.122C424.897 190.263 424.961 190.437 424.961 190.642C424.961 190.847 424.897 191.018 424.77 191.154C424.642 191.291 424.455 191.359 424.209 191.359C423.963 191.359 423.776 191.291 423.648 191.154C423.525 191.018 423.464 190.847 423.464 190.642ZM431.418 198.038C431.418 197.696 431.288 197.432 431.028 197.245C430.773 197.054 430.324 196.89 429.682 196.753C429.044 196.616 428.535 196.452 428.157 196.261C427.784 196.069 427.506 195.841 427.323 195.577C427.146 195.313 427.057 194.998 427.057 194.634C427.057 194.028 427.312 193.515 427.822 193.096C428.337 192.676 428.993 192.467 429.791 192.467C430.63 192.467 431.309 192.683 431.828 193.116C432.352 193.549 432.614 194.103 432.614 194.777H431.343C431.343 194.431 431.195 194.132 430.898 193.882C430.607 193.631 430.238 193.506 429.791 193.506C429.331 193.506 428.971 193.606 428.711 193.807C428.451 194.007 428.321 194.269 428.321 194.593C428.321 194.898 428.442 195.128 428.684 195.283C428.925 195.438 429.36 195.586 429.989 195.728C430.623 195.869 431.135 196.037 431.527 196.233C431.919 196.429 432.209 196.666 432.396 196.944C432.587 197.218 432.683 197.553 432.683 197.949C432.683 198.61 432.418 199.141 431.89 199.542C431.361 199.938 430.675 200.137 429.832 200.137C429.24 200.137 428.715 200.032 428.26 199.822C427.804 199.613 427.446 199.321 427.187 198.947C426.931 198.569 426.804 198.161 426.804 197.724H428.068C428.091 198.147 428.26 198.485 428.574 198.735C428.893 198.981 429.312 199.104 429.832 199.104C430.311 199.104 430.693 199.009 430.98 198.817C431.272 198.621 431.418 198.362 431.418 198.038ZM442.869 200C442.796 199.854 442.737 199.594 442.691 199.221C442.104 199.831 441.402 200.137 440.586 200.137C439.857 200.137 439.257 199.932 438.788 199.521C438.323 199.107 438.091 198.583 438.091 197.949C438.091 197.179 438.382 196.582 438.966 196.158C439.554 195.73 440.379 195.516 441.44 195.516H442.671V194.935C442.671 194.493 442.539 194.142 442.274 193.882C442.01 193.618 441.62 193.485 441.105 193.485C440.654 193.485 440.276 193.599 439.971 193.827C439.665 194.055 439.513 194.331 439.513 194.654H438.241C438.241 194.285 438.371 193.93 438.631 193.588C438.895 193.242 439.251 192.968 439.697 192.768C440.148 192.567 440.643 192.467 441.181 192.467C442.033 192.467 442.701 192.681 443.184 193.109C443.667 193.533 443.917 194.119 443.936 194.866V198.271C443.936 198.95 444.022 199.49 444.195 199.891V200H442.869ZM440.771 199.036C441.167 199.036 441.543 198.934 441.898 198.729C442.254 198.523 442.511 198.257 442.671 197.929V196.411H441.68C440.13 196.411 439.355 196.865 439.355 197.771C439.355 198.168 439.488 198.478 439.752 198.701C440.016 198.924 440.356 199.036 440.771 199.036ZM451.606 190.812V192.604H452.987V193.581H451.606V198.168C451.606 198.464 451.668 198.688 451.791 198.838C451.914 198.984 452.124 199.057 452.42 199.057C452.566 199.057 452.766 199.029 453.021 198.975V200C452.689 200.091 452.365 200.137 452.051 200.137C451.486 200.137 451.06 199.966 450.772 199.624C450.485 199.282 450.342 198.797 450.342 198.168V193.581H448.995V192.604H450.342V190.812H451.606ZM457.141 198.147L458.863 192.604H460.217L457.243 201.142C456.783 202.372 456.051 202.987 455.049 202.987L454.81 202.967L454.338 202.878V201.853L454.68 201.88C455.108 201.88 455.441 201.793 455.678 201.62C455.919 201.447 456.118 201.13 456.272 200.67L456.553 199.918L453.914 192.604H455.295L457.141 198.147ZM467.85 196.384C467.85 197.509 467.592 198.416 467.077 199.104C466.562 199.793 465.865 200.137 464.985 200.137C464.088 200.137 463.381 199.852 462.866 199.282V202.844H461.602V192.604H462.757L462.818 193.424C463.333 192.786 464.049 192.467 464.965 192.467C465.854 192.467 466.555 192.802 467.07 193.472C467.59 194.142 467.85 195.074 467.85 196.268V196.384ZM466.585 196.24C466.585 195.406 466.407 194.748 466.052 194.265C465.696 193.782 465.209 193.54 464.589 193.54C463.823 193.54 463.249 193.88 462.866 194.559V198.093C463.244 198.767 463.823 199.104 464.603 199.104C465.209 199.104 465.689 198.865 466.045 198.387C466.405 197.904 466.585 197.188 466.585 196.24ZM472.782 200.137C471.78 200.137 470.964 199.809 470.335 199.152C469.706 198.492 469.392 197.61 469.392 196.507V196.274C469.392 195.541 469.531 194.887 469.809 194.312C470.091 193.734 470.483 193.283 470.984 192.959C471.49 192.631 472.037 192.467 472.625 192.467C473.587 192.467 474.334 192.784 474.867 193.417C475.4 194.05 475.667 194.957 475.667 196.138V196.664H470.656C470.674 197.393 470.886 197.983 471.292 198.435C471.702 198.881 472.222 199.104 472.851 199.104C473.297 199.104 473.675 199.013 473.985 198.831C474.295 198.649 474.566 198.407 474.799 198.106L475.571 198.708C474.951 199.66 474.022 200.137 472.782 200.137ZM472.625 193.506C472.115 193.506 471.686 193.693 471.34 194.066C470.993 194.436 470.779 194.955 470.697 195.625H474.402V195.529C474.366 194.887 474.193 194.39 473.883 194.039C473.573 193.684 473.154 193.506 472.625 193.506ZM480.774 196.233C480.774 195.509 480.916 194.857 481.198 194.278C481.485 193.7 481.882 193.253 482.388 192.938C482.898 192.624 483.479 192.467 484.131 192.467C485.138 192.467 485.951 192.815 486.571 193.513C487.196 194.21 487.508 195.137 487.508 196.295V196.384C487.508 197.104 487.369 197.751 487.091 198.325C486.817 198.895 486.423 199.339 485.908 199.658C485.398 199.977 484.81 200.137 484.145 200.137C483.142 200.137 482.328 199.788 481.704 199.091C481.084 198.394 480.774 197.471 480.774 196.322V196.233ZM482.046 196.384C482.046 197.204 482.235 197.863 482.613 198.359C482.996 198.856 483.507 199.104 484.145 199.104C484.787 199.104 485.298 198.854 485.676 198.353C486.054 197.847 486.243 197.14 486.243 196.233C486.243 195.422 486.049 194.766 485.662 194.265C485.279 193.759 484.769 193.506 484.131 193.506C483.507 193.506 483.003 193.754 482.62 194.251C482.237 194.748 482.046 195.459 482.046 196.384ZM489.966 200V193.581H488.797V192.604H489.966V191.845C489.966 191.052 490.178 190.439 490.602 190.006C491.025 189.573 491.625 189.356 492.399 189.356C492.691 189.356 492.98 189.395 493.268 189.473L493.199 190.498C492.985 190.457 492.757 190.437 492.516 190.437C492.105 190.437 491.789 190.557 491.565 190.799C491.342 191.036 491.23 191.378 491.23 191.824V192.604H492.81V193.581H491.23V200H489.966ZM499.373 192.604L499.407 193.424C499.95 192.786 500.681 192.467 501.602 192.467C502.636 192.467 503.34 192.863 503.714 193.656C503.96 193.301 504.279 193.014 504.671 192.795C505.067 192.576 505.535 192.467 506.072 192.467C507.695 192.467 508.52 193.326 508.547 195.044V200H507.282V195.119C507.282 194.59 507.161 194.196 506.92 193.937C506.678 193.672 506.273 193.54 505.703 193.54C505.234 193.54 504.844 193.681 504.534 193.964C504.224 194.242 504.044 194.618 503.994 195.092V200H502.723V195.153C502.723 194.078 502.196 193.54 501.144 193.54C500.314 193.54 499.747 193.893 499.441 194.6V200H498.177V192.604H499.373ZM510.376 196.233C510.376 195.509 510.517 194.857 510.8 194.278C511.087 193.7 511.483 193.253 511.989 192.938C512.5 192.624 513.081 192.467 513.732 192.467C514.74 192.467 515.553 192.815 516.173 193.513C516.797 194.21 517.109 195.137 517.109 196.295V196.384C517.109 197.104 516.97 197.751 516.692 198.325C516.419 198.895 516.025 199.339 515.51 199.658C514.999 199.977 514.411 200.137 513.746 200.137C512.743 200.137 511.93 199.788 511.306 199.091C510.686 198.394 510.376 197.471 510.376 196.322V196.233ZM511.647 196.384C511.647 197.204 511.837 197.863 512.215 198.359C512.598 198.856 513.108 199.104 513.746 199.104C514.389 199.104 514.899 198.854 515.277 198.353C515.656 197.847 515.845 197.14 515.845 196.233C515.845 195.422 515.651 194.766 515.264 194.265C514.881 193.759 514.37 193.506 513.732 193.506C513.108 193.506 512.604 193.754 512.222 194.251C511.839 194.748 511.647 195.459 511.647 196.384ZM518.638 196.24C518.638 195.105 518.907 194.194 519.444 193.506C519.982 192.813 520.686 192.467 521.557 192.467C522.423 192.467 523.108 192.763 523.614 193.355V189.5H524.879V200H523.717L523.655 199.207C523.149 199.827 522.445 200.137 521.543 200.137C520.686 200.137 519.987 199.786 519.444 199.084C518.907 198.382 518.638 197.466 518.638 196.336V196.24ZM519.902 196.384C519.902 197.222 520.076 197.879 520.422 198.353C520.768 198.826 521.247 199.063 521.857 199.063C522.66 199.063 523.245 198.703 523.614 197.983V194.586C523.236 193.889 522.655 193.54 521.871 193.54C521.251 193.54 520.768 193.779 520.422 194.258C520.076 194.736 519.902 195.445 519.902 196.384ZM531.664 200C531.591 199.854 531.532 199.594 531.486 199.221C530.898 199.831 530.197 200.137 529.381 200.137C528.652 200.137 528.052 199.932 527.583 199.521C527.118 199.107 526.886 198.583 526.886 197.949C526.886 197.179 527.177 196.582 527.761 196.158C528.349 195.73 529.174 195.516 530.235 195.516H531.466V194.935C531.466 194.493 531.334 194.142 531.069 193.882C530.805 193.618 530.415 193.485 529.9 193.485C529.449 193.485 529.071 193.599 528.766 193.827C528.46 194.055 528.308 194.331 528.308 194.654H527.036C527.036 194.285 527.166 193.93 527.426 193.588C527.69 193.242 528.046 192.968 528.492 192.768C528.943 192.567 529.438 192.467 529.976 192.467C530.828 192.467 531.495 192.681 531.979 193.109C532.462 193.533 532.712 194.119 532.73 194.866V198.271C532.73 198.95 532.817 199.49 532.99 199.891V200H531.664ZM529.565 199.036C529.962 199.036 530.338 198.934 530.693 198.729C531.049 198.523 531.306 198.257 531.466 197.929V196.411H530.475C528.925 196.411 528.15 196.865 528.15 197.771C528.15 198.168 528.283 198.478 528.547 198.701C528.811 198.924 529.151 199.036 529.565 199.036ZM536.337 200H535.072V189.5H536.337V200ZM548.889 198.257L550.311 192.604H551.575L549.422 200H548.396L546.599 194.395L544.849 200H543.823L541.677 192.604H542.935L544.391 198.141L546.113 192.604H547.132L548.889 198.257ZM554.491 200H553.227V192.604H554.491V200ZM553.124 190.642C553.124 190.437 553.186 190.263 553.309 190.122C553.436 189.981 553.623 189.91 553.869 189.91C554.115 189.91 554.302 189.981 554.43 190.122C554.557 190.263 554.621 190.437 554.621 190.642C554.621 190.847 554.557 191.018 554.43 191.154C554.302 191.291 554.115 191.359 553.869 191.359C553.623 191.359 553.436 191.291 553.309 191.154C553.186 191.018 553.124 190.847 553.124 190.642ZM557.968 192.604L558.009 193.533C558.574 192.822 559.312 192.467 560.224 192.467C561.787 192.467 562.575 193.349 562.589 195.112V200H561.324V195.105C561.32 194.572 561.197 194.178 560.955 193.923C560.718 193.668 560.347 193.54 559.841 193.54C559.431 193.54 559.071 193.649 558.761 193.868C558.451 194.087 558.209 194.374 558.036 194.729V200H556.771V192.604H557.968ZM564.438 196.24C564.438 195.105 564.707 194.194 565.245 193.506C565.783 192.813 566.487 192.467 567.357 192.467C568.223 192.467 568.909 192.763 569.415 193.355V189.5H570.68V200H569.518L569.456 199.207C568.95 199.827 568.246 200.137 567.344 200.137C566.487 200.137 565.787 199.786 565.245 199.084C564.707 198.382 564.438 197.466 564.438 196.336V196.24ZM565.703 196.384C565.703 197.222 565.876 197.879 566.223 198.353C566.569 198.826 567.048 199.063 567.658 199.063C568.46 199.063 569.046 198.703 569.415 197.983V194.586C569.037 193.889 568.456 193.54 567.672 193.54C567.052 193.54 566.569 193.779 566.223 194.258C565.876 194.736 565.703 195.445 565.703 196.384ZM572.563 196.233C572.563 195.509 572.705 194.857 572.987 194.278C573.274 193.7 573.671 193.253 574.177 192.938C574.687 192.624 575.268 192.467 575.92 192.467C576.927 192.467 577.741 192.815 578.36 193.513C578.985 194.21 579.297 195.137 579.297 196.295V196.384C579.297 197.104 579.158 197.751 578.88 198.325C578.606 198.895 578.212 199.339 577.697 199.658C577.187 199.977 576.599 200.137 575.934 200.137C574.931 200.137 574.118 199.788 573.493 199.091C572.873 198.394 572.563 197.471 572.563 196.322V196.233ZM573.835 196.384C573.835 197.204 574.024 197.863 574.402 198.359C574.785 198.856 575.296 199.104 575.934 199.104C576.576 199.104 577.087 198.854 577.465 198.353C577.843 197.847 578.032 197.14 578.032 196.233C578.032 195.422 577.839 194.766 577.451 194.265C577.068 193.759 576.558 193.506 575.92 193.506C575.296 193.506 574.792 193.754 574.409 194.251C574.026 194.748 573.835 195.459 573.835 196.384ZM587.682 198.257L589.104 192.604H590.368L588.215 200H587.189L585.392 194.395L583.642 200H582.616L580.47 192.604H581.728L583.184 198.141L584.906 192.604H585.925L587.682 198.257ZM597.349 190.812V192.604H598.729V193.581H597.349V198.168C597.349 198.464 597.41 198.688 597.533 198.838C597.656 198.984 597.866 199.057 598.162 199.057C598.308 199.057 598.508 199.029 598.764 198.975V200C598.431 200.091 598.107 200.137 597.793 200.137C597.228 200.137 596.802 199.966 596.515 199.624C596.228 199.282 596.084 198.797 596.084 198.168V193.581H594.737V192.604H596.084V190.812H597.349ZM601.728 193.499C602.288 192.811 603.017 192.467 603.915 192.467C605.478 192.467 606.267 193.349 606.28 195.112V200H605.016V195.105C605.011 194.572 604.888 194.178 604.646 193.923C604.41 193.668 604.038 193.54 603.532 193.54C603.122 193.54 602.762 193.649 602.452 193.868C602.142 194.087 601.901 194.374 601.728 194.729V200H600.463V189.5H601.728V193.499ZM612.99 200C612.917 199.854 612.858 199.594 612.812 199.221C612.225 199.831 611.523 200.137 610.707 200.137C609.978 200.137 609.379 199.932 608.909 199.521C608.444 199.107 608.212 198.583 608.212 197.949C608.212 197.179 608.504 196.582 609.087 196.158C609.675 195.73 610.5 195.516 611.562 195.516H612.792V194.935C612.792 194.493 612.66 194.142 612.396 193.882C612.131 193.618 611.742 193.485 611.227 193.485C610.775 193.485 610.397 193.599 610.092 193.827C609.786 194.055 609.634 194.331 609.634 194.654H608.362C608.362 194.285 608.492 193.93 608.752 193.588C609.016 193.242 609.372 192.968 609.818 192.768C610.27 192.567 610.764 192.467 611.302 192.467C612.154 192.467 612.822 192.681 613.305 193.109C613.788 193.533 614.038 194.119 614.057 194.866V198.271C614.057 198.95 614.143 199.49 614.316 199.891V200H612.99ZM610.892 199.036C611.288 199.036 611.664 198.934 612.02 198.729C612.375 198.523 612.632 198.257 612.792 197.929V196.411H611.801C610.251 196.411 609.477 196.865 609.477 197.771C609.477 198.168 609.609 198.478 609.873 198.701C610.137 198.924 610.477 199.036 610.892 199.036ZM618.005 190.812V192.604H619.386V193.581H618.005V198.168C618.005 198.464 618.066 198.688 618.189 198.838C618.312 198.984 618.522 199.057 618.818 199.057C618.964 199.057 619.165 199.029 619.42 198.975V200C619.087 200.091 618.764 200.137 618.449 200.137C617.884 200.137 617.458 199.966 617.171 199.624C616.884 199.282 616.74 198.797 616.74 198.168V193.581H615.394V192.604H616.74V190.812H618.005ZM371.523 220C371.451 219.854 371.391 219.594 371.346 219.221C370.758 219.831 370.056 220.137 369.24 220.137C368.511 220.137 367.912 219.932 367.442 219.521C366.978 219.107 366.745 218.583 366.745 217.949C366.745 217.179 367.037 216.582 367.62 216.158C368.208 215.73 369.033 215.516 370.095 215.516H371.325V214.935C371.325 214.493 371.193 214.142 370.929 213.882C370.664 213.618 370.275 213.485 369.76 213.485C369.309 213.485 368.93 213.599 368.625 213.827C368.32 214.055 368.167 214.331 368.167 214.654H366.896C366.896 214.285 367.025 213.93 367.285 213.588C367.549 213.242 367.905 212.968 368.352 212.768C368.803 212.567 369.297 212.467 369.835 212.467C370.687 212.467 371.355 212.681 371.838 213.109C372.321 213.533 372.572 214.119 372.59 214.866V218.271C372.59 218.95 372.676 219.49 372.85 219.891V220H371.523ZM369.425 219.036C369.821 219.036 370.197 218.934 370.553 218.729C370.908 218.523 371.166 218.257 371.325 217.929V216.411H370.334C368.785 216.411 368.01 216.865 368.01 217.771C368.01 218.168 368.142 218.478 368.406 218.701C368.671 218.924 369.01 219.036 369.425 219.036ZM381.07 216.384C381.07 217.509 380.813 218.416 380.298 219.104C379.783 219.793 379.086 220.137 378.206 220.137C377.308 220.137 376.602 219.852 376.087 219.282V222.844H374.822V212.604H375.978L376.039 213.424C376.554 212.786 377.27 212.467 378.186 212.467C379.074 212.467 379.776 212.802 380.291 213.472C380.811 214.142 381.07 215.074 381.07 216.268V216.384ZM379.806 216.24C379.806 215.406 379.628 214.748 379.272 214.265C378.917 213.782 378.429 213.54 377.81 213.54C377.044 213.54 376.47 213.88 376.087 214.559V218.093C376.465 218.767 377.044 219.104 377.823 219.104C378.429 219.104 378.91 218.865 379.266 218.387C379.626 217.904 379.806 217.188 379.806 216.24ZM389.182 216.384C389.182 217.509 388.924 218.416 388.409 219.104C387.894 219.793 387.197 220.137 386.317 220.137C385.42 220.137 384.713 219.852 384.198 219.282V222.844H382.934V212.604H384.089L384.15 213.424C384.665 212.786 385.381 212.467 386.297 212.467C387.186 212.467 387.887 212.802 388.402 213.472C388.922 214.142 389.182 215.074 389.182 216.268V216.384ZM387.917 216.24C387.917 215.406 387.739 214.748 387.384 214.265C387.028 213.782 386.541 213.54 385.921 213.54C385.155 213.54 384.581 213.88 384.198 214.559V218.093C384.576 218.767 385.155 219.104 385.935 219.104C386.541 219.104 387.021 218.865 387.377 218.387C387.737 217.904 387.917 217.188 387.917 216.24ZM394.114 220.137C393.112 220.137 392.296 219.809 391.667 219.152C391.038 218.492 390.724 217.61 390.724 216.507V216.274C390.724 215.541 390.863 214.887 391.141 214.312C391.423 213.734 391.815 213.283 392.316 212.959C392.822 212.631 393.369 212.467 393.957 212.467C394.919 212.467 395.666 212.784 396.199 213.417C396.732 214.05 396.999 214.957 396.999 216.138V216.664H391.988C392.007 217.393 392.218 217.983 392.624 218.435C393.034 218.881 393.554 219.104 394.183 219.104C394.629 219.104 395.007 219.013 395.317 218.831C395.627 218.649 395.898 218.407 396.131 218.106L396.903 218.708C396.284 219.66 395.354 220.137 394.114 220.137ZM393.957 213.506C393.447 213.506 393.018 213.693 392.672 214.066C392.326 214.436 392.111 214.955 392.029 215.625H395.734V215.529C395.698 214.887 395.525 214.39 395.215 214.039C394.905 213.684 394.486 213.506 393.957 213.506ZM403.285 220C403.212 219.854 403.153 219.594 403.107 219.221C402.52 219.831 401.818 220.137 401.002 220.137C400.273 220.137 399.674 219.932 399.204 219.521C398.739 219.107 398.507 218.583 398.507 217.949C398.507 217.179 398.799 216.582 399.382 216.158C399.97 215.73 400.795 215.516 401.856 215.516H403.087V214.935C403.087 214.493 402.955 214.142 402.69 213.882C402.426 213.618 402.036 213.485 401.521 213.485C401.07 213.485 400.692 213.599 400.387 213.827C400.081 214.055 399.929 214.331 399.929 214.654H398.657C398.657 214.285 398.787 213.93 399.047 213.588C399.311 213.242 399.667 212.968 400.113 212.768C400.564 212.567 401.059 212.467 401.597 212.467C402.449 212.467 403.117 212.681 403.6 213.109C404.083 213.533 404.333 214.119 404.352 214.866V218.271C404.352 218.95 404.438 219.49 404.611 219.891V220H403.285ZM401.187 219.036C401.583 219.036 401.959 218.934 402.314 218.729C402.67 218.523 402.927 218.257 403.087 217.929V216.411H402.096C400.546 216.411 399.771 216.865 399.771 217.771C399.771 218.168 399.904 218.478 400.168 218.701C400.432 218.924 400.772 219.036 401.187 219.036ZM410.159 213.738C409.968 213.706 409.76 213.69 409.537 213.69C408.708 213.69 408.145 214.044 407.849 214.75V220H406.584V212.604H407.814L407.835 213.458C408.25 212.797 408.838 212.467 409.599 212.467C409.845 212.467 410.032 212.499 410.159 212.562V213.738ZM415.885 218.038C415.885 217.696 415.755 217.432 415.495 217.245C415.24 217.054 414.791 216.89 414.148 216.753C413.51 216.616 413.002 216.452 412.624 216.261C412.25 216.069 411.972 215.841 411.79 215.577C411.612 215.313 411.523 214.998 411.523 214.634C411.523 214.028 411.779 213.515 412.289 213.096C412.804 212.676 413.46 212.467 414.258 212.467C415.096 212.467 415.775 212.683 416.295 213.116C416.819 213.549 417.081 214.103 417.081 214.777H415.81C415.81 214.431 415.661 214.132 415.365 213.882C415.074 213.631 414.704 213.506 414.258 213.506C413.798 213.506 413.438 213.606 413.178 213.807C412.918 214.007 412.788 214.269 412.788 214.593C412.788 214.898 412.909 215.128 413.15 215.283C413.392 215.438 413.827 215.586 414.456 215.728C415.09 215.869 415.602 216.037 415.994 216.233C416.386 216.429 416.675 216.666 416.862 216.944C417.054 217.218 417.149 217.553 417.149 217.949C417.149 218.61 416.885 219.141 416.356 219.542C415.828 219.938 415.142 220.137 414.299 220.137C413.706 220.137 413.182 220.032 412.727 219.822C412.271 219.613 411.913 219.321 411.653 218.947C411.398 218.569 411.271 218.161 411.271 217.724H412.535C412.558 218.147 412.727 218.485 413.041 218.735C413.36 218.981 413.779 219.104 414.299 219.104C414.777 219.104 415.16 219.009 415.447 218.817C415.739 218.621 415.885 218.362 415.885 218.038ZM424.144 220H422.879V212.604H424.144V220ZM422.776 210.642C422.776 210.437 422.838 210.263 422.961 210.122C423.089 209.981 423.275 209.91 423.521 209.91C423.768 209.91 423.954 209.981 424.082 210.122C424.21 210.263 424.273 210.437 424.273 210.642C424.273 210.847 424.21 211.018 424.082 211.154C423.954 211.291 423.768 211.359 423.521 211.359C423.275 211.359 423.089 211.291 422.961 211.154C422.838 211.018 422.776 210.847 422.776 210.642ZM427.62 212.604L427.661 213.533C428.226 212.822 428.965 212.467 429.876 212.467C431.439 212.467 432.228 213.349 432.241 215.112V220H430.977V215.105C430.972 214.572 430.849 214.178 430.607 213.923C430.37 213.668 429.999 213.54 429.493 213.54C429.083 213.54 428.723 213.649 428.413 213.868C428.103 214.087 427.862 214.374 427.688 214.729V220H426.424V212.604H427.62ZM438.743 220V213.581H437.574V212.604H438.743V211.845C438.743 211.052 438.955 210.439 439.379 210.006C439.803 209.573 440.402 209.356 441.177 209.356C441.468 209.356 441.758 209.395 442.045 209.473L441.977 210.498C441.762 210.457 441.535 210.437 441.293 210.437C440.883 210.437 440.566 210.557 440.343 210.799C440.119 211.036 440.008 211.378 440.008 211.824V212.604H441.587V213.581H440.008V220H438.743ZM446.813 213.738C446.622 213.706 446.415 213.69 446.191 213.69C445.362 213.69 444.799 214.044 444.503 214.75V220H443.238V212.604H444.469L444.489 213.458C444.904 212.797 445.492 212.467 446.253 212.467C446.499 212.467 446.686 212.499 446.813 212.562V213.738ZM447.761 216.233C447.761 215.509 447.902 214.857 448.185 214.278C448.472 213.7 448.868 213.253 449.374 212.938C449.884 212.624 450.465 212.467 451.117 212.467C452.124 212.467 452.938 212.815 453.558 213.513C454.182 214.21 454.494 215.137 454.494 216.295V216.384C454.494 217.104 454.355 217.751 454.077 218.325C453.804 218.895 453.41 219.339 452.895 219.658C452.384 219.977 451.796 220.137 451.131 220.137C450.128 220.137 449.315 219.788 448.69 219.091C448.071 218.394 447.761 217.471 447.761 216.322V216.233ZM449.032 216.384C449.032 217.204 449.221 217.863 449.6 218.359C449.982 218.856 450.493 219.104 451.131 219.104C451.773 219.104 452.284 218.854 452.662 218.353C453.04 217.847 453.229 217.14 453.229 216.233C453.229 215.422 453.036 214.766 452.648 214.265C452.266 213.759 451.755 213.506 451.117 213.506C450.493 213.506 449.989 213.754 449.606 214.251C449.224 214.748 449.032 215.459 449.032 216.384ZM457.526 212.604L457.567 213.533C458.132 212.822 458.871 212.467 459.782 212.467C461.345 212.467 462.134 213.349 462.147 215.112V220H460.883V215.105C460.878 214.572 460.755 214.178 460.514 213.923C460.277 213.668 459.905 213.54 459.399 213.54C458.989 213.54 458.629 213.649 458.319 213.868C458.009 214.087 457.768 214.374 457.595 214.729V220H456.33V212.604H457.526ZM466.021 210.812V212.604H467.401V213.581H466.021V218.168C466.021 218.464 466.082 218.688 466.205 218.838C466.328 218.984 466.538 219.057 466.834 219.057C466.98 219.057 467.18 219.029 467.436 218.975V220C467.103 220.091 466.779 220.137 466.465 220.137C465.9 220.137 465.474 219.966 465.187 219.624C464.899 219.282 464.756 218.797 464.756 218.168V213.581H463.409V212.604H464.756V210.812H466.021ZM472.522 216.233C472.522 215.509 472.664 214.857 472.946 214.278C473.233 213.7 473.63 213.253 474.136 212.938C474.646 212.624 475.227 212.467 475.879 212.467C476.886 212.467 477.7 212.815 478.319 213.513C478.944 214.21 479.256 215.137 479.256 216.295V216.384C479.256 217.104 479.117 217.751 478.839 218.325C478.565 218.895 478.171 219.339 477.656 219.658C477.146 219.977 476.558 220.137 475.893 220.137C474.89 220.137 474.076 219.788 473.452 219.091C472.832 218.394 472.522 217.471 472.522 216.322V216.233ZM473.794 216.384C473.794 217.204 473.983 217.863 474.361 218.359C474.744 218.856 475.255 219.104 475.893 219.104C476.535 219.104 477.046 218.854 477.424 218.353C477.802 217.847 477.991 217.14 477.991 216.233C477.991 215.422 477.798 214.766 477.41 214.265C477.027 213.759 476.517 213.506 475.879 213.506C475.255 213.506 474.751 213.754 474.368 214.251C473.985 214.748 473.794 215.459 473.794 216.384ZM481.714 220V213.581H480.545V212.604H481.714V211.845C481.714 211.052 481.926 210.439 482.35 210.006C482.773 209.573 483.373 209.356 484.147 209.356C484.439 209.356 484.729 209.395 485.016 209.473L484.947 210.498C484.733 210.457 484.505 210.437 484.264 210.437C483.854 210.437 483.537 210.557 483.313 210.799C483.09 211.036 482.979 211.378 482.979 211.824V212.604H484.558V213.581H482.979V220H481.714ZM494.498 220C494.425 219.854 494.366 219.594 494.32 219.221C493.732 219.831 493.031 220.137 492.215 220.137C491.486 220.137 490.886 219.932 490.417 219.521C489.952 219.107 489.72 218.583 489.72 217.949C489.72 217.179 490.011 216.582 490.595 216.158C491.183 215.73 492.007 215.516 493.069 215.516H494.3V214.935C494.3 214.493 494.168 214.142 493.903 213.882C493.639 213.618 493.249 213.485 492.734 213.485C492.283 213.485 491.905 213.599 491.6 213.827C491.294 214.055 491.142 214.331 491.142 214.654H489.87C489.87 214.285 490 213.93 490.26 213.588C490.524 213.242 490.88 212.968 491.326 212.768C491.777 212.567 492.272 212.467 492.81 212.467C493.662 212.467 494.329 212.681 494.812 213.109C495.296 213.533 495.546 214.119 495.564 214.866V218.271C495.564 218.95 495.651 219.49 495.824 219.891V220H494.498ZM492.399 219.036C492.796 219.036 493.172 218.934 493.527 218.729C493.883 218.523 494.14 218.257 494.3 217.929V216.411H493.309C491.759 216.411 490.984 216.865 490.984 217.771C490.984 218.168 491.117 218.478 491.381 218.701C491.645 218.924 491.985 219.036 492.399 219.036ZM504.045 216.384C504.045 217.509 503.787 218.416 503.272 219.104C502.757 219.793 502.06 220.137 501.181 220.137C500.283 220.137 499.576 219.852 499.062 219.282V222.844H497.797V212.604H498.952L499.014 213.424C499.529 212.786 500.244 212.467 501.16 212.467C502.049 212.467 502.751 212.802 503.266 213.472C503.785 214.142 504.045 215.074 504.045 216.268V216.384ZM502.78 216.24C502.78 215.406 502.603 214.748 502.247 214.265C501.892 213.782 501.404 213.54 500.784 213.54C500.019 213.54 499.444 213.88 499.062 214.559V218.093C499.44 218.767 500.019 219.104 500.798 219.104C501.404 219.104 501.885 218.865 502.24 218.387C502.6 217.904 502.78 217.188 502.78 216.24ZM512.156 216.384C512.156 217.509 511.899 218.416 511.384 219.104C510.869 219.793 510.172 220.137 509.292 220.137C508.394 220.137 507.688 219.852 507.173 219.282V222.844H505.908V212.604H507.063L507.125 213.424C507.64 212.786 508.355 212.467 509.271 212.467C510.16 212.467 510.862 212.802 511.377 213.472C511.896 214.142 512.156 215.074 512.156 216.268V216.384ZM510.892 216.24C510.892 215.406 510.714 214.748 510.358 214.265C510.003 213.782 509.515 213.54 508.896 213.54C508.13 213.54 507.556 213.88 507.173 214.559V218.093C507.551 218.767 508.13 219.104 508.909 219.104C509.515 219.104 509.996 218.865 510.352 218.387C510.712 217.904 510.892 217.188 510.892 216.24ZM520.709 219.104C521.16 219.104 521.554 218.968 521.892 218.694C522.229 218.421 522.416 218.079 522.452 217.669H523.648C523.626 218.093 523.48 218.496 523.211 218.879C522.942 219.262 522.582 219.567 522.131 219.795C521.684 220.023 521.21 220.137 520.709 220.137C519.702 220.137 518.9 219.802 518.303 219.132C517.71 218.457 517.414 217.537 517.414 216.37V216.158C517.414 215.438 517.546 214.798 517.811 214.237C518.075 213.677 518.453 213.242 518.945 212.932C519.442 212.622 520.028 212.467 520.702 212.467C521.532 212.467 522.22 212.715 522.767 213.212C523.318 213.709 523.612 214.354 523.648 215.146H522.452C522.416 214.668 522.233 214.276 521.905 213.971C521.582 213.661 521.181 213.506 520.702 213.506C520.06 213.506 519.561 213.738 519.205 214.203C518.854 214.663 518.679 215.331 518.679 216.206V216.445C518.679 217.298 518.854 217.954 519.205 218.414C519.556 218.874 520.057 219.104 520.709 219.104ZM524.985 216.233C524.985 215.509 525.127 214.857 525.409 214.278C525.696 213.7 526.093 213.253 526.599 212.938C527.109 212.624 527.69 212.467 528.342 212.467C529.349 212.467 530.162 212.815 530.782 213.513C531.407 214.21 531.719 215.137 531.719 216.295V216.384C531.719 217.104 531.58 217.751 531.302 218.325C531.028 218.895 530.634 219.339 530.119 219.658C529.609 219.977 529.021 220.137 528.355 220.137C527.353 220.137 526.539 219.788 525.915 219.091C525.295 218.394 524.985 217.471 524.985 216.322V216.233ZM526.257 216.384C526.257 217.204 526.446 217.863 526.824 218.359C527.207 218.856 527.717 219.104 528.355 219.104C528.998 219.104 529.508 218.854 529.887 218.353C530.265 217.847 530.454 217.14 530.454 216.233C530.454 215.422 530.26 214.766 529.873 214.265C529.49 213.759 528.98 213.506 528.342 213.506C527.717 213.506 527.214 213.754 526.831 214.251C526.448 214.748 526.257 215.459 526.257 216.384ZM534.751 212.604L534.792 213.533C535.357 212.822 536.095 212.467 537.007 212.467C538.57 212.467 539.358 213.349 539.372 215.112V220H538.107V215.105C538.103 214.572 537.98 214.178 537.738 213.923C537.501 213.668 537.13 213.54 536.624 213.54C536.214 213.54 535.854 213.649 535.544 213.868C535.234 214.087 534.993 214.374 534.819 214.729V220H533.555V212.604H534.751ZM543.245 210.812V212.604H544.626V213.581H543.245V218.168C543.245 218.464 543.307 218.688 543.43 218.838C543.553 218.984 543.762 219.057 544.059 219.057C544.204 219.057 544.405 219.029 544.66 218.975V220C544.327 220.091 544.004 220.137 543.689 220.137C543.124 220.137 542.698 219.966 542.411 219.624C542.124 219.282 541.98 218.797 541.98 218.168V213.581H540.634V212.604H541.98V210.812H543.245ZM549.429 220.137C548.426 220.137 547.61 219.809 546.981 219.152C546.353 218.492 546.038 217.61 546.038 216.507V216.274C546.038 215.541 546.177 214.887 546.455 214.312C546.738 213.734 547.13 213.283 547.631 212.959C548.137 212.631 548.684 212.467 549.271 212.467C550.233 212.467 550.98 212.784 551.514 213.417C552.047 214.05 552.313 214.957 552.313 216.138V216.664H547.303C547.321 217.393 547.533 217.983 547.938 218.435C548.349 218.881 548.868 219.104 549.497 219.104C549.944 219.104 550.322 219.013 550.632 218.831C550.942 218.649 551.213 218.407 551.445 218.106L552.218 218.708C551.598 219.66 550.668 220.137 549.429 220.137ZM549.271 213.506C548.761 213.506 548.333 213.693 547.986 214.066C547.64 214.436 547.426 214.955 547.344 215.625H551.049V215.529C551.012 214.887 550.839 214.39 550.529 214.039C550.219 213.684 549.8 213.506 549.271 213.506ZM555.229 212.604L555.271 213.533C555.836 212.822 556.574 212.467 557.485 212.467C559.049 212.467 559.837 213.349 559.851 215.112V220H558.586V215.105C558.581 214.572 558.458 214.178 558.217 213.923C557.98 213.668 557.608 213.54 557.103 213.54C556.692 213.54 556.332 213.649 556.022 213.868C555.713 214.087 555.471 214.374 555.298 214.729V220H554.033V212.604H555.229ZM563.724 210.812V212.604H565.104V213.581H563.724V218.168C563.724 218.464 563.785 218.688 563.908 218.838C564.031 218.984 564.241 219.057 564.537 219.057C564.683 219.057 564.883 219.029 565.139 218.975V220C564.806 220.091 564.482 220.137 564.168 220.137C563.603 220.137 563.177 219.966 562.89 219.624C562.603 219.282 562.459 218.797 562.459 218.168V213.581H561.112V212.604H562.459V210.812H563.724ZM572.276 210.812V212.604H573.657V213.581H572.276V218.168C572.276 218.464 572.338 218.688 572.461 218.838C572.584 218.984 572.794 219.057 573.09 219.057C573.236 219.057 573.436 219.029 573.691 218.975V220C573.359 220.091 573.035 220.137 572.721 220.137C572.156 220.137 571.729 219.966 571.442 219.624C571.155 219.282 571.012 218.797 571.012 218.168V213.581H569.665V212.604H571.012V210.812H572.276ZM574.919 216.233C574.919 215.509 575.06 214.857 575.343 214.278C575.63 213.7 576.026 213.253 576.532 212.938C577.043 212.624 577.624 212.467 578.275 212.467C579.283 212.467 580.096 212.815 580.716 213.513C581.34 214.21 581.652 215.137 581.652 216.295V216.384C581.652 217.104 581.513 217.751 581.235 218.325C580.962 218.895 580.568 219.339 580.053 219.658C579.542 219.977 578.954 220.137 578.289 220.137C577.286 220.137 576.473 219.788 575.849 219.091C575.229 218.394 574.919 217.471 574.919 216.322V216.233ZM576.19 216.384C576.19 217.204 576.38 217.863 576.758 218.359C577.141 218.856 577.651 219.104 578.289 219.104C578.932 219.104 579.442 218.854 579.82 218.353C580.199 217.847 580.388 217.14 580.388 216.233C580.388 215.422 580.194 214.766 579.807 214.265C579.424 213.759 578.913 213.506 578.275 213.506C577.651 213.506 577.147 213.754 576.765 214.251C576.382 214.748 576.19 215.459 576.19 216.384ZM593.459 216.384C593.459 217.509 593.201 218.416 592.687 219.104C592.172 219.793 591.474 220.137 590.595 220.137C589.697 220.137 588.991 219.852 588.476 219.282V222.844H587.211V212.604H588.366L588.428 213.424C588.943 212.786 589.658 212.467 590.574 212.467C591.463 212.467 592.165 212.802 592.68 213.472C593.199 214.142 593.459 215.074 593.459 216.268V216.384ZM592.194 216.24C592.194 215.406 592.017 214.748 591.661 214.265C591.306 213.782 590.818 213.54 590.198 213.54C589.433 213.54 588.858 213.88 588.476 214.559V218.093C588.854 218.767 589.433 219.104 590.212 219.104C590.818 219.104 591.299 218.865 591.654 218.387C592.014 217.904 592.194 217.188 592.194 216.24ZM598.897 213.738C598.706 213.706 598.499 213.69 598.275 213.69C597.446 213.69 596.883 214.044 596.587 214.75V220H595.322V212.604H596.553L596.573 213.458C596.988 212.797 597.576 212.467 598.337 212.467C598.583 212.467 598.77 212.499 598.897 212.562V213.738ZM599.845 216.233C599.845 215.509 599.986 214.857 600.269 214.278C600.556 213.7 600.952 213.253 601.458 212.938C601.968 212.624 602.549 212.467 603.201 212.467C604.208 212.467 605.022 212.815 605.642 213.513C606.266 214.21 606.578 215.137 606.578 216.295V216.384C606.578 217.104 606.439 217.751 606.161 218.325C605.888 218.895 605.493 219.339 604.979 219.658C604.468 219.977 603.88 220.137 603.215 220.137C602.212 220.137 601.399 219.788 600.774 219.091C600.155 218.394 599.845 217.471 599.845 216.322V216.233ZM601.116 216.384C601.116 217.204 601.305 217.863 601.684 218.359C602.066 218.856 602.577 219.104 603.215 219.104C603.857 219.104 604.368 218.854 604.746 218.353C605.124 217.847 605.313 217.14 605.313 216.233C605.313 215.422 605.12 214.766 604.732 214.265C604.35 213.759 603.839 213.506 603.201 213.506C602.577 213.506 602.073 213.754 601.69 214.251C601.308 214.748 601.116 215.459 601.116 216.384ZM610.745 218.284L612.577 212.604H613.869L611.217 220H610.253L607.573 212.604H608.865L610.745 218.284ZM616.71 220H615.445V212.604H616.71V220ZM615.343 210.642C615.343 210.437 615.404 210.263 615.527 210.122C615.655 209.981 615.842 209.91 616.088 209.91C616.334 209.91 616.521 209.981 616.648 210.122C616.776 210.263 616.84 210.437 616.84 210.642C616.84 210.847 616.776 211.018 616.648 211.154C616.521 211.291 616.334 211.359 616.088 211.359C615.842 211.359 615.655 211.291 615.527 211.154C615.404 211.018 615.343 210.847 615.343 210.642ZM618.683 216.24C618.683 215.105 618.951 214.194 619.489 213.506C620.027 212.813 620.731 212.467 621.602 212.467C622.467 212.467 623.153 212.763 623.659 213.355V209.5H624.924V220H623.762L623.7 219.207C623.194 219.827 622.49 220.137 621.588 220.137C620.731 220.137 620.032 219.786 619.489 219.084C618.951 218.382 618.683 217.466 618.683 216.336V216.24ZM619.947 216.384C619.947 217.222 620.12 217.879 620.467 218.353C620.813 218.826 621.292 219.063 621.902 219.063C622.704 219.063 623.29 218.703 623.659 217.983V214.586C623.281 213.889 622.7 213.54 621.916 213.54C621.296 213.54 620.813 213.779 620.467 214.258C620.12 214.736 619.947 215.445 619.947 216.384ZM630.212 220.137C629.209 220.137 628.394 219.809 627.765 219.152C627.136 218.492 626.821 217.61 626.821 216.507V216.274C626.821 215.541 626.96 214.887 627.238 214.312C627.521 213.734 627.913 213.283 628.414 212.959C628.92 212.631 629.467 212.467 630.055 212.467C631.016 212.467 631.764 212.784 632.297 213.417C632.83 214.05 633.097 214.957 633.097 216.138V216.664H628.086C628.104 217.393 628.316 217.983 628.722 218.435C629.132 218.881 629.651 219.104 630.28 219.104C630.727 219.104 631.105 219.013 631.415 218.831C631.725 218.649 631.996 218.407 632.229 218.106L633.001 218.708C632.381 219.66 631.451 220.137 630.212 220.137ZM630.055 213.506C629.544 213.506 629.116 213.693 628.77 214.066C628.423 214.436 628.209 214.955 628.127 215.625H631.832V215.529C631.796 214.887 631.622 214.39 631.312 214.039C631.003 213.684 630.583 213.506 630.055 213.506ZM369.924 239.104C370.375 239.104 370.769 238.968 371.106 238.694C371.444 238.421 371.631 238.079 371.667 237.669H372.863C372.84 238.093 372.695 238.496 372.426 238.879C372.157 239.262 371.797 239.567 371.346 239.795C370.899 240.023 370.425 240.137 369.924 240.137C368.917 240.137 368.115 239.802 367.518 239.132C366.925 238.457 366.629 237.537 366.629 236.37V236.158C366.629 235.438 366.761 234.798 367.025 234.237C367.29 233.677 367.668 233.242 368.16 232.932C368.657 232.622 369.243 232.467 369.917 232.467C370.746 232.467 371.435 232.715 371.981 233.212C372.533 233.709 372.827 234.354 372.863 235.146H371.667C371.631 234.668 371.448 234.276 371.12 233.971C370.797 233.661 370.396 233.506 369.917 233.506C369.274 233.506 368.775 233.738 368.42 234.203C368.069 234.663 367.894 235.331 367.894 236.206V236.445C367.894 237.298 368.069 237.954 368.42 238.414C368.771 238.874 369.272 239.104 369.924 239.104ZM378.11 233.738C377.919 233.706 377.712 233.69 377.488 233.69C376.659 233.69 376.096 234.044 375.8 234.75V240H374.535V232.604H375.766L375.786 233.458C376.201 232.797 376.789 232.467 377.55 232.467C377.796 232.467 377.983 232.499 378.11 232.562V233.738ZM380.903 240H379.639V232.604H380.903V240ZM379.536 230.642C379.536 230.437 379.598 230.263 379.721 230.122C379.848 229.981 380.035 229.91 380.281 229.91C380.527 229.91 380.714 229.981 380.842 230.122C380.969 230.263 381.033 230.437 381.033 230.642C381.033 230.847 380.969 231.018 380.842 231.154C380.714 231.291 380.527 231.359 380.281 231.359C380.035 231.359 379.848 231.291 379.721 231.154C379.598 231.018 379.536 230.847 379.536 230.642ZM384.899 230.812V232.604H386.28V233.581H384.899V238.168C384.899 238.464 384.961 238.688 385.084 238.838C385.207 238.984 385.417 239.057 385.713 239.057C385.859 239.057 386.059 239.029 386.314 238.975V240C385.982 240.091 385.658 240.137 385.344 240.137C384.779 240.137 384.353 239.966 384.065 239.624C383.778 239.282 383.635 238.797 383.635 238.168V233.581H382.288V232.604H383.635V230.812H384.899ZM389.388 240H388.123V232.604H389.388V240ZM388.021 230.642C388.021 230.437 388.082 230.263 388.205 230.122C388.333 229.981 388.52 229.91 388.766 229.91C389.012 229.91 389.199 229.981 389.326 230.122C389.454 230.263 389.518 230.437 389.518 230.642C389.518 230.847 389.454 231.018 389.326 231.154C389.199 231.291 389.012 231.359 388.766 231.359C388.52 231.359 388.333 231.291 388.205 231.154C388.082 231.018 388.021 230.847 388.021 230.642ZM394.635 239.104C395.086 239.104 395.48 238.968 395.817 238.694C396.155 238.421 396.341 238.079 396.378 237.669H397.574C397.551 238.093 397.406 238.496 397.137 238.879C396.868 239.262 396.508 239.567 396.057 239.795C395.61 240.023 395.136 240.137 394.635 240.137C393.628 240.137 392.826 239.802 392.229 239.132C391.636 238.457 391.34 237.537 391.34 236.37V236.158C391.34 235.438 391.472 234.798 391.736 234.237C392.001 233.677 392.379 233.242 392.871 232.932C393.368 232.622 393.953 232.467 394.628 232.467C395.457 232.467 396.146 232.715 396.692 233.212C397.244 233.709 397.538 234.354 397.574 235.146H396.378C396.341 234.668 396.159 234.276 395.831 233.971C395.507 233.661 395.106 233.506 394.628 233.506C393.985 233.506 393.486 233.738 393.131 234.203C392.78 234.663 392.604 235.331 392.604 236.206V236.445C392.604 237.298 392.78 237.954 393.131 238.414C393.482 238.874 393.983 239.104 394.635 239.104ZM403.812 240C403.74 239.854 403.68 239.594 403.635 239.221C403.047 239.831 402.345 240.137 401.529 240.137C400.8 240.137 400.201 239.932 399.731 239.521C399.267 239.107 399.034 238.583 399.034 237.949C399.034 237.179 399.326 236.582 399.909 236.158C400.497 235.73 401.322 235.516 402.384 235.516H403.614V234.935C403.614 234.493 403.482 234.142 403.218 233.882C402.953 233.618 402.564 233.485 402.049 233.485C401.598 233.485 401.219 233.599 400.914 233.827C400.609 234.055 400.456 234.331 400.456 234.654H399.185C399.185 234.285 399.314 233.93 399.574 233.588C399.839 233.242 400.194 232.968 400.641 232.768C401.092 232.567 401.586 232.467 402.124 232.467C402.976 232.467 403.644 232.681 404.127 233.109C404.61 233.533 404.861 234.119 404.879 234.866V238.271C404.879 238.95 404.965 239.49 405.139 239.891V240H403.812ZM401.714 239.036C402.11 239.036 402.486 238.934 402.842 238.729C403.197 238.523 403.455 238.257 403.614 237.929V236.411H402.623C401.074 236.411 400.299 236.865 400.299 237.771C400.299 238.168 400.431 238.478 400.695 238.701C400.96 238.924 401.299 239.036 401.714 239.036ZM408.485 240H407.221V229.5H408.485V240ZM415.862 240H414.598V232.604H415.862V240ZM414.495 230.642C414.495 230.437 414.557 230.263 414.68 230.122C414.807 229.981 414.994 229.91 415.24 229.91C415.486 229.91 415.673 229.981 415.801 230.122C415.928 230.263 415.992 230.437 415.992 230.642C415.992 230.847 415.928 231.018 415.801 231.154C415.673 231.291 415.486 231.359 415.24 231.359C414.994 231.359 414.807 231.291 414.68 231.154C414.557 231.018 414.495 230.847 414.495 230.642ZM419.339 232.604L419.38 233.533C419.945 232.822 420.683 232.467 421.595 232.467C423.158 232.467 423.946 233.349 423.96 235.112V240H422.695V235.105C422.691 234.572 422.568 234.178 422.326 233.923C422.089 233.668 421.718 233.54 421.212 233.54C420.802 233.54 420.442 233.649 420.132 233.868C419.822 234.087 419.58 234.374 419.407 234.729V240H418.143V232.604H419.339ZM426.739 240V233.581H425.57V232.604H426.739V231.845C426.739 231.052 426.951 230.439 427.375 230.006C427.799 229.573 428.398 229.356 429.173 229.356C429.465 229.356 429.754 229.395 430.041 229.473L429.973 230.498C429.758 230.457 429.531 230.437 429.289 230.437C428.879 230.437 428.562 230.557 428.339 230.799C428.116 231.036 428.004 231.378 428.004 231.824V232.604H429.583V233.581H428.004V240H426.739ZM430.899 236.233C430.899 235.509 431.041 234.857 431.323 234.278C431.61 233.7 432.007 233.253 432.513 232.938C433.023 232.624 433.604 232.467 434.256 232.467C435.263 232.467 436.076 232.815 436.696 233.513C437.321 234.21 437.633 235.137 437.633 236.295V236.384C437.633 237.104 437.494 237.751 437.216 238.325C436.942 238.895 436.548 239.339 436.033 239.658C435.523 239.977 434.935 240.137 434.27 240.137C433.267 240.137 432.453 239.788 431.829 239.091C431.209 238.394 430.899 237.471 430.899 236.322V236.233ZM432.171 236.384C432.171 237.204 432.36 237.863 432.738 238.359C433.121 238.856 433.632 239.104 434.27 239.104C434.912 239.104 435.423 238.854 435.801 238.353C436.179 237.847 436.368 237.14 436.368 236.233C436.368 235.422 436.174 234.766 435.787 234.265C435.404 233.759 434.894 233.506 434.256 233.506C433.632 233.506 433.128 233.754 432.745 234.251C432.362 234.748 432.171 235.459 432.171 236.384ZM443.044 233.738C442.853 233.706 442.645 233.69 442.422 233.69C441.592 233.69 441.03 234.044 440.733 234.75V240H439.469V232.604H440.699L440.72 233.458C441.134 232.797 441.722 232.467 442.483 232.467C442.729 232.467 442.916 232.499 443.044 232.562V233.738ZM445.652 232.604L445.687 233.424C446.229 232.786 446.96 232.467 447.881 232.467C448.915 232.467 449.619 232.863 449.993 233.656C450.239 233.301 450.558 233.014 450.95 232.795C451.347 232.576 451.814 232.467 452.352 232.467C453.974 232.467 454.799 233.326 454.826 235.044V240H453.562V235.119C453.562 234.59 453.441 234.196 453.199 233.937C452.958 233.672 452.552 233.54 451.982 233.54C451.513 233.54 451.123 233.681 450.813 233.964C450.504 234.242 450.324 234.618 450.273 235.092V240H449.002V235.153C449.002 234.078 448.476 233.54 447.423 233.54C446.593 233.54 446.026 233.893 445.721 234.6V240H444.456V232.604H445.652ZM461.557 240C461.484 239.854 461.424 239.594 461.379 239.221C460.791 239.831 460.089 240.137 459.273 240.137C458.544 240.137 457.945 239.932 457.476 239.521C457.011 239.107 456.778 238.583 456.778 237.949C456.778 237.179 457.07 236.582 457.653 236.158C458.241 235.73 459.066 235.516 460.128 235.516H461.358V234.935C461.358 234.493 461.226 234.142 460.962 233.882C460.698 233.618 460.308 233.485 459.793 233.485C459.342 233.485 458.964 233.599 458.658 233.827C458.353 234.055 458.2 234.331 458.2 234.654H456.929C456.929 234.285 457.059 233.93 457.318 233.588C457.583 233.242 457.938 232.968 458.385 232.768C458.836 232.567 459.33 232.467 459.868 232.467C460.72 232.467 461.388 232.681 461.871 233.109C462.354 233.533 462.605 234.119 462.623 234.866V238.271C462.623 238.95 462.71 239.49 462.883 239.891V240H461.557ZM459.458 239.036C459.854 239.036 460.23 238.934 460.586 238.729C460.941 238.523 461.199 238.257 461.358 237.929V236.411H460.367C458.818 236.411 458.043 236.865 458.043 237.771C458.043 238.168 458.175 238.478 458.439 238.701C458.704 238.924 459.043 239.036 459.458 239.036ZM466.571 230.812V232.604H467.952V233.581H466.571V238.168C466.571 238.464 466.633 238.688 466.756 238.838C466.879 238.984 467.089 239.057 467.385 239.057C467.531 239.057 467.731 239.029 467.986 238.975V240C467.654 240.091 467.33 240.137 467.016 240.137C466.451 240.137 466.024 239.966 465.737 239.624C465.45 239.282 465.307 238.797 465.307 238.168V233.581H463.96V232.604H465.307V230.812H466.571ZM471.06 240H469.795V232.604H471.06V240ZM469.692 230.642C469.692 230.437 469.754 230.263 469.877 230.122C470.005 229.981 470.191 229.91 470.438 229.91C470.684 229.91 470.87 229.981 470.998 230.122C471.126 230.263 471.189 230.437 471.189 230.642C471.189 230.847 471.126 231.018 470.998 231.154C470.87 231.291 470.684 231.359 470.438 231.359C470.191 231.359 470.005 231.291 469.877 231.154C469.754 231.018 469.692 230.847 469.692 230.642ZM473.005 236.233C473.005 235.509 473.146 234.857 473.429 234.278C473.716 233.7 474.112 233.253 474.618 232.938C475.129 232.624 475.71 232.467 476.361 232.467C477.368 232.467 478.182 232.815 478.802 233.513C479.426 234.21 479.738 235.137 479.738 236.295V236.384C479.738 237.104 479.599 237.751 479.321 238.325C479.048 238.895 478.654 239.339 478.139 239.658C477.628 239.977 477.04 240.137 476.375 240.137C475.372 240.137 474.559 239.788 473.935 239.091C473.315 238.394 473.005 237.471 473.005 236.322V236.233ZM474.276 236.384C474.276 237.204 474.465 237.863 474.844 238.359C475.227 238.856 475.737 239.104 476.375 239.104C477.018 239.104 477.528 238.854 477.906 238.353C478.285 237.847 478.474 237.14 478.474 236.233C478.474 235.422 478.28 234.766 477.893 234.265C477.51 233.759 476.999 233.506 476.361 233.506C475.737 233.506 475.233 233.754 474.851 234.251C474.468 234.748 474.276 235.459 474.276 236.384ZM482.771 232.604L482.812 233.533C483.377 232.822 484.115 232.467 485.026 232.467C486.59 232.467 487.378 233.349 487.392 235.112V240H486.127V235.105C486.122 234.572 485.999 234.178 485.758 233.923C485.521 233.668 485.149 233.54 484.644 233.54C484.233 233.54 483.873 233.649 483.563 233.868C483.254 234.087 483.012 234.374 482.839 234.729V240H481.574V232.604H482.771ZM489.508 241.982L488.79 241.49C489.218 240.893 489.442 240.278 489.46 239.645V238.503H490.697V239.494C490.697 239.954 490.583 240.415 490.355 240.875C490.132 241.335 489.85 241.704 489.508 241.982ZM495.935 236.233C495.935 235.509 496.076 234.857 496.358 234.278C496.646 233.7 497.042 233.253 497.548 232.938C498.058 232.624 498.639 232.467 499.291 232.467C500.298 232.467 501.112 232.815 501.731 233.513C502.356 234.21 502.668 235.137 502.668 236.295V236.384C502.668 237.104 502.529 237.751 502.251 238.325C501.978 238.895 501.583 239.339 501.068 239.658C500.558 239.977 499.97 240.137 499.305 240.137C498.302 240.137 497.489 239.788 496.864 239.091C496.244 238.394 495.935 237.471 495.935 236.322V236.233ZM497.206 236.384C497.206 237.204 497.395 237.863 497.773 238.359C498.156 238.856 498.667 239.104 499.305 239.104C499.947 239.104 500.458 238.854 500.836 238.353C501.214 237.847 501.403 237.14 501.403 236.233C501.403 235.422 501.21 234.766 500.822 234.265C500.439 233.759 499.929 233.506 499.291 233.506C498.667 233.506 498.163 233.754 497.78 234.251C497.397 234.748 497.206 235.459 497.206 236.384ZM508.079 233.738C507.888 233.706 507.68 233.69 507.457 233.69C506.628 233.69 506.065 234.044 505.769 234.75V240H504.504V232.604H505.734L505.755 233.458C506.17 232.797 506.757 232.467 507.519 232.467C507.765 232.467 507.951 232.499 508.079 232.562V233.738ZM517.787 240C517.714 239.854 517.655 239.594 517.609 239.221C517.021 239.831 516.32 240.137 515.504 240.137C514.775 240.137 514.175 239.932 513.706 239.521C513.241 239.107 513.009 238.583 513.009 237.949C513.009 237.179 513.3 236.582 513.884 236.158C514.472 235.73 515.297 235.516 516.358 235.516H517.589V234.935C517.589 234.493 517.457 234.142 517.192 233.882C516.928 233.618 516.538 233.485 516.023 233.485C515.572 233.485 515.194 233.599 514.889 233.827C514.583 234.055 514.431 234.331 514.431 234.654H513.159C513.159 234.285 513.289 233.93 513.549 233.588C513.813 233.242 514.169 232.968 514.615 232.768C515.066 232.567 515.561 232.467 516.099 232.467C516.951 232.467 517.618 232.681 518.102 233.109C518.585 233.533 518.835 234.119 518.854 234.866V238.271C518.854 238.95 518.94 239.49 519.113 239.891V240H517.787ZM515.688 239.036C516.085 239.036 516.461 238.934 516.816 238.729C517.172 238.523 517.429 238.257 517.589 237.929V236.411H516.598C515.048 236.411 514.273 236.865 514.273 237.771C514.273 238.168 514.406 238.478 514.67 238.701C514.934 238.924 515.274 239.036 515.688 239.036ZM525.393 238.038C525.393 237.696 525.263 237.432 525.003 237.245C524.748 237.054 524.299 236.89 523.656 236.753C523.018 236.616 522.51 236.452 522.132 236.261C521.758 236.069 521.48 235.841 521.298 235.577C521.12 235.313 521.031 234.998 521.031 234.634C521.031 234.028 521.286 233.515 521.797 233.096C522.312 232.676 522.968 232.467 523.766 232.467C524.604 232.467 525.283 232.683 525.803 233.116C526.327 233.549 526.589 234.103 526.589 234.777H525.317C525.317 234.431 525.169 234.132 524.873 233.882C524.581 233.631 524.212 233.506 523.766 233.506C523.305 233.506 522.945 233.606 522.686 233.807C522.426 234.007 522.296 234.269 522.296 234.593C522.296 234.898 522.417 235.128 522.658 235.283C522.9 235.438 523.335 235.586 523.964 235.728C524.597 235.869 525.11 236.037 525.502 236.233C525.894 236.429 526.183 236.666 526.37 236.944C526.562 237.218 526.657 237.553 526.657 237.949C526.657 238.61 526.393 239.141 525.864 239.542C525.336 239.938 524.65 240.137 523.807 240.137C523.214 240.137 522.69 240.032 522.234 239.822C521.779 239.613 521.421 239.321 521.161 238.947C520.906 238.569 520.778 238.161 520.778 237.724H522.043C522.066 238.147 522.234 238.485 522.549 238.735C522.868 238.981 523.287 239.104 523.807 239.104C524.285 239.104 524.668 239.009 524.955 238.817C525.247 238.621 525.393 238.362 525.393 238.038ZM530.619 236.575L529.826 237.402V240H528.562V229.5H529.826V235.851L530.503 235.037L532.807 232.604H534.345L531.467 235.693L534.68 240H533.196L530.619 236.575ZM540.245 240V233.581H539.076V232.604H540.245V231.845C540.245 231.052 540.457 230.439 540.881 230.006C541.305 229.573 541.904 229.356 542.679 229.356C542.97 229.356 543.26 229.395 543.547 229.473L543.479 230.498C543.264 230.457 543.036 230.437 542.795 230.437C542.385 230.437 542.068 230.557 541.845 230.799C541.621 231.036 541.51 231.378 541.51 231.824V232.604H543.089V233.581H541.51V240H540.245ZM544.405 236.233C544.405 235.509 544.547 234.857 544.829 234.278C545.116 233.7 545.513 233.253 546.019 232.938C546.529 232.624 547.11 232.467 547.762 232.467C548.769 232.467 549.582 232.815 550.202 233.513C550.826 234.21 551.139 235.137 551.139 236.295V236.384C551.139 237.104 551 237.751 550.722 238.325C550.448 238.895 550.054 239.339 549.539 239.658C549.029 239.977 548.441 240.137 547.775 240.137C546.773 240.137 545.959 239.788 545.335 239.091C544.715 238.394 544.405 237.471 544.405 236.322V236.233ZM545.677 236.384C545.677 237.204 545.866 237.863 546.244 238.359C546.627 238.856 547.137 239.104 547.775 239.104C548.418 239.104 548.928 238.854 549.307 238.353C549.685 237.847 549.874 237.14 549.874 236.233C549.874 235.422 549.68 234.766 549.293 234.265C548.91 233.759 548.4 233.506 547.762 233.506C547.137 233.506 546.634 233.754 546.251 234.251C545.868 234.748 545.677 235.459 545.677 236.384ZM556.55 233.738C556.358 233.706 556.151 233.69 555.928 233.69C555.098 233.69 554.535 234.044 554.239 234.75V240H552.975V232.604H554.205L554.226 233.458C554.64 232.797 555.228 232.467 555.989 232.467C556.235 232.467 556.422 232.499 556.55 232.562V233.738ZM566.258 240C566.185 239.854 566.126 239.594 566.08 239.221C565.492 239.831 564.79 240.137 563.975 240.137C563.245 240.137 562.646 239.932 562.177 239.521C561.712 239.107 561.479 238.583 561.479 237.949C561.479 237.179 561.771 236.582 562.354 236.158C562.942 235.73 563.767 235.516 564.829 235.516H566.06V234.935C566.06 234.493 565.927 234.142 565.663 233.882C565.399 233.618 565.009 233.485 564.494 233.485C564.043 233.485 563.665 233.599 563.359 233.827C563.054 234.055 562.901 234.331 562.901 234.654H561.63C561.63 234.285 561.76 233.93 562.02 233.588C562.284 233.242 562.639 232.968 563.086 232.768C563.537 232.567 564.032 232.467 564.569 232.467C565.422 232.467 566.089 232.681 566.572 233.109C567.055 233.533 567.306 234.119 567.324 234.866V238.271C567.324 238.95 567.411 239.49 567.584 239.891V240H566.258ZM564.159 239.036C564.556 239.036 564.932 238.934 565.287 238.729C565.643 238.523 565.9 238.257 566.06 237.929V236.411H565.068C563.519 236.411 562.744 236.865 562.744 237.771C562.744 238.168 562.876 238.478 563.141 238.701C563.405 238.924 563.744 239.036 564.159 239.036ZM572.972 236.24C572.972 235.105 573.241 234.194 573.778 233.506C574.316 232.813 575.02 232.467 575.891 232.467C576.757 232.467 577.442 232.763 577.948 233.355V229.5H579.213V240H578.051L577.989 239.207C577.483 239.827 576.779 240.137 575.877 240.137C575.02 240.137 574.321 239.786 573.778 239.084C573.241 238.382 572.972 237.466 572.972 236.336V236.24ZM574.236 236.384C574.236 237.222 574.41 237.879 574.756 238.353C575.102 238.826 575.581 239.063 576.191 239.063C576.993 239.063 577.579 238.703 577.948 237.983V234.586C577.57 233.889 576.989 233.54 576.205 233.54C575.585 233.54 575.102 233.779 574.756 234.258C574.41 234.736 574.236 235.445 574.236 236.384ZM584.501 240.137C583.498 240.137 582.683 239.809 582.054 239.152C581.425 238.492 581.11 237.61 581.11 236.507V236.274C581.11 235.541 581.249 234.887 581.527 234.312C581.81 233.734 582.202 233.283 582.703 232.959C583.209 232.631 583.756 232.467 584.344 232.467C585.305 232.467 586.053 232.784 586.586 233.417C587.119 234.05 587.386 234.957 587.386 236.138V236.664H582.375C582.393 237.393 582.605 237.983 583.011 238.435C583.421 238.881 583.94 239.104 584.569 239.104C585.016 239.104 585.394 239.013 585.704 238.831C586.014 238.649 586.285 238.407 586.518 238.106L587.29 238.708C586.67 239.66 585.741 240.137 584.501 240.137ZM584.344 233.506C583.833 233.506 583.405 233.693 583.059 234.066C582.712 234.436 582.498 234.955 582.416 235.625H586.121V235.529C586.085 234.887 585.911 234.39 585.602 234.039C585.292 233.684 584.872 233.506 584.344 233.506ZM592.072 239.104C592.523 239.104 592.918 238.968 593.255 238.694C593.592 238.421 593.779 238.079 593.815 237.669H595.012C594.989 238.093 594.843 238.496 594.574 238.879C594.305 239.262 593.945 239.567 593.494 239.795C593.048 240.023 592.574 240.137 592.072 240.137C591.065 240.137 590.263 239.802 589.666 239.132C589.074 238.457 588.777 237.537 588.777 236.37V236.158C588.777 235.438 588.91 234.798 589.174 234.237C589.438 233.677 589.816 233.242 590.309 232.932C590.805 232.622 591.391 232.467 592.065 232.467C592.895 232.467 593.583 232.715 594.13 233.212C594.681 233.709 594.975 234.354 595.012 235.146H593.815C593.779 234.668 593.597 234.276 593.269 233.971C592.945 233.661 592.544 233.506 592.065 233.506C591.423 233.506 590.924 233.738 590.568 234.203C590.217 234.663 590.042 235.331 590.042 236.206V236.445C590.042 237.298 590.217 237.954 590.568 238.414C590.919 238.874 591.421 239.104 592.072 239.104ZM598.058 240H596.793V232.604H598.058V240ZM596.69 230.642C596.69 230.437 596.752 230.263 596.875 230.122C597.003 229.981 597.189 229.91 597.436 229.91C597.682 229.91 597.868 229.981 597.996 230.122C598.124 230.263 598.188 230.437 598.188 230.642C598.188 230.847 598.124 231.018 597.996 231.154C597.868 231.291 597.682 231.359 597.436 231.359C597.189 231.359 597.003 231.291 596.875 231.154C596.752 231.018 596.69 230.847 596.69 230.642ZM604.645 238.038C604.645 237.696 604.515 237.432 604.255 237.245C604 237.054 603.551 236.89 602.908 236.753C602.27 236.616 601.762 236.452 601.384 236.261C601.01 236.069 600.732 235.841 600.55 235.577C600.372 235.313 600.283 234.998 600.283 234.634C600.283 234.028 600.538 233.515 601.049 233.096C601.564 232.676 602.22 232.467 603.018 232.467C603.856 232.467 604.535 232.683 605.055 233.116C605.579 233.549 605.841 234.103 605.841 234.777H604.569C604.569 234.431 604.421 234.132 604.125 233.882C603.833 233.631 603.464 233.506 603.018 233.506C602.557 233.506 602.197 233.606 601.938 233.807C601.678 234.007 601.548 234.269 601.548 234.593C601.548 234.898 601.669 235.128 601.91 235.283C602.152 235.438 602.587 235.586 603.216 235.728C603.849 235.869 604.362 236.037 604.754 236.233C605.146 236.429 605.435 236.666 605.622 236.944C605.813 237.218 605.909 237.553 605.909 237.949C605.909 238.61 605.645 239.141 605.116 239.542C604.588 239.938 603.902 240.137 603.059 240.137C602.466 240.137 601.942 240.032 601.486 239.822C601.031 239.613 600.673 239.321 600.413 238.947C600.158 238.569 600.03 238.161 600.03 237.724H601.295C601.318 238.147 601.486 238.485 601.801 238.735C602.12 238.981 602.539 239.104 603.059 239.104C603.537 239.104 603.92 239.009 604.207 238.817C604.499 238.621 604.645 238.362 604.645 238.038ZM609.181 240H607.916V232.604H609.181V240ZM607.813 230.642C607.813 230.437 607.875 230.263 607.998 230.122C608.126 229.981 608.312 229.91 608.559 229.91C608.805 229.91 608.992 229.981 609.119 230.122C609.247 230.263 609.311 230.437 609.311 230.642C609.311 230.847 609.247 231.018 609.119 231.154C608.992 231.291 608.805 231.359 608.559 231.359C608.312 231.359 608.126 231.291 607.998 231.154C607.875 231.018 607.813 230.847 607.813 230.642ZM611.126 236.233C611.126 235.509 611.267 234.857 611.55 234.278C611.837 233.7 612.233 233.253 612.739 232.938C613.25 232.624 613.831 232.467 614.482 232.467C615.49 232.467 616.303 232.815 616.923 233.513C617.547 234.21 617.859 235.137 617.859 236.295V236.384C617.859 237.104 617.72 237.751 617.442 238.325C617.169 238.895 616.775 239.339 616.26 239.658C615.749 239.977 615.161 240.137 614.496 240.137C613.493 240.137 612.68 239.788 612.056 239.091C611.436 238.394 611.126 237.471 611.126 236.322V236.233ZM612.397 236.384C612.397 237.204 612.587 237.863 612.965 238.359C613.348 238.856 613.858 239.104 614.496 239.104C615.139 239.104 615.649 238.854 616.027 238.353C616.406 237.847 616.595 237.14 616.595 236.233C616.595 235.422 616.401 234.766 616.014 234.265C615.631 233.759 615.12 233.506 614.482 233.506C613.858 233.506 613.354 233.754 612.972 234.251C612.589 234.748 612.397 235.459 612.397 236.384ZM620.892 232.604L620.933 233.533C621.498 232.822 622.236 232.467 623.147 232.467C624.711 232.467 625.499 233.349 625.513 235.112V240H624.248V235.105C624.243 234.572 624.12 234.178 623.879 233.923C623.642 233.668 623.271 233.54 622.765 233.54C622.354 233.54 621.994 233.649 621.685 233.868C621.375 234.087 621.133 234.374 620.96 234.729V240H619.695V232.604H620.892ZM627.697 239.337C627.697 239.118 627.761 238.936 627.889 238.79C628.021 238.644 628.217 238.571 628.477 238.571C628.736 238.571 628.932 238.644 629.064 238.79C629.201 238.936 629.27 239.118 629.27 239.337C629.27 239.547 629.201 239.722 629.064 239.863C628.932 240.005 628.736 240.075 628.477 240.075C628.217 240.075 628.021 240.005 627.889 239.863C627.761 239.722 627.697 239.547 627.697 239.337Z" fill="#49454F"/>
<path d="M513.417 294V284.047H516.356C517.236 284.047 518.015 284.243 518.694 284.635C519.378 285.027 519.907 285.583 520.28 286.303C520.654 287.023 520.841 287.848 520.841 288.777V289.276C520.841 290.22 520.652 291.049 520.273 291.765C519.9 292.48 519.364 293.032 518.667 293.419C517.974 293.806 517.179 294 516.281 294H513.417ZM515.146 285.441V292.619H516.274C517.181 292.619 517.876 292.337 518.359 291.771C518.847 291.202 519.095 290.386 519.104 289.324V288.771C519.104 287.69 518.87 286.866 518.4 286.296C517.931 285.726 517.25 285.441 516.356 285.441H515.146ZM524.17 294H522.509V286.604H524.17V294ZM522.406 284.683C522.406 284.427 522.486 284.215 522.646 284.047C522.81 283.878 523.042 283.794 523.343 283.794C523.644 283.794 523.876 283.878 524.04 284.047C524.204 284.215 524.286 284.427 524.286 284.683C524.286 284.933 524.204 285.143 524.04 285.312C523.876 285.476 523.644 285.558 523.343 285.558C523.042 285.558 522.81 285.476 522.646 285.312C522.486 285.143 522.406 284.933 522.406 284.683ZM530.131 291.99C530.131 291.694 530.008 291.468 529.762 291.313C529.52 291.159 529.117 291.022 528.552 290.903C527.987 290.785 527.515 290.634 527.137 290.452C526.307 290.051 525.893 289.47 525.893 288.709C525.893 288.071 526.161 287.538 526.699 287.109C527.237 286.681 527.921 286.467 528.75 286.467C529.634 286.467 530.347 286.686 530.89 287.123C531.437 287.561 531.71 288.128 531.71 288.825H530.049C530.049 288.506 529.93 288.242 529.693 288.032C529.456 287.818 529.142 287.711 528.75 287.711C528.385 287.711 528.087 287.795 527.854 287.964C527.627 288.132 527.513 288.358 527.513 288.641C527.513 288.896 527.62 289.094 527.834 289.235C528.048 289.377 528.481 289.52 529.133 289.666C529.785 289.807 530.295 289.978 530.664 290.179C531.038 290.375 531.313 290.612 531.491 290.89C531.674 291.168 531.765 291.505 531.765 291.901C531.765 292.567 531.489 293.107 530.938 293.521C530.386 293.932 529.664 294.137 528.771 294.137C528.164 294.137 527.624 294.027 527.15 293.809C526.676 293.59 526.307 293.289 526.043 292.906C525.779 292.523 525.646 292.111 525.646 291.669H527.26C527.283 292.061 527.431 292.364 527.704 292.578C527.978 292.788 528.34 292.893 528.791 292.893C529.229 292.893 529.561 292.811 529.789 292.646C530.017 292.478 530.131 292.259 530.131 291.99ZM534.779 286.604L534.827 287.376C535.347 286.77 536.058 286.467 536.96 286.467C537.949 286.467 538.626 286.845 538.99 287.602C539.528 286.845 540.285 286.467 541.26 286.467C542.076 286.467 542.682 286.692 543.078 287.144C543.479 287.595 543.684 288.26 543.693 289.14V294H542.032V289.188C542.032 288.718 541.93 288.374 541.725 288.155C541.52 287.937 541.18 287.827 540.706 287.827C540.328 287.827 540.018 287.93 539.776 288.135C539.539 288.335 539.373 288.6 539.277 288.928L539.284 294H537.623V289.133C537.6 288.262 537.156 287.827 536.29 287.827C535.625 287.827 535.153 288.098 534.875 288.641V294H533.214V286.604H534.779ZM547.166 294H545.505V286.604H547.166V294ZM545.402 284.683C545.402 284.427 545.482 284.215 545.642 284.047C545.806 283.878 546.038 283.794 546.339 283.794C546.64 283.794 546.872 283.878 547.036 284.047C547.2 284.215 547.282 284.427 547.282 284.683C547.282 284.933 547.2 285.143 547.036 285.312C546.872 285.476 546.64 285.558 546.339 285.558C546.038 285.558 545.806 285.476 545.642 285.312C545.482 285.143 545.402 284.933 545.402 284.683ZM553.127 291.99C553.127 291.694 553.004 291.468 552.758 291.313C552.516 291.159 552.113 291.022 551.548 290.903C550.983 290.785 550.511 290.634 550.133 290.452C549.303 290.051 548.889 289.47 548.889 288.709C548.889 288.071 549.158 287.538 549.695 287.109C550.233 286.681 550.917 286.467 551.746 286.467C552.63 286.467 553.343 286.686 553.886 287.123C554.433 287.561 554.706 288.128 554.706 288.825H553.045C553.045 288.506 552.926 288.242 552.689 288.032C552.452 287.818 552.138 287.711 551.746 287.711C551.382 287.711 551.083 287.795 550.851 287.964C550.623 288.132 550.509 288.358 550.509 288.641C550.509 288.896 550.616 289.094 550.83 289.235C551.044 289.377 551.477 289.52 552.129 289.666C552.781 289.807 553.291 289.978 553.66 290.179C554.034 290.375 554.31 290.612 554.487 290.89C554.67 291.168 554.761 291.505 554.761 291.901C554.761 292.567 554.485 293.107 553.934 293.521C553.382 293.932 552.66 294.137 551.767 294.137C551.16 294.137 550.62 294.027 550.146 293.809C549.673 293.59 549.303 293.289 549.039 292.906C548.775 292.523 548.643 292.111 548.643 291.669H550.256C550.279 292.061 550.427 292.364 550.7 292.578C550.974 292.788 551.336 292.893 551.787 292.893C552.225 292.893 552.557 292.811 552.785 292.646C553.013 292.478 553.127 292.259 553.127 291.99ZM560.359 291.99C560.359 291.694 560.236 291.468 559.99 291.313C559.749 291.159 559.345 291.022 558.78 290.903C558.215 290.785 557.743 290.634 557.365 290.452C556.536 290.051 556.121 289.47 556.121 288.709C556.121 288.071 556.39 287.538 556.928 287.109C557.465 286.681 558.149 286.467 558.979 286.467C559.863 286.467 560.576 286.686 561.118 287.123C561.665 287.561 561.938 288.128 561.938 288.825H560.277C560.277 288.506 560.159 288.242 559.922 288.032C559.685 287.818 559.37 287.711 558.979 287.711C558.614 287.711 558.315 287.795 558.083 287.964C557.855 288.132 557.741 288.358 557.741 288.641C557.741 288.896 557.848 289.094 558.062 289.235C558.277 289.377 558.71 289.52 559.361 289.666C560.013 289.807 560.523 289.978 560.893 290.179C561.266 290.375 561.542 290.612 561.72 290.89C561.902 291.168 561.993 291.505 561.993 291.901C561.993 292.567 561.717 293.107 561.166 293.521C560.615 293.932 559.892 294.137 558.999 294.137C558.393 294.137 557.853 294.027 557.379 293.809C556.905 293.59 556.536 293.289 556.271 292.906C556.007 292.523 555.875 292.111 555.875 291.669H557.488C557.511 292.061 557.659 292.364 557.933 292.578C558.206 292.788 558.568 292.893 559.02 292.893C559.457 292.893 559.79 292.811 560.018 292.646C560.245 292.478 560.359 292.259 560.359 291.99Z" fill="#6750A4"/>
<path d="M604.025 290.76C603.925 291.822 603.533 292.651 602.85 293.248C602.166 293.84 601.257 294.137 600.122 294.137C599.329 294.137 598.63 293.95 598.023 293.576C597.422 293.198 596.957 292.662 596.629 291.97C596.301 291.277 596.13 290.473 596.116 289.557V288.627C596.116 287.688 596.283 286.861 596.615 286.146C596.948 285.43 597.424 284.879 598.044 284.491C598.668 284.104 599.388 283.91 600.204 283.91C601.302 283.91 602.187 284.209 602.856 284.806C603.526 285.403 603.916 286.246 604.025 287.335H602.303C602.221 286.619 602.011 286.104 601.674 285.79C601.341 285.471 600.851 285.312 600.204 285.312C599.452 285.312 598.873 285.587 598.468 286.139C598.067 286.686 597.862 287.49 597.853 288.552V289.434C597.853 290.509 598.044 291.329 598.427 291.895C598.814 292.46 599.379 292.742 600.122 292.742C600.801 292.742 601.312 292.59 601.653 292.284C601.995 291.979 602.212 291.471 602.303 290.76H604.025ZM605.105 290.233C605.105 289.509 605.249 288.857 605.536 288.278C605.823 287.695 606.227 287.248 606.746 286.938C607.266 286.624 607.863 286.467 608.537 286.467C609.535 286.467 610.344 286.788 610.964 287.431C611.588 288.073 611.925 288.925 611.976 289.987L611.982 290.377C611.982 291.106 611.841 291.758 611.559 292.332C611.281 292.906 610.88 293.351 610.355 293.665C609.836 293.979 609.234 294.137 608.551 294.137C607.507 294.137 606.671 293.79 606.042 293.098C605.418 292.4 605.105 291.473 605.105 290.315V290.233ZM606.767 290.377C606.767 291.138 606.924 291.735 607.238 292.168C607.553 292.596 607.99 292.811 608.551 292.811C609.111 292.811 609.547 292.592 609.856 292.154C610.171 291.717 610.328 291.076 610.328 290.233C610.328 289.486 610.166 288.894 609.843 288.456C609.524 288.019 609.089 287.8 608.537 287.8C607.995 287.8 607.564 288.016 607.245 288.449C606.926 288.878 606.767 289.52 606.767 290.377ZM614.929 286.604L614.977 287.458C615.523 286.797 616.241 286.467 617.13 286.467C618.67 286.467 619.454 287.349 619.481 289.112V294H617.82V289.208C617.82 288.739 617.718 288.392 617.513 288.169C617.312 287.941 616.982 287.827 616.521 287.827C615.852 287.827 615.353 288.13 615.024 288.736V294H613.363V286.604H614.929ZM621.621 294V287.834H620.493V286.604H621.621V286.098C621.626 285.519 621.749 285.022 621.99 284.607C622.232 284.193 622.574 283.881 623.016 283.671C623.458 283.461 623.989 283.356 624.608 283.356C624.973 283.356 625.322 283.395 625.654 283.473C625.992 283.55 626.34 283.648 626.7 283.767L626.447 285.141C625.818 284.922 625.244 284.812 624.725 284.812C624.219 284.812 623.852 284.924 623.624 285.147C623.396 285.366 623.282 285.697 623.282 286.139V286.604H624.738V287.834H623.282V294H621.621ZM627.486 294H625.825V286.604H627.486V294ZM633.201 288.121C632.982 288.085 632.757 288.066 632.524 288.066C631.763 288.066 631.251 288.358 630.986 288.941V294H629.325V286.604H630.911L630.952 287.431C631.353 286.788 631.909 286.467 632.62 286.467C632.857 286.467 633.053 286.499 633.208 286.562L633.201 288.121ZM635.812 286.604L635.86 287.376C636.38 286.77 637.091 286.467 637.993 286.467C638.982 286.467 639.659 286.845 640.023 287.602C640.561 286.845 641.318 286.467 642.293 286.467C643.109 286.467 643.715 286.692 644.111 287.144C644.512 287.595 644.717 288.26 644.727 289.14V294H643.065V289.188C643.065 288.718 642.963 288.374 642.758 288.155C642.553 287.937 642.213 287.827 641.739 287.827C641.361 287.827 641.051 287.93 640.81 288.135C640.573 288.335 640.406 288.6 640.311 288.928L640.317 294H638.656V289.133C638.633 288.262 638.189 287.827 637.323 287.827C636.658 287.827 636.186 288.098 635.908 288.641V294H634.247V286.604H635.812Z" fill="#6750A4"/>
</g>
</g>
<defs>
<clipPath id="clip0_9_9574">
<rect width="1024" height="400" fill="white"/>
</clipPath>
<clipPath id="clip1_9_9574">
<rect x="342" y="68" width="340" height="265" rx="28" fill="white"/>
</clipPath>
</defs>
</svg>
