<svg width="1024" height="300" viewBox="0 0 1024 300" fill="none" xmlns="http://www.w3.org/2000/svg">
<g clip-path="url(#clip0_132_7919)">
<rect x="516" y="4" width="504" height="292" fill="#1C1B1F"/>
<rect x="516" y="4" width="504" height="292" stroke="#1C1B1F" stroke-width="8"/>
<rect x="4" y="4" width="504" height="292" fill="#FFFBFE"/>
<rect x="4" y="4" width="504" height="292" stroke="#FFFBFE" stroke-width="8"/>
<rect x="146" y="147" width="6" height="6" rx="3" fill="#B3261E"/>
<rect x="202" y="142" width="16" height="16" rx="8" fill="#B3261E"/>
<path d="M210.075 154V147.675L208.359 148.929V147.631L210.416 146.124H211.252V154H210.075Z" fill="white"/>
<rect x="268" y="142" width="20" height="16" rx="8" fill="#B3261E"/>
<path d="M274.335 154V147.675L272.619 148.929V147.631L274.676 146.124H275.512V154H274.335ZM280.236 154.176C279.569 154.176 279.004 154 278.542 153.648C278.08 153.289 277.728 152.801 277.486 152.185C277.252 151.562 277.134 150.854 277.134 150.062C277.134 149.27 277.252 148.566 277.486 147.95C277.728 147.327 278.08 146.839 278.542 146.487C279.004 146.128 279.569 145.948 280.236 145.948C280.904 145.948 281.468 146.128 281.93 146.487C282.4 146.839 282.752 147.327 282.986 147.95C283.228 148.566 283.349 149.27 283.349 150.062C283.349 150.854 283.228 151.562 282.986 152.185C282.752 152.801 282.4 153.289 281.93 153.648C281.468 154 280.904 154.176 280.236 154.176ZM280.236 153.065C280.867 153.065 281.344 152.794 281.666 152.251C281.996 151.708 282.161 150.979 282.161 150.062C282.161 149.145 281.996 148.416 281.666 147.873C281.344 147.33 280.867 147.059 280.236 147.059C279.606 147.059 279.129 147.33 278.806 147.873C278.484 148.416 278.322 149.145 278.322 150.062C278.322 150.979 278.484 151.708 278.806 152.251C279.129 152.794 279.606 153.065 280.236 153.065Z" fill="white"/>
<rect x="338" y="142" width="28" height="16" rx="8" fill="#B3261E"/>
<path d="M344.595 154V147.675L342.879 148.929V147.631L344.936 146.124H345.772V154H344.595ZM350.497 154.176C349.829 154.176 349.265 154 348.803 153.648C348.341 153.289 347.989 152.801 347.747 152.185C347.512 151.562 347.395 150.854 347.395 150.062C347.395 149.27 347.512 148.566 347.747 147.95C347.989 147.327 348.341 146.839 348.803 146.487C349.265 146.128 349.829 145.948 350.497 145.948C351.164 145.948 351.729 146.128 352.191 146.487C352.66 146.839 353.012 147.327 353.247 147.95C353.489 148.566 353.61 149.27 353.61 150.062C353.61 150.854 353.489 151.562 353.247 152.185C353.012 152.801 352.66 153.289 352.191 153.648C351.729 154 351.164 154.176 350.497 154.176ZM350.497 153.065C351.127 153.065 351.604 152.794 351.927 152.251C352.257 151.708 352.422 150.979 352.422 150.062C352.422 149.145 352.257 148.416 351.927 147.873C351.604 147.33 351.127 147.059 350.497 147.059C349.866 147.059 349.389 147.33 349.067 147.873C348.744 148.416 348.583 149.145 348.583 150.062C348.583 150.979 348.744 151.708 349.067 152.251C349.389 152.794 349.866 153.065 350.497 153.065ZM357.976 154.176C357.309 154.176 356.744 154 356.282 153.648C355.82 153.289 355.468 152.801 355.226 152.185C354.992 151.562 354.874 150.854 354.874 150.062C354.874 149.27 354.992 148.566 355.226 147.95C355.468 147.327 355.82 146.839 356.282 146.487C356.744 146.128 357.309 145.948 357.976 145.948C358.644 145.948 359.208 146.128 359.67 146.487C360.14 146.839 360.492 147.327 360.726 147.95C360.968 148.566 361.089 149.27 361.089 150.062C361.089 150.854 360.968 151.562 360.726 152.185C360.492 152.801 360.14 153.289 359.67 153.648C359.208 154 358.644 154.176 357.976 154.176ZM357.976 153.065C358.607 153.065 359.084 152.794 359.406 152.251C359.736 151.708 359.901 150.979 359.901 150.062C359.901 149.145 359.736 148.416 359.406 147.873C359.084 147.33 358.607 147.059 357.976 147.059C357.346 147.059 356.869 147.33 356.546 147.873C356.224 148.416 356.062 149.145 356.062 150.062C356.062 150.979 356.224 151.708 356.546 152.251C356.869 152.794 357.346 153.065 357.976 153.065Z" fill="white"/>
<rect x="658" y="147" width="6" height="6" rx="3" fill="#F2B8B5"/>
<rect x="714" y="142" width="16" height="16" rx="8" fill="#F2B8B5"/>
<path d="M722.075 154V147.675L720.359 148.929V147.631L722.416 146.124H723.252V154H722.075Z" fill="#370906"/>
<rect x="780" y="142" width="20" height="16" rx="8" fill="#F2B8B5"/>
<path d="M786.335 154V147.675L784.619 148.929V147.631L786.676 146.124H787.512V154H786.335ZM792.236 154.176C791.569 154.176 791.004 154 790.542 153.648C790.08 153.289 789.728 152.801 789.486 152.185C789.252 151.562 789.134 150.854 789.134 150.062C789.134 149.27 789.252 148.566 789.486 147.95C789.728 147.327 790.08 146.839 790.542 146.487C791.004 146.128 791.569 145.948 792.236 145.948C792.904 145.948 793.468 146.128 793.93 146.487C794.4 146.839 794.752 147.327 794.986 147.95C795.228 148.566 795.349 149.27 795.349 150.062C795.349 150.854 795.228 151.562 794.986 152.185C794.752 152.801 794.4 153.289 793.93 153.648C793.468 154 792.904 154.176 792.236 154.176ZM792.236 153.065C792.867 153.065 793.344 152.794 793.666 152.251C793.996 151.708 794.161 150.979 794.161 150.062C794.161 149.145 793.996 148.416 793.666 147.873C793.344 147.33 792.867 147.059 792.236 147.059C791.606 147.059 791.129 147.33 790.806 147.873C790.484 148.416 790.322 149.145 790.322 150.062C790.322 150.979 790.484 151.708 790.806 152.251C791.129 152.794 791.606 153.065 792.236 153.065Z" fill="#410E0B"/>
<rect x="850" y="142" width="28" height="16" rx="8" fill="#F2B8B5"/>
<path d="M856.595 154V147.675L854.879 148.929V147.631L856.936 146.124H857.772V154H856.595ZM862.497 154.176C861.829 154.176 861.265 154 860.803 153.648C860.341 153.289 859.989 152.801 859.747 152.185C859.512 151.562 859.395 150.854 859.395 150.062C859.395 149.27 859.512 148.566 859.747 147.95C859.989 147.327 860.341 146.839 860.803 146.487C861.265 146.128 861.829 145.948 862.497 145.948C863.164 145.948 863.729 146.128 864.191 146.487C864.66 146.839 865.012 147.327 865.247 147.95C865.489 148.566 865.61 149.27 865.61 150.062C865.61 150.854 865.489 151.562 865.247 152.185C865.012 152.801 864.66 153.289 864.191 153.648C863.729 154 863.164 154.176 862.497 154.176ZM862.497 153.065C863.127 153.065 863.604 152.794 863.927 152.251C864.257 151.708 864.422 150.979 864.422 150.062C864.422 149.145 864.257 148.416 863.927 147.873C863.604 147.33 863.127 147.059 862.497 147.059C861.866 147.059 861.389 147.33 861.067 147.873C860.744 148.416 860.583 149.145 860.583 150.062C860.583 150.979 860.744 151.708 861.067 152.251C861.389 152.794 861.866 153.065 862.497 153.065ZM869.976 154.176C869.309 154.176 868.744 154 868.282 153.648C867.82 153.289 867.468 152.801 867.226 152.185C866.992 151.562 866.874 150.854 866.874 150.062C866.874 149.27 866.992 148.566 867.226 147.95C867.468 147.327 867.82 146.839 868.282 146.487C868.744 146.128 869.309 145.948 869.976 145.948C870.644 145.948 871.208 146.128 871.67 146.487C872.14 146.839 872.492 147.327 872.726 147.95C872.968 148.566 873.089 149.27 873.089 150.062C873.089 150.854 872.968 151.562 872.726 152.185C872.492 152.801 872.14 153.289 871.67 153.648C871.208 154 870.644 154.176 869.976 154.176ZM869.976 153.065C870.607 153.065 871.084 152.794 871.406 152.251C871.736 151.708 871.901 150.979 871.901 150.062C871.901 149.145 871.736 148.416 871.406 147.873C871.084 147.33 870.607 147.059 869.976 147.059C869.346 147.059 868.869 147.33 868.546 147.873C868.224 148.416 868.062 149.145 868.062 150.062C868.062 150.979 868.224 151.708 868.546 152.251C868.869 152.794 869.346 153.065 869.976 153.065Z" fill="#410E0B"/>
</g>
<defs>
<clipPath id="clip0_132_7919">
<rect width="1024" height="300" fill="white"/>
</clipPath>
</defs>
</svg>
